G04 #@! TF.GenerationSoftware,KiCad,Pcbnew,(7.0.0-0)*
G04 #@! TF.CreationDate,2023-03-22T18:35:00+09:00*
G04 #@! TF.ProjectId,PC8001-SC1602,50433830-3031-42d5-9343-313630322e6b,rev?*
G04 #@! TF.SameCoordinates,PX5f5e100PY8f0d180*
G04 #@! TF.FileFunction,Legend,Top*
G04 #@! TF.FilePolarity,Positive*
%FSLAX46Y46*%
G04 Gerber Fmt 4.6, Leading zero omitted, Abs format (unit mm)*
G04 Created by KiCad (PCBNEW (7.0.0-0)) date 2023-03-22 18:35:00*
%MOMM*%
%LPD*%
G01*
G04 APERTURE LIST*
%ADD10C,0.100000*%
%ADD11C,0.150000*%
%ADD12C,0.200000*%
%ADD13C,0.120000*%
G04 APERTURE END LIST*
D10*
X78528571Y84617620D02*
X78623809Y84617620D01*
X78623809Y84617620D02*
X78719047Y84570000D01*
X78719047Y84570000D02*
X78766666Y84522381D01*
X78766666Y84522381D02*
X78814285Y84427143D01*
X78814285Y84427143D02*
X78861904Y84236667D01*
X78861904Y84236667D02*
X78861904Y83998572D01*
X78861904Y83998572D02*
X78814285Y83808096D01*
X78814285Y83808096D02*
X78766666Y83712858D01*
X78766666Y83712858D02*
X78719047Y83665239D01*
X78719047Y83665239D02*
X78623809Y83617620D01*
X78623809Y83617620D02*
X78528571Y83617620D01*
X78528571Y83617620D02*
X78433333Y83665239D01*
X78433333Y83665239D02*
X78385714Y83712858D01*
X78385714Y83712858D02*
X78338095Y83808096D01*
X78338095Y83808096D02*
X78290476Y83998572D01*
X78290476Y83998572D02*
X78290476Y84236667D01*
X78290476Y84236667D02*
X78338095Y84427143D01*
X78338095Y84427143D02*
X78385714Y84522381D01*
X78385714Y84522381D02*
X78433333Y84570000D01*
X78433333Y84570000D02*
X78528571Y84617620D01*
X79290476Y83712858D02*
X79338095Y83665239D01*
X79338095Y83665239D02*
X79290476Y83617620D01*
X79290476Y83617620D02*
X79242857Y83665239D01*
X79242857Y83665239D02*
X79290476Y83712858D01*
X79290476Y83712858D02*
X79290476Y83617620D01*
X80290475Y83617620D02*
X79719047Y83617620D01*
X80004761Y83617620D02*
X80004761Y84617620D01*
X80004761Y84617620D02*
X79909523Y84474762D01*
X79909523Y84474762D02*
X79814285Y84379524D01*
X79814285Y84379524D02*
X79719047Y84331905D01*
X81147618Y84284286D02*
X81147618Y83617620D01*
X80719047Y84284286D02*
X80719047Y83760477D01*
X80719047Y83760477D02*
X80766666Y83665239D01*
X80766666Y83665239D02*
X80861904Y83617620D01*
X80861904Y83617620D02*
X81004761Y83617620D01*
X81004761Y83617620D02*
X81099999Y83665239D01*
X81099999Y83665239D02*
X81147618Y83712858D01*
X65828571Y84617620D02*
X65923809Y84617620D01*
X65923809Y84617620D02*
X66019047Y84570000D01*
X66019047Y84570000D02*
X66066666Y84522381D01*
X66066666Y84522381D02*
X66114285Y84427143D01*
X66114285Y84427143D02*
X66161904Y84236667D01*
X66161904Y84236667D02*
X66161904Y83998572D01*
X66161904Y83998572D02*
X66114285Y83808096D01*
X66114285Y83808096D02*
X66066666Y83712858D01*
X66066666Y83712858D02*
X66019047Y83665239D01*
X66019047Y83665239D02*
X65923809Y83617620D01*
X65923809Y83617620D02*
X65828571Y83617620D01*
X65828571Y83617620D02*
X65733333Y83665239D01*
X65733333Y83665239D02*
X65685714Y83712858D01*
X65685714Y83712858D02*
X65638095Y83808096D01*
X65638095Y83808096D02*
X65590476Y83998572D01*
X65590476Y83998572D02*
X65590476Y84236667D01*
X65590476Y84236667D02*
X65638095Y84427143D01*
X65638095Y84427143D02*
X65685714Y84522381D01*
X65685714Y84522381D02*
X65733333Y84570000D01*
X65733333Y84570000D02*
X65828571Y84617620D01*
X66590476Y83712858D02*
X66638095Y83665239D01*
X66638095Y83665239D02*
X66590476Y83617620D01*
X66590476Y83617620D02*
X66542857Y83665239D01*
X66542857Y83665239D02*
X66590476Y83712858D01*
X66590476Y83712858D02*
X66590476Y83617620D01*
X67590475Y83617620D02*
X67019047Y83617620D01*
X67304761Y83617620D02*
X67304761Y84617620D01*
X67304761Y84617620D02*
X67209523Y84474762D01*
X67209523Y84474762D02*
X67114285Y84379524D01*
X67114285Y84379524D02*
X67019047Y84331905D01*
X68447618Y84284286D02*
X68447618Y83617620D01*
X68019047Y84284286D02*
X68019047Y83760477D01*
X68019047Y83760477D02*
X68066666Y83665239D01*
X68066666Y83665239D02*
X68161904Y83617620D01*
X68161904Y83617620D02*
X68304761Y83617620D01*
X68304761Y83617620D02*
X68399999Y83665239D01*
X68399999Y83665239D02*
X68447618Y83712858D01*
X6861904Y83417620D02*
X6290476Y83417620D01*
X6576190Y83417620D02*
X6576190Y84417620D01*
X6576190Y84417620D02*
X6480952Y84274762D01*
X6480952Y84274762D02*
X6385714Y84179524D01*
X6385714Y84179524D02*
X6290476Y84131905D01*
X7480952Y84417620D02*
X7576190Y84417620D01*
X7576190Y84417620D02*
X7671428Y84370000D01*
X7671428Y84370000D02*
X7719047Y84322381D01*
X7719047Y84322381D02*
X7766666Y84227143D01*
X7766666Y84227143D02*
X7814285Y84036667D01*
X7814285Y84036667D02*
X7814285Y83798572D01*
X7814285Y83798572D02*
X7766666Y83608096D01*
X7766666Y83608096D02*
X7719047Y83512858D01*
X7719047Y83512858D02*
X7671428Y83465239D01*
X7671428Y83465239D02*
X7576190Y83417620D01*
X7576190Y83417620D02*
X7480952Y83417620D01*
X7480952Y83417620D02*
X7385714Y83465239D01*
X7385714Y83465239D02*
X7338095Y83512858D01*
X7338095Y83512858D02*
X7290476Y83608096D01*
X7290476Y83608096D02*
X7242857Y83798572D01*
X7242857Y83798572D02*
X7242857Y84036667D01*
X7242857Y84036667D02*
X7290476Y84227143D01*
X7290476Y84227143D02*
X7338095Y84322381D01*
X7338095Y84322381D02*
X7385714Y84370000D01*
X7385714Y84370000D02*
X7480952Y84417620D01*
X8671428Y84084286D02*
X8671428Y83417620D01*
X8242857Y84084286D02*
X8242857Y83560477D01*
X8242857Y83560477D02*
X8290476Y83465239D01*
X8290476Y83465239D02*
X8385714Y83417620D01*
X8385714Y83417620D02*
X8528571Y83417620D01*
X8528571Y83417620D02*
X8623809Y83465239D01*
X8623809Y83465239D02*
X8671428Y83512858D01*
X9480952Y83941429D02*
X9147619Y83941429D01*
X9147619Y83417620D02*
X9147619Y84417620D01*
X9147619Y84417620D02*
X9623809Y84417620D01*
X31838095Y83317620D02*
X31838095Y84317620D01*
X31838095Y84317620D02*
X32219047Y84317620D01*
X32219047Y84317620D02*
X32314285Y84270000D01*
X32314285Y84270000D02*
X32361904Y84222381D01*
X32361904Y84222381D02*
X32409523Y84127143D01*
X32409523Y84127143D02*
X32409523Y83984286D01*
X32409523Y83984286D02*
X32361904Y83889048D01*
X32361904Y83889048D02*
X32314285Y83841429D01*
X32314285Y83841429D02*
X32219047Y83793810D01*
X32219047Y83793810D02*
X31838095Y83793810D01*
X33409523Y83412858D02*
X33361904Y83365239D01*
X33361904Y83365239D02*
X33219047Y83317620D01*
X33219047Y83317620D02*
X33123809Y83317620D01*
X33123809Y83317620D02*
X32980952Y83365239D01*
X32980952Y83365239D02*
X32885714Y83460477D01*
X32885714Y83460477D02*
X32838095Y83555715D01*
X32838095Y83555715D02*
X32790476Y83746191D01*
X32790476Y83746191D02*
X32790476Y83889048D01*
X32790476Y83889048D02*
X32838095Y84079524D01*
X32838095Y84079524D02*
X32885714Y84174762D01*
X32885714Y84174762D02*
X32980952Y84270000D01*
X32980952Y84270000D02*
X33123809Y84317620D01*
X33123809Y84317620D02*
X33219047Y84317620D01*
X33219047Y84317620D02*
X33361904Y84270000D01*
X33361904Y84270000D02*
X33409523Y84222381D01*
X33838095Y83698572D02*
X34600000Y83698572D01*
X35219047Y83889048D02*
X35123809Y83936667D01*
X35123809Y83936667D02*
X35076190Y83984286D01*
X35076190Y83984286D02*
X35028571Y84079524D01*
X35028571Y84079524D02*
X35028571Y84127143D01*
X35028571Y84127143D02*
X35076190Y84222381D01*
X35076190Y84222381D02*
X35123809Y84270000D01*
X35123809Y84270000D02*
X35219047Y84317620D01*
X35219047Y84317620D02*
X35409523Y84317620D01*
X35409523Y84317620D02*
X35504761Y84270000D01*
X35504761Y84270000D02*
X35552380Y84222381D01*
X35552380Y84222381D02*
X35599999Y84127143D01*
X35599999Y84127143D02*
X35599999Y84079524D01*
X35599999Y84079524D02*
X35552380Y83984286D01*
X35552380Y83984286D02*
X35504761Y83936667D01*
X35504761Y83936667D02*
X35409523Y83889048D01*
X35409523Y83889048D02*
X35219047Y83889048D01*
X35219047Y83889048D02*
X35123809Y83841429D01*
X35123809Y83841429D02*
X35076190Y83793810D01*
X35076190Y83793810D02*
X35028571Y83698572D01*
X35028571Y83698572D02*
X35028571Y83508096D01*
X35028571Y83508096D02*
X35076190Y83412858D01*
X35076190Y83412858D02*
X35123809Y83365239D01*
X35123809Y83365239D02*
X35219047Y83317620D01*
X35219047Y83317620D02*
X35409523Y83317620D01*
X35409523Y83317620D02*
X35504761Y83365239D01*
X35504761Y83365239D02*
X35552380Y83412858D01*
X35552380Y83412858D02*
X35599999Y83508096D01*
X35599999Y83508096D02*
X35599999Y83698572D01*
X35599999Y83698572D02*
X35552380Y83793810D01*
X35552380Y83793810D02*
X35504761Y83841429D01*
X35504761Y83841429D02*
X35409523Y83889048D01*
X36219047Y84317620D02*
X36314285Y84317620D01*
X36314285Y84317620D02*
X36409523Y84270000D01*
X36409523Y84270000D02*
X36457142Y84222381D01*
X36457142Y84222381D02*
X36504761Y84127143D01*
X36504761Y84127143D02*
X36552380Y83936667D01*
X36552380Y83936667D02*
X36552380Y83698572D01*
X36552380Y83698572D02*
X36504761Y83508096D01*
X36504761Y83508096D02*
X36457142Y83412858D01*
X36457142Y83412858D02*
X36409523Y83365239D01*
X36409523Y83365239D02*
X36314285Y83317620D01*
X36314285Y83317620D02*
X36219047Y83317620D01*
X36219047Y83317620D02*
X36123809Y83365239D01*
X36123809Y83365239D02*
X36076190Y83412858D01*
X36076190Y83412858D02*
X36028571Y83508096D01*
X36028571Y83508096D02*
X35980952Y83698572D01*
X35980952Y83698572D02*
X35980952Y83936667D01*
X35980952Y83936667D02*
X36028571Y84127143D01*
X36028571Y84127143D02*
X36076190Y84222381D01*
X36076190Y84222381D02*
X36123809Y84270000D01*
X36123809Y84270000D02*
X36219047Y84317620D01*
X37171428Y84317620D02*
X37266666Y84317620D01*
X37266666Y84317620D02*
X37361904Y84270000D01*
X37361904Y84270000D02*
X37409523Y84222381D01*
X37409523Y84222381D02*
X37457142Y84127143D01*
X37457142Y84127143D02*
X37504761Y83936667D01*
X37504761Y83936667D02*
X37504761Y83698572D01*
X37504761Y83698572D02*
X37457142Y83508096D01*
X37457142Y83508096D02*
X37409523Y83412858D01*
X37409523Y83412858D02*
X37361904Y83365239D01*
X37361904Y83365239D02*
X37266666Y83317620D01*
X37266666Y83317620D02*
X37171428Y83317620D01*
X37171428Y83317620D02*
X37076190Y83365239D01*
X37076190Y83365239D02*
X37028571Y83412858D01*
X37028571Y83412858D02*
X36980952Y83508096D01*
X36980952Y83508096D02*
X36933333Y83698572D01*
X36933333Y83698572D02*
X36933333Y83936667D01*
X36933333Y83936667D02*
X36980952Y84127143D01*
X36980952Y84127143D02*
X37028571Y84222381D01*
X37028571Y84222381D02*
X37076190Y84270000D01*
X37076190Y84270000D02*
X37171428Y84317620D01*
X38457142Y83317620D02*
X37885714Y83317620D01*
X38171428Y83317620D02*
X38171428Y84317620D01*
X38171428Y84317620D02*
X38076190Y84174762D01*
X38076190Y84174762D02*
X37980952Y84079524D01*
X37980952Y84079524D02*
X37885714Y84031905D01*
X40057142Y83412858D02*
X40009523Y83365239D01*
X40009523Y83365239D02*
X39866666Y83317620D01*
X39866666Y83317620D02*
X39771428Y83317620D01*
X39771428Y83317620D02*
X39628571Y83365239D01*
X39628571Y83365239D02*
X39533333Y83460477D01*
X39533333Y83460477D02*
X39485714Y83555715D01*
X39485714Y83555715D02*
X39438095Y83746191D01*
X39438095Y83746191D02*
X39438095Y83889048D01*
X39438095Y83889048D02*
X39485714Y84079524D01*
X39485714Y84079524D02*
X39533333Y84174762D01*
X39533333Y84174762D02*
X39628571Y84270000D01*
X39628571Y84270000D02*
X39771428Y84317620D01*
X39771428Y84317620D02*
X39866666Y84317620D01*
X39866666Y84317620D02*
X40009523Y84270000D01*
X40009523Y84270000D02*
X40057142Y84222381D01*
X40485714Y83317620D02*
X40485714Y84317620D01*
X40485714Y84317620D02*
X40866666Y84317620D01*
X40866666Y84317620D02*
X40961904Y84270000D01*
X40961904Y84270000D02*
X41009523Y84222381D01*
X41009523Y84222381D02*
X41057142Y84127143D01*
X41057142Y84127143D02*
X41057142Y83984286D01*
X41057142Y83984286D02*
X41009523Y83889048D01*
X41009523Y83889048D02*
X40961904Y83841429D01*
X40961904Y83841429D02*
X40866666Y83793810D01*
X40866666Y83793810D02*
X40485714Y83793810D01*
X41485714Y84317620D02*
X41485714Y83508096D01*
X41485714Y83508096D02*
X41533333Y83412858D01*
X41533333Y83412858D02*
X41580952Y83365239D01*
X41580952Y83365239D02*
X41676190Y83317620D01*
X41676190Y83317620D02*
X41866666Y83317620D01*
X41866666Y83317620D02*
X41961904Y83365239D01*
X41961904Y83365239D02*
X42009523Y83412858D01*
X42009523Y83412858D02*
X42057142Y83508096D01*
X42057142Y83508096D02*
X42057142Y84317620D01*
X42961904Y84127143D02*
X43152380Y83555715D01*
X42723809Y84127143D02*
X42676190Y83889048D01*
X42676190Y83889048D02*
X42580952Y83698572D01*
X42580952Y83698572D02*
X42485714Y83555715D01*
X43009523Y84222381D02*
X43104761Y84127143D01*
X43152380Y84270000D02*
X43247618Y84174762D01*
X43580952Y84317620D02*
X44009523Y84317620D01*
X44009523Y84317620D02*
X43961904Y84031905D01*
X43961904Y84031905D02*
X43866666Y83841429D01*
X43866666Y83841429D02*
X43771428Y83698572D01*
X43771428Y83698572D02*
X43676190Y83555715D01*
X43676190Y83555715D02*
X43533333Y83412858D01*
X43866666Y83793810D02*
X43961904Y83650953D01*
X43961904Y83650953D02*
X44104761Y83412858D01*
X44628571Y84174762D02*
X45199999Y84174762D01*
X45199999Y84174762D02*
X45199999Y83508096D01*
X45199999Y83508096D02*
X44628571Y83508096D01*
X45866666Y84412858D02*
X46057142Y84270000D01*
X45961904Y83841429D02*
X45961904Y83317620D01*
X46057142Y83793810D02*
X46247618Y83603334D01*
X45723809Y84222381D02*
X46199999Y84222381D01*
X46199999Y84222381D02*
X46104761Y84031905D01*
X46104761Y84031905D02*
X46009523Y83889048D01*
X46009523Y83889048D02*
X45866666Y83746191D01*
X45866666Y83746191D02*
X45628571Y83603334D01*
X46961904Y84412858D02*
X46914285Y84174762D01*
X46914285Y84174762D02*
X46819047Y84031905D01*
X46819047Y84031905D02*
X46723809Y83841429D01*
X46961904Y84222381D02*
X47247618Y84222381D01*
X47247618Y84222381D02*
X47247618Y84031905D01*
X47247618Y84031905D02*
X47199999Y83841429D01*
X47199999Y83841429D02*
X47104761Y83650953D01*
X47104761Y83650953D02*
X47009523Y83508096D01*
X47009523Y83508096D02*
X46819047Y83365239D01*
X47914285Y84031905D02*
X48152380Y83746191D01*
X47961904Y84412858D02*
X47914285Y84222381D01*
X47914285Y84222381D02*
X47866666Y84031905D01*
X47866666Y84031905D02*
X47771428Y83841429D01*
X47961904Y84222381D02*
X48295237Y84222381D01*
X48295237Y84222381D02*
X48247618Y84031905D01*
X48247618Y84031905D02*
X48199999Y83841429D01*
X48199999Y83841429D02*
X48152380Y83650953D01*
X48152380Y83650953D02*
X48057142Y83508096D01*
X48057142Y83508096D02*
X47914285Y83365239D01*
X48723809Y83841429D02*
X49485713Y83841429D01*
X89482380Y56138096D02*
X88482380Y56138096D01*
X88434761Y57328571D02*
X89720476Y56471429D01*
X88482380Y57852381D02*
X88482380Y58042857D01*
X88482380Y58042857D02*
X88530000Y58138095D01*
X88530000Y58138095D02*
X88625238Y58233333D01*
X88625238Y58233333D02*
X88815714Y58280952D01*
X88815714Y58280952D02*
X89149047Y58280952D01*
X89149047Y58280952D02*
X89339523Y58233333D01*
X89339523Y58233333D02*
X89434761Y58138095D01*
X89434761Y58138095D02*
X89482380Y58042857D01*
X89482380Y58042857D02*
X89482380Y57852381D01*
X89482380Y57852381D02*
X89434761Y57757143D01*
X89434761Y57757143D02*
X89339523Y57661905D01*
X89339523Y57661905D02*
X89149047Y57614286D01*
X89149047Y57614286D02*
X88815714Y57614286D01*
X88815714Y57614286D02*
X88625238Y57661905D01*
X88625238Y57661905D02*
X88530000Y57757143D01*
X88530000Y57757143D02*
X88482380Y57852381D01*
X88625238Y58566667D02*
X88625238Y58995238D01*
X88672857Y59138095D02*
X88672857Y59757143D01*
X88815714Y59042857D02*
X88815714Y59804762D01*
X88387142Y58804762D02*
X88625238Y58804762D01*
X89006190Y59090476D02*
X89482380Y59090476D01*
X88434761Y59138095D02*
X88672857Y59138095D01*
X89006190Y59328571D02*
X89482380Y59328571D01*
X88815714Y59423809D02*
X89006190Y59376190D01*
X88339523Y59423809D02*
X88672857Y59423809D01*
X89006190Y59566667D02*
X89482380Y59566667D01*
X88434761Y59757143D02*
X88672857Y59757143D01*
X88720476Y58900000D02*
X89244285Y58852381D01*
X89196666Y58995238D02*
X89291904Y58566667D01*
X88720476Y58661905D02*
X89149047Y58709524D01*
X89006190Y59090476D02*
X89006190Y59757143D01*
X89006190Y59757143D02*
X89482380Y59757143D01*
X89482380Y59757143D02*
X89482380Y59709524D01*
X88958571Y60042857D02*
X88958571Y61280952D01*
X89482380Y60376190D02*
X89482380Y60661904D01*
X88720476Y60661904D02*
X89482380Y60661904D01*
X88482380Y60185714D02*
X88482380Y61138095D01*
X88482380Y61138095D02*
X88577619Y60995238D01*
X88577619Y60995238D02*
X88720476Y60661904D01*
X89101428Y61661904D02*
X89101428Y62423808D01*
X88958571Y63233332D02*
X89006190Y63376189D01*
X89006190Y63376189D02*
X89053809Y63423808D01*
X89053809Y63423808D02*
X89149047Y63471427D01*
X89149047Y63471427D02*
X89291904Y63471427D01*
X89291904Y63471427D02*
X89387142Y63423808D01*
X89387142Y63423808D02*
X89434761Y63376189D01*
X89434761Y63376189D02*
X89482380Y63280951D01*
X89482380Y63280951D02*
X89482380Y62899999D01*
X89482380Y62899999D02*
X88482380Y62899999D01*
X88482380Y62899999D02*
X88482380Y63233332D01*
X88482380Y63233332D02*
X88530000Y63328570D01*
X88530000Y63328570D02*
X88577619Y63376189D01*
X88577619Y63376189D02*
X88672857Y63423808D01*
X88672857Y63423808D02*
X88768095Y63423808D01*
X88768095Y63423808D02*
X88863333Y63376189D01*
X88863333Y63376189D02*
X88910952Y63328570D01*
X88910952Y63328570D02*
X88958571Y63233332D01*
X88958571Y63233332D02*
X88958571Y62899999D01*
X89482380Y83338096D02*
X88482380Y83338096D01*
X88434761Y84528571D02*
X89720476Y83671429D01*
X88482380Y85052381D02*
X88482380Y85242857D01*
X88482380Y85242857D02*
X88530000Y85338095D01*
X88530000Y85338095D02*
X88625238Y85433333D01*
X88625238Y85433333D02*
X88815714Y85480952D01*
X88815714Y85480952D02*
X89149047Y85480952D01*
X89149047Y85480952D02*
X89339523Y85433333D01*
X89339523Y85433333D02*
X89434761Y85338095D01*
X89434761Y85338095D02*
X89482380Y85242857D01*
X89482380Y85242857D02*
X89482380Y85052381D01*
X89482380Y85052381D02*
X89434761Y84957143D01*
X89434761Y84957143D02*
X89339523Y84861905D01*
X89339523Y84861905D02*
X89149047Y84814286D01*
X89149047Y84814286D02*
X88815714Y84814286D01*
X88815714Y84814286D02*
X88625238Y84861905D01*
X88625238Y84861905D02*
X88530000Y84957143D01*
X88530000Y84957143D02*
X88482380Y85052381D01*
X88625238Y85766667D02*
X88625238Y86195238D01*
X88672857Y86338095D02*
X88672857Y86957143D01*
X88815714Y86242857D02*
X88815714Y87004762D01*
X88387142Y86004762D02*
X88625238Y86004762D01*
X89006190Y86290476D02*
X89482380Y86290476D01*
X88434761Y86338095D02*
X88672857Y86338095D01*
X89006190Y86528571D02*
X89482380Y86528571D01*
X88815714Y86623809D02*
X89006190Y86576190D01*
X88339523Y86623809D02*
X88672857Y86623809D01*
X89006190Y86766667D02*
X89482380Y86766667D01*
X88434761Y86957143D02*
X88672857Y86957143D01*
X88720476Y86100000D02*
X89244285Y86052381D01*
X89196666Y86195238D02*
X89291904Y85766667D01*
X88720476Y85861905D02*
X89149047Y85909524D01*
X89006190Y86290476D02*
X89006190Y86957143D01*
X89006190Y86957143D02*
X89482380Y86957143D01*
X89482380Y86957143D02*
X89482380Y86909524D01*
X88958571Y87242857D02*
X88958571Y88480952D01*
X89482380Y87576190D02*
X89482380Y87861904D01*
X88720476Y87861904D02*
X89482380Y87861904D01*
X88482380Y87385714D02*
X88482380Y88338095D01*
X88482380Y88338095D02*
X88577619Y88195238D01*
X88577619Y88195238D02*
X88720476Y87861904D01*
X89101428Y88861904D02*
X89101428Y89623808D01*
X89196666Y90052380D02*
X89196666Y90528570D01*
X89482380Y89957142D02*
X88482380Y90290475D01*
X88482380Y90290475D02*
X89482380Y90623808D01*
D11*
X80473571Y67314286D02*
X80473571Y68314286D01*
X80473571Y68314286D02*
X81973571Y67671429D01*
X80973571Y69528571D02*
X81973571Y69528571D01*
X80402142Y69171429D02*
X81473571Y68814286D01*
X81473571Y68814286D02*
X81473571Y69742857D01*
X81973571Y70314285D02*
X80473571Y70314285D01*
X81187857Y70314285D02*
X81187857Y71171428D01*
X81973571Y71171428D02*
X80473571Y71171428D01*
X81830714Y72742857D02*
X81902142Y72671429D01*
X81902142Y72671429D02*
X81973571Y72457143D01*
X81973571Y72457143D02*
X81973571Y72314286D01*
X81973571Y72314286D02*
X81902142Y72100000D01*
X81902142Y72100000D02*
X81759285Y71957143D01*
X81759285Y71957143D02*
X81616428Y71885714D01*
X81616428Y71885714D02*
X81330714Y71814286D01*
X81330714Y71814286D02*
X81116428Y71814286D01*
X81116428Y71814286D02*
X80830714Y71885714D01*
X80830714Y71885714D02*
X80687857Y71957143D01*
X80687857Y71957143D02*
X80545000Y72100000D01*
X80545000Y72100000D02*
X80473571Y72314286D01*
X80473571Y72314286D02*
X80473571Y72457143D01*
X80473571Y72457143D02*
X80545000Y72671429D01*
X80545000Y72671429D02*
X80616428Y72742857D01*
X80473571Y73671429D02*
X80473571Y73814286D01*
X80473571Y73814286D02*
X80545000Y73957143D01*
X80545000Y73957143D02*
X80616428Y74028571D01*
X80616428Y74028571D02*
X80759285Y74100000D01*
X80759285Y74100000D02*
X81045000Y74171429D01*
X81045000Y74171429D02*
X81402142Y74171429D01*
X81402142Y74171429D02*
X81687857Y74100000D01*
X81687857Y74100000D02*
X81830714Y74028571D01*
X81830714Y74028571D02*
X81902142Y73957143D01*
X81902142Y73957143D02*
X81973571Y73814286D01*
X81973571Y73814286D02*
X81973571Y73671429D01*
X81973571Y73671429D02*
X81902142Y73528571D01*
X81902142Y73528571D02*
X81830714Y73457143D01*
X81830714Y73457143D02*
X81687857Y73385714D01*
X81687857Y73385714D02*
X81402142Y73314286D01*
X81402142Y73314286D02*
X81045000Y73314286D01*
X81045000Y73314286D02*
X80759285Y73385714D01*
X80759285Y73385714D02*
X80616428Y73457143D01*
X80616428Y73457143D02*
X80545000Y73528571D01*
X80545000Y73528571D02*
X80473571Y73671429D01*
X80973571Y75457142D02*
X81973571Y75457142D01*
X80402142Y75100000D02*
X81473571Y74742857D01*
X81473571Y74742857D02*
X81473571Y75671428D01*
X67673571Y66614286D02*
X67673571Y67614286D01*
X67673571Y67614286D02*
X69173571Y66971429D01*
X68173571Y68828571D02*
X69173571Y68828571D01*
X67602142Y68471429D02*
X68673571Y68114286D01*
X68673571Y68114286D02*
X68673571Y69042857D01*
X69173571Y69614285D02*
X67673571Y69614285D01*
X68387857Y69614285D02*
X68387857Y70471428D01*
X69173571Y70471428D02*
X67673571Y70471428D01*
X69030714Y72042857D02*
X69102142Y71971429D01*
X69102142Y71971429D02*
X69173571Y71757143D01*
X69173571Y71757143D02*
X69173571Y71614286D01*
X69173571Y71614286D02*
X69102142Y71400000D01*
X69102142Y71400000D02*
X68959285Y71257143D01*
X68959285Y71257143D02*
X68816428Y71185714D01*
X68816428Y71185714D02*
X68530714Y71114286D01*
X68530714Y71114286D02*
X68316428Y71114286D01*
X68316428Y71114286D02*
X68030714Y71185714D01*
X68030714Y71185714D02*
X67887857Y71257143D01*
X67887857Y71257143D02*
X67745000Y71400000D01*
X67745000Y71400000D02*
X67673571Y71614286D01*
X67673571Y71614286D02*
X67673571Y71757143D01*
X67673571Y71757143D02*
X67745000Y71971429D01*
X67745000Y71971429D02*
X67816428Y72042857D01*
X69173571Y73471429D02*
X69173571Y72614286D01*
X69173571Y73042857D02*
X67673571Y73042857D01*
X67673571Y73042857D02*
X67887857Y72900000D01*
X67887857Y72900000D02*
X68030714Y72757143D01*
X68030714Y72757143D02*
X68102142Y72614286D01*
X67673571Y73971428D02*
X67673571Y74900000D01*
X67673571Y74900000D02*
X68245000Y74400000D01*
X68245000Y74400000D02*
X68245000Y74614285D01*
X68245000Y74614285D02*
X68316428Y74757142D01*
X68316428Y74757142D02*
X68387857Y74828571D01*
X68387857Y74828571D02*
X68530714Y74900000D01*
X68530714Y74900000D02*
X68887857Y74900000D01*
X68887857Y74900000D02*
X69030714Y74828571D01*
X69030714Y74828571D02*
X69102142Y74757142D01*
X69102142Y74757142D02*
X69173571Y74614285D01*
X69173571Y74614285D02*
X69173571Y74185714D01*
X69173571Y74185714D02*
X69102142Y74042857D01*
X69102142Y74042857D02*
X69030714Y73971428D01*
X68316428Y75757142D02*
X68245000Y75614285D01*
X68245000Y75614285D02*
X68173571Y75542856D01*
X68173571Y75542856D02*
X68030714Y75471428D01*
X68030714Y75471428D02*
X67959285Y75471428D01*
X67959285Y75471428D02*
X67816428Y75542856D01*
X67816428Y75542856D02*
X67745000Y75614285D01*
X67745000Y75614285D02*
X67673571Y75757142D01*
X67673571Y75757142D02*
X67673571Y76042856D01*
X67673571Y76042856D02*
X67745000Y76185713D01*
X67745000Y76185713D02*
X67816428Y76257142D01*
X67816428Y76257142D02*
X67959285Y76328571D01*
X67959285Y76328571D02*
X68030714Y76328571D01*
X68030714Y76328571D02*
X68173571Y76257142D01*
X68173571Y76257142D02*
X68245000Y76185713D01*
X68245000Y76185713D02*
X68316428Y76042856D01*
X68316428Y76042856D02*
X68316428Y75757142D01*
X68316428Y75757142D02*
X68387857Y75614285D01*
X68387857Y75614285D02*
X68459285Y75542856D01*
X68459285Y75542856D02*
X68602142Y75471428D01*
X68602142Y75471428D02*
X68887857Y75471428D01*
X68887857Y75471428D02*
X69030714Y75542856D01*
X69030714Y75542856D02*
X69102142Y75614285D01*
X69102142Y75614285D02*
X69173571Y75757142D01*
X69173571Y75757142D02*
X69173571Y76042856D01*
X69173571Y76042856D02*
X69102142Y76185713D01*
X69102142Y76185713D02*
X69030714Y76257142D01*
X69030714Y76257142D02*
X68887857Y76328571D01*
X68887857Y76328571D02*
X68602142Y76328571D01*
X68602142Y76328571D02*
X68459285Y76257142D01*
X68459285Y76257142D02*
X68387857Y76185713D01*
X68387857Y76185713D02*
X68316428Y76042856D01*
D10*
X35161904Y70217620D02*
X34590476Y70217620D01*
X34876190Y70217620D02*
X34876190Y71217620D01*
X34876190Y71217620D02*
X34780952Y71074762D01*
X34780952Y71074762D02*
X34685714Y70979524D01*
X34685714Y70979524D02*
X34590476Y70931905D01*
X35780952Y71217620D02*
X35876190Y71217620D01*
X35876190Y71217620D02*
X35971428Y71170000D01*
X35971428Y71170000D02*
X36019047Y71122381D01*
X36019047Y71122381D02*
X36066666Y71027143D01*
X36066666Y71027143D02*
X36114285Y70836667D01*
X36114285Y70836667D02*
X36114285Y70598572D01*
X36114285Y70598572D02*
X36066666Y70408096D01*
X36066666Y70408096D02*
X36019047Y70312858D01*
X36019047Y70312858D02*
X35971428Y70265239D01*
X35971428Y70265239D02*
X35876190Y70217620D01*
X35876190Y70217620D02*
X35780952Y70217620D01*
X35780952Y70217620D02*
X35685714Y70265239D01*
X35685714Y70265239D02*
X35638095Y70312858D01*
X35638095Y70312858D02*
X35590476Y70408096D01*
X35590476Y70408096D02*
X35542857Y70598572D01*
X35542857Y70598572D02*
X35542857Y70836667D01*
X35542857Y70836667D02*
X35590476Y71027143D01*
X35590476Y71027143D02*
X35638095Y71122381D01*
X35638095Y71122381D02*
X35685714Y71170000D01*
X35685714Y71170000D02*
X35780952Y71217620D01*
X36542857Y70217620D02*
X36542857Y71217620D01*
X36638095Y70598572D02*
X36923809Y70217620D01*
X36923809Y70884286D02*
X36542857Y70503334D01*
X23361904Y72017620D02*
X22790476Y72017620D01*
X23076190Y72017620D02*
X23076190Y73017620D01*
X23076190Y73017620D02*
X22980952Y72874762D01*
X22980952Y72874762D02*
X22885714Y72779524D01*
X22885714Y72779524D02*
X22790476Y72731905D01*
X23790476Y72017620D02*
X23790476Y73017620D01*
X23885714Y72398572D02*
X24171428Y72017620D01*
X24171428Y72684286D02*
X23790476Y72303334D01*
X43690476Y63265239D02*
X43833333Y63217620D01*
X43833333Y63217620D02*
X44071428Y63217620D01*
X44071428Y63217620D02*
X44166666Y63265239D01*
X44166666Y63265239D02*
X44214285Y63312858D01*
X44214285Y63312858D02*
X44261904Y63408096D01*
X44261904Y63408096D02*
X44261904Y63503334D01*
X44261904Y63503334D02*
X44214285Y63598572D01*
X44214285Y63598572D02*
X44166666Y63646191D01*
X44166666Y63646191D02*
X44071428Y63693810D01*
X44071428Y63693810D02*
X43880952Y63741429D01*
X43880952Y63741429D02*
X43785714Y63789048D01*
X43785714Y63789048D02*
X43738095Y63836667D01*
X43738095Y63836667D02*
X43690476Y63931905D01*
X43690476Y63931905D02*
X43690476Y64027143D01*
X43690476Y64027143D02*
X43738095Y64122381D01*
X43738095Y64122381D02*
X43785714Y64170000D01*
X43785714Y64170000D02*
X43880952Y64217620D01*
X43880952Y64217620D02*
X44119047Y64217620D01*
X44119047Y64217620D02*
X44261904Y64170000D01*
X43976190Y64360477D02*
X43976190Y63074762D01*
X44690476Y63741429D02*
X45023809Y63741429D01*
X45166666Y63217620D02*
X44690476Y63217620D01*
X44690476Y63217620D02*
X44690476Y64217620D01*
X44690476Y64217620D02*
X45166666Y64217620D01*
X45785714Y64217620D02*
X45880952Y64217620D01*
X45880952Y64217620D02*
X45976190Y64170000D01*
X45976190Y64170000D02*
X46023809Y64122381D01*
X46023809Y64122381D02*
X46071428Y64027143D01*
X46071428Y64027143D02*
X46119047Y63836667D01*
X46119047Y63836667D02*
X46119047Y63598572D01*
X46119047Y63598572D02*
X46071428Y63408096D01*
X46071428Y63408096D02*
X46023809Y63312858D01*
X46023809Y63312858D02*
X45976190Y63265239D01*
X45976190Y63265239D02*
X45880952Y63217620D01*
X45880952Y63217620D02*
X45785714Y63217620D01*
X45785714Y63217620D02*
X45690476Y63265239D01*
X45690476Y63265239D02*
X45642857Y63312858D01*
X45642857Y63312858D02*
X45595238Y63408096D01*
X45595238Y63408096D02*
X45547619Y63598572D01*
X45547619Y63598572D02*
X45547619Y63836667D01*
X45547619Y63836667D02*
X45595238Y64027143D01*
X45595238Y64027143D02*
X45642857Y64122381D01*
X45642857Y64122381D02*
X45690476Y64170000D01*
X45690476Y64170000D02*
X45785714Y64217620D01*
X43690476Y60765239D02*
X43833333Y60717620D01*
X43833333Y60717620D02*
X44071428Y60717620D01*
X44071428Y60717620D02*
X44166666Y60765239D01*
X44166666Y60765239D02*
X44214285Y60812858D01*
X44214285Y60812858D02*
X44261904Y60908096D01*
X44261904Y60908096D02*
X44261904Y61003334D01*
X44261904Y61003334D02*
X44214285Y61098572D01*
X44214285Y61098572D02*
X44166666Y61146191D01*
X44166666Y61146191D02*
X44071428Y61193810D01*
X44071428Y61193810D02*
X43880952Y61241429D01*
X43880952Y61241429D02*
X43785714Y61289048D01*
X43785714Y61289048D02*
X43738095Y61336667D01*
X43738095Y61336667D02*
X43690476Y61431905D01*
X43690476Y61431905D02*
X43690476Y61527143D01*
X43690476Y61527143D02*
X43738095Y61622381D01*
X43738095Y61622381D02*
X43785714Y61670000D01*
X43785714Y61670000D02*
X43880952Y61717620D01*
X43880952Y61717620D02*
X44119047Y61717620D01*
X44119047Y61717620D02*
X44261904Y61670000D01*
X43976190Y61860477D02*
X43976190Y60574762D01*
X45023809Y61241429D02*
X44690476Y61241429D01*
X44690476Y60717620D02*
X44690476Y61717620D01*
X44690476Y61717620D02*
X45166666Y61717620D01*
X45738095Y61717620D02*
X45833333Y61717620D01*
X45833333Y61717620D02*
X45928571Y61670000D01*
X45928571Y61670000D02*
X45976190Y61622381D01*
X45976190Y61622381D02*
X46023809Y61527143D01*
X46023809Y61527143D02*
X46071428Y61336667D01*
X46071428Y61336667D02*
X46071428Y61098572D01*
X46071428Y61098572D02*
X46023809Y60908096D01*
X46023809Y60908096D02*
X45976190Y60812858D01*
X45976190Y60812858D02*
X45928571Y60765239D01*
X45928571Y60765239D02*
X45833333Y60717620D01*
X45833333Y60717620D02*
X45738095Y60717620D01*
X45738095Y60717620D02*
X45642857Y60765239D01*
X45642857Y60765239D02*
X45595238Y60812858D01*
X45595238Y60812858D02*
X45547619Y60908096D01*
X45547619Y60908096D02*
X45500000Y61098572D01*
X45500000Y61098572D02*
X45500000Y61336667D01*
X45500000Y61336667D02*
X45547619Y61527143D01*
X45547619Y61527143D02*
X45595238Y61622381D01*
X45595238Y61622381D02*
X45642857Y61670000D01*
X45642857Y61670000D02*
X45738095Y61717620D01*
X43690476Y68265239D02*
X43833333Y68217620D01*
X43833333Y68217620D02*
X44071428Y68217620D01*
X44071428Y68217620D02*
X44166666Y68265239D01*
X44166666Y68265239D02*
X44214285Y68312858D01*
X44214285Y68312858D02*
X44261904Y68408096D01*
X44261904Y68408096D02*
X44261904Y68503334D01*
X44261904Y68503334D02*
X44214285Y68598572D01*
X44214285Y68598572D02*
X44166666Y68646191D01*
X44166666Y68646191D02*
X44071428Y68693810D01*
X44071428Y68693810D02*
X43880952Y68741429D01*
X43880952Y68741429D02*
X43785714Y68789048D01*
X43785714Y68789048D02*
X43738095Y68836667D01*
X43738095Y68836667D02*
X43690476Y68931905D01*
X43690476Y68931905D02*
X43690476Y69027143D01*
X43690476Y69027143D02*
X43738095Y69122381D01*
X43738095Y69122381D02*
X43785714Y69170000D01*
X43785714Y69170000D02*
X43880952Y69217620D01*
X43880952Y69217620D02*
X44119047Y69217620D01*
X44119047Y69217620D02*
X44261904Y69170000D01*
X43976190Y69360477D02*
X43976190Y68074762D01*
X45261904Y68312858D02*
X45214285Y68265239D01*
X45214285Y68265239D02*
X45071428Y68217620D01*
X45071428Y68217620D02*
X44976190Y68217620D01*
X44976190Y68217620D02*
X44833333Y68265239D01*
X44833333Y68265239D02*
X44738095Y68360477D01*
X44738095Y68360477D02*
X44690476Y68455715D01*
X44690476Y68455715D02*
X44642857Y68646191D01*
X44642857Y68646191D02*
X44642857Y68789048D01*
X44642857Y68789048D02*
X44690476Y68979524D01*
X44690476Y68979524D02*
X44738095Y69074762D01*
X44738095Y69074762D02*
X44833333Y69170000D01*
X44833333Y69170000D02*
X44976190Y69217620D01*
X44976190Y69217620D02*
X45071428Y69217620D01*
X45071428Y69217620D02*
X45214285Y69170000D01*
X45214285Y69170000D02*
X45261904Y69122381D01*
X45880952Y69217620D02*
X45976190Y69217620D01*
X45976190Y69217620D02*
X46071428Y69170000D01*
X46071428Y69170000D02*
X46119047Y69122381D01*
X46119047Y69122381D02*
X46166666Y69027143D01*
X46166666Y69027143D02*
X46214285Y68836667D01*
X46214285Y68836667D02*
X46214285Y68598572D01*
X46214285Y68598572D02*
X46166666Y68408096D01*
X46166666Y68408096D02*
X46119047Y68312858D01*
X46119047Y68312858D02*
X46071428Y68265239D01*
X46071428Y68265239D02*
X45976190Y68217620D01*
X45976190Y68217620D02*
X45880952Y68217620D01*
X45880952Y68217620D02*
X45785714Y68265239D01*
X45785714Y68265239D02*
X45738095Y68312858D01*
X45738095Y68312858D02*
X45690476Y68408096D01*
X45690476Y68408096D02*
X45642857Y68598572D01*
X45642857Y68598572D02*
X45642857Y68836667D01*
X45642857Y68836667D02*
X45690476Y69027143D01*
X45690476Y69027143D02*
X45738095Y69122381D01*
X45738095Y69122381D02*
X45785714Y69170000D01*
X45785714Y69170000D02*
X45880952Y69217620D01*
X43690476Y70765239D02*
X43833333Y70717620D01*
X43833333Y70717620D02*
X44071428Y70717620D01*
X44071428Y70717620D02*
X44166666Y70765239D01*
X44166666Y70765239D02*
X44214285Y70812858D01*
X44214285Y70812858D02*
X44261904Y70908096D01*
X44261904Y70908096D02*
X44261904Y71003334D01*
X44261904Y71003334D02*
X44214285Y71098572D01*
X44214285Y71098572D02*
X44166666Y71146191D01*
X44166666Y71146191D02*
X44071428Y71193810D01*
X44071428Y71193810D02*
X43880952Y71241429D01*
X43880952Y71241429D02*
X43785714Y71289048D01*
X43785714Y71289048D02*
X43738095Y71336667D01*
X43738095Y71336667D02*
X43690476Y71431905D01*
X43690476Y71431905D02*
X43690476Y71527143D01*
X43690476Y71527143D02*
X43738095Y71622381D01*
X43738095Y71622381D02*
X43785714Y71670000D01*
X43785714Y71670000D02*
X43880952Y71717620D01*
X43880952Y71717620D02*
X44119047Y71717620D01*
X44119047Y71717620D02*
X44261904Y71670000D01*
X43976190Y71860477D02*
X43976190Y70574762D01*
X45023809Y71241429D02*
X45166666Y71193810D01*
X45166666Y71193810D02*
X45214285Y71146191D01*
X45214285Y71146191D02*
X45261904Y71050953D01*
X45261904Y71050953D02*
X45261904Y70908096D01*
X45261904Y70908096D02*
X45214285Y70812858D01*
X45214285Y70812858D02*
X45166666Y70765239D01*
X45166666Y70765239D02*
X45071428Y70717620D01*
X45071428Y70717620D02*
X44690476Y70717620D01*
X44690476Y70717620D02*
X44690476Y71717620D01*
X44690476Y71717620D02*
X45023809Y71717620D01*
X45023809Y71717620D02*
X45119047Y71670000D01*
X45119047Y71670000D02*
X45166666Y71622381D01*
X45166666Y71622381D02*
X45214285Y71527143D01*
X45214285Y71527143D02*
X45214285Y71431905D01*
X45214285Y71431905D02*
X45166666Y71336667D01*
X45166666Y71336667D02*
X45119047Y71289048D01*
X45119047Y71289048D02*
X45023809Y71241429D01*
X45023809Y71241429D02*
X44690476Y71241429D01*
X45880952Y71717620D02*
X45976190Y71717620D01*
X45976190Y71717620D02*
X46071428Y71670000D01*
X46071428Y71670000D02*
X46119047Y71622381D01*
X46119047Y71622381D02*
X46166666Y71527143D01*
X46166666Y71527143D02*
X46214285Y71336667D01*
X46214285Y71336667D02*
X46214285Y71098572D01*
X46214285Y71098572D02*
X46166666Y70908096D01*
X46166666Y70908096D02*
X46119047Y70812858D01*
X46119047Y70812858D02*
X46071428Y70765239D01*
X46071428Y70765239D02*
X45976190Y70717620D01*
X45976190Y70717620D02*
X45880952Y70717620D01*
X45880952Y70717620D02*
X45785714Y70765239D01*
X45785714Y70765239D02*
X45738095Y70812858D01*
X45738095Y70812858D02*
X45690476Y70908096D01*
X45690476Y70908096D02*
X45642857Y71098572D01*
X45642857Y71098572D02*
X45642857Y71336667D01*
X45642857Y71336667D02*
X45690476Y71527143D01*
X45690476Y71527143D02*
X45738095Y71622381D01*
X45738095Y71622381D02*
X45785714Y71670000D01*
X45785714Y71670000D02*
X45880952Y71717620D01*
X43690476Y65765239D02*
X43833333Y65717620D01*
X43833333Y65717620D02*
X44071428Y65717620D01*
X44071428Y65717620D02*
X44166666Y65765239D01*
X44166666Y65765239D02*
X44214285Y65812858D01*
X44214285Y65812858D02*
X44261904Y65908096D01*
X44261904Y65908096D02*
X44261904Y66003334D01*
X44261904Y66003334D02*
X44214285Y66098572D01*
X44214285Y66098572D02*
X44166666Y66146191D01*
X44166666Y66146191D02*
X44071428Y66193810D01*
X44071428Y66193810D02*
X43880952Y66241429D01*
X43880952Y66241429D02*
X43785714Y66289048D01*
X43785714Y66289048D02*
X43738095Y66336667D01*
X43738095Y66336667D02*
X43690476Y66431905D01*
X43690476Y66431905D02*
X43690476Y66527143D01*
X43690476Y66527143D02*
X43738095Y66622381D01*
X43738095Y66622381D02*
X43785714Y66670000D01*
X43785714Y66670000D02*
X43880952Y66717620D01*
X43880952Y66717620D02*
X44119047Y66717620D01*
X44119047Y66717620D02*
X44261904Y66670000D01*
X43976190Y66860477D02*
X43976190Y65574762D01*
X44690476Y65717620D02*
X44690476Y66717620D01*
X44690476Y66717620D02*
X44928571Y66717620D01*
X44928571Y66717620D02*
X45071428Y66670000D01*
X45071428Y66670000D02*
X45166666Y66574762D01*
X45166666Y66574762D02*
X45214285Y66479524D01*
X45214285Y66479524D02*
X45261904Y66289048D01*
X45261904Y66289048D02*
X45261904Y66146191D01*
X45261904Y66146191D02*
X45214285Y65955715D01*
X45214285Y65955715D02*
X45166666Y65860477D01*
X45166666Y65860477D02*
X45071428Y65765239D01*
X45071428Y65765239D02*
X44928571Y65717620D01*
X44928571Y65717620D02*
X44690476Y65717620D01*
X45880952Y66717620D02*
X45976190Y66717620D01*
X45976190Y66717620D02*
X46071428Y66670000D01*
X46071428Y66670000D02*
X46119047Y66622381D01*
X46119047Y66622381D02*
X46166666Y66527143D01*
X46166666Y66527143D02*
X46214285Y66336667D01*
X46214285Y66336667D02*
X46214285Y66098572D01*
X46214285Y66098572D02*
X46166666Y65908096D01*
X46166666Y65908096D02*
X46119047Y65812858D01*
X46119047Y65812858D02*
X46071428Y65765239D01*
X46071428Y65765239D02*
X45976190Y65717620D01*
X45976190Y65717620D02*
X45880952Y65717620D01*
X45880952Y65717620D02*
X45785714Y65765239D01*
X45785714Y65765239D02*
X45738095Y65812858D01*
X45738095Y65812858D02*
X45690476Y65908096D01*
X45690476Y65908096D02*
X45642857Y66098572D01*
X45642857Y66098572D02*
X45642857Y66336667D01*
X45642857Y66336667D02*
X45690476Y66527143D01*
X45690476Y66527143D02*
X45738095Y66622381D01*
X45738095Y66622381D02*
X45785714Y66670000D01*
X45785714Y66670000D02*
X45880952Y66717620D01*
X43690476Y73265239D02*
X43833333Y73217620D01*
X43833333Y73217620D02*
X44071428Y73217620D01*
X44071428Y73217620D02*
X44166666Y73265239D01*
X44166666Y73265239D02*
X44214285Y73312858D01*
X44214285Y73312858D02*
X44261904Y73408096D01*
X44261904Y73408096D02*
X44261904Y73503334D01*
X44261904Y73503334D02*
X44214285Y73598572D01*
X44214285Y73598572D02*
X44166666Y73646191D01*
X44166666Y73646191D02*
X44071428Y73693810D01*
X44071428Y73693810D02*
X43880952Y73741429D01*
X43880952Y73741429D02*
X43785714Y73789048D01*
X43785714Y73789048D02*
X43738095Y73836667D01*
X43738095Y73836667D02*
X43690476Y73931905D01*
X43690476Y73931905D02*
X43690476Y74027143D01*
X43690476Y74027143D02*
X43738095Y74122381D01*
X43738095Y74122381D02*
X43785714Y74170000D01*
X43785714Y74170000D02*
X43880952Y74217620D01*
X43880952Y74217620D02*
X44119047Y74217620D01*
X44119047Y74217620D02*
X44261904Y74170000D01*
X43976190Y74360477D02*
X43976190Y73074762D01*
X44642857Y73503334D02*
X45119047Y73503334D01*
X44547619Y73217620D02*
X44880952Y74217620D01*
X44880952Y74217620D02*
X45214285Y73217620D01*
X45738095Y74217620D02*
X45833333Y74217620D01*
X45833333Y74217620D02*
X45928571Y74170000D01*
X45928571Y74170000D02*
X45976190Y74122381D01*
X45976190Y74122381D02*
X46023809Y74027143D01*
X46023809Y74027143D02*
X46071428Y73836667D01*
X46071428Y73836667D02*
X46071428Y73598572D01*
X46071428Y73598572D02*
X46023809Y73408096D01*
X46023809Y73408096D02*
X45976190Y73312858D01*
X45976190Y73312858D02*
X45928571Y73265239D01*
X45928571Y73265239D02*
X45833333Y73217620D01*
X45833333Y73217620D02*
X45738095Y73217620D01*
X45738095Y73217620D02*
X45642857Y73265239D01*
X45642857Y73265239D02*
X45595238Y73312858D01*
X45595238Y73312858D02*
X45547619Y73408096D01*
X45547619Y73408096D02*
X45500000Y73598572D01*
X45500000Y73598572D02*
X45500000Y73836667D01*
X45500000Y73836667D02*
X45547619Y74027143D01*
X45547619Y74027143D02*
X45595238Y74122381D01*
X45595238Y74122381D02*
X45642857Y74170000D01*
X45642857Y74170000D02*
X45738095Y74217620D01*
X43690476Y75765239D02*
X43833333Y75717620D01*
X43833333Y75717620D02*
X44071428Y75717620D01*
X44071428Y75717620D02*
X44166666Y75765239D01*
X44166666Y75765239D02*
X44214285Y75812858D01*
X44214285Y75812858D02*
X44261904Y75908096D01*
X44261904Y75908096D02*
X44261904Y76003334D01*
X44261904Y76003334D02*
X44214285Y76098572D01*
X44214285Y76098572D02*
X44166666Y76146191D01*
X44166666Y76146191D02*
X44071428Y76193810D01*
X44071428Y76193810D02*
X43880952Y76241429D01*
X43880952Y76241429D02*
X43785714Y76289048D01*
X43785714Y76289048D02*
X43738095Y76336667D01*
X43738095Y76336667D02*
X43690476Y76431905D01*
X43690476Y76431905D02*
X43690476Y76527143D01*
X43690476Y76527143D02*
X43738095Y76622381D01*
X43738095Y76622381D02*
X43785714Y76670000D01*
X43785714Y76670000D02*
X43880952Y76717620D01*
X43880952Y76717620D02*
X44119047Y76717620D01*
X44119047Y76717620D02*
X44261904Y76670000D01*
X43976190Y76860477D02*
X43976190Y75574762D01*
X44738095Y75717620D02*
X44928571Y75717620D01*
X44928571Y75717620D02*
X45023809Y75765239D01*
X45023809Y75765239D02*
X45071428Y75812858D01*
X45071428Y75812858D02*
X45166666Y75955715D01*
X45166666Y75955715D02*
X45214285Y76146191D01*
X45214285Y76146191D02*
X45214285Y76527143D01*
X45214285Y76527143D02*
X45166666Y76622381D01*
X45166666Y76622381D02*
X45119047Y76670000D01*
X45119047Y76670000D02*
X45023809Y76717620D01*
X45023809Y76717620D02*
X44833333Y76717620D01*
X44833333Y76717620D02*
X44738095Y76670000D01*
X44738095Y76670000D02*
X44690476Y76622381D01*
X44690476Y76622381D02*
X44642857Y76527143D01*
X44642857Y76527143D02*
X44642857Y76289048D01*
X44642857Y76289048D02*
X44690476Y76193810D01*
X44690476Y76193810D02*
X44738095Y76146191D01*
X44738095Y76146191D02*
X44833333Y76098572D01*
X44833333Y76098572D02*
X45023809Y76098572D01*
X45023809Y76098572D02*
X45119047Y76146191D01*
X45119047Y76146191D02*
X45166666Y76193810D01*
X45166666Y76193810D02*
X45214285Y76289048D01*
X45833333Y76717620D02*
X45928571Y76717620D01*
X45928571Y76717620D02*
X46023809Y76670000D01*
X46023809Y76670000D02*
X46071428Y76622381D01*
X46071428Y76622381D02*
X46119047Y76527143D01*
X46119047Y76527143D02*
X46166666Y76336667D01*
X46166666Y76336667D02*
X46166666Y76098572D01*
X46166666Y76098572D02*
X46119047Y75908096D01*
X46119047Y75908096D02*
X46071428Y75812858D01*
X46071428Y75812858D02*
X46023809Y75765239D01*
X46023809Y75765239D02*
X45928571Y75717620D01*
X45928571Y75717620D02*
X45833333Y75717620D01*
X45833333Y75717620D02*
X45738095Y75765239D01*
X45738095Y75765239D02*
X45690476Y75812858D01*
X45690476Y75812858D02*
X45642857Y75908096D01*
X45642857Y75908096D02*
X45595238Y76098572D01*
X45595238Y76098572D02*
X45595238Y76336667D01*
X45595238Y76336667D02*
X45642857Y76527143D01*
X45642857Y76527143D02*
X45690476Y76622381D01*
X45690476Y76622381D02*
X45738095Y76670000D01*
X45738095Y76670000D02*
X45833333Y76717620D01*
X43690476Y78265239D02*
X43833333Y78217620D01*
X43833333Y78217620D02*
X44071428Y78217620D01*
X44071428Y78217620D02*
X44166666Y78265239D01*
X44166666Y78265239D02*
X44214285Y78312858D01*
X44214285Y78312858D02*
X44261904Y78408096D01*
X44261904Y78408096D02*
X44261904Y78503334D01*
X44261904Y78503334D02*
X44214285Y78598572D01*
X44214285Y78598572D02*
X44166666Y78646191D01*
X44166666Y78646191D02*
X44071428Y78693810D01*
X44071428Y78693810D02*
X43880952Y78741429D01*
X43880952Y78741429D02*
X43785714Y78789048D01*
X43785714Y78789048D02*
X43738095Y78836667D01*
X43738095Y78836667D02*
X43690476Y78931905D01*
X43690476Y78931905D02*
X43690476Y79027143D01*
X43690476Y79027143D02*
X43738095Y79122381D01*
X43738095Y79122381D02*
X43785714Y79170000D01*
X43785714Y79170000D02*
X43880952Y79217620D01*
X43880952Y79217620D02*
X44119047Y79217620D01*
X44119047Y79217620D02*
X44261904Y79170000D01*
X43976190Y79360477D02*
X43976190Y78074762D01*
X44833333Y78789048D02*
X44738095Y78836667D01*
X44738095Y78836667D02*
X44690476Y78884286D01*
X44690476Y78884286D02*
X44642857Y78979524D01*
X44642857Y78979524D02*
X44642857Y79027143D01*
X44642857Y79027143D02*
X44690476Y79122381D01*
X44690476Y79122381D02*
X44738095Y79170000D01*
X44738095Y79170000D02*
X44833333Y79217620D01*
X44833333Y79217620D02*
X45023809Y79217620D01*
X45023809Y79217620D02*
X45119047Y79170000D01*
X45119047Y79170000D02*
X45166666Y79122381D01*
X45166666Y79122381D02*
X45214285Y79027143D01*
X45214285Y79027143D02*
X45214285Y78979524D01*
X45214285Y78979524D02*
X45166666Y78884286D01*
X45166666Y78884286D02*
X45119047Y78836667D01*
X45119047Y78836667D02*
X45023809Y78789048D01*
X45023809Y78789048D02*
X44833333Y78789048D01*
X44833333Y78789048D02*
X44738095Y78741429D01*
X44738095Y78741429D02*
X44690476Y78693810D01*
X44690476Y78693810D02*
X44642857Y78598572D01*
X44642857Y78598572D02*
X44642857Y78408096D01*
X44642857Y78408096D02*
X44690476Y78312858D01*
X44690476Y78312858D02*
X44738095Y78265239D01*
X44738095Y78265239D02*
X44833333Y78217620D01*
X44833333Y78217620D02*
X45023809Y78217620D01*
X45023809Y78217620D02*
X45119047Y78265239D01*
X45119047Y78265239D02*
X45166666Y78312858D01*
X45166666Y78312858D02*
X45214285Y78408096D01*
X45214285Y78408096D02*
X45214285Y78598572D01*
X45214285Y78598572D02*
X45166666Y78693810D01*
X45166666Y78693810D02*
X45119047Y78741429D01*
X45119047Y78741429D02*
X45023809Y78789048D01*
X45833333Y79217620D02*
X45928571Y79217620D01*
X45928571Y79217620D02*
X46023809Y79170000D01*
X46023809Y79170000D02*
X46071428Y79122381D01*
X46071428Y79122381D02*
X46119047Y79027143D01*
X46119047Y79027143D02*
X46166666Y78836667D01*
X46166666Y78836667D02*
X46166666Y78598572D01*
X46166666Y78598572D02*
X46119047Y78408096D01*
X46119047Y78408096D02*
X46071428Y78312858D01*
X46071428Y78312858D02*
X46023809Y78265239D01*
X46023809Y78265239D02*
X45928571Y78217620D01*
X45928571Y78217620D02*
X45833333Y78217620D01*
X45833333Y78217620D02*
X45738095Y78265239D01*
X45738095Y78265239D02*
X45690476Y78312858D01*
X45690476Y78312858D02*
X45642857Y78408096D01*
X45642857Y78408096D02*
X45595238Y78598572D01*
X45595238Y78598572D02*
X45595238Y78836667D01*
X45595238Y78836667D02*
X45642857Y79027143D01*
X45642857Y79027143D02*
X45690476Y79122381D01*
X45690476Y79122381D02*
X45738095Y79170000D01*
X45738095Y79170000D02*
X45833333Y79217620D01*
X60282380Y66261905D02*
X60282380Y65690477D01*
X60282380Y65976191D02*
X59282380Y65976191D01*
X59282380Y65976191D02*
X59425238Y65880953D01*
X59425238Y65880953D02*
X59520476Y65785715D01*
X59520476Y65785715D02*
X59568095Y65690477D01*
X59282380Y66880953D02*
X59282380Y66976191D01*
X59282380Y66976191D02*
X59330000Y67071429D01*
X59330000Y67071429D02*
X59377619Y67119048D01*
X59377619Y67119048D02*
X59472857Y67166667D01*
X59472857Y67166667D02*
X59663333Y67214286D01*
X59663333Y67214286D02*
X59901428Y67214286D01*
X59901428Y67214286D02*
X60091904Y67166667D01*
X60091904Y67166667D02*
X60187142Y67119048D01*
X60187142Y67119048D02*
X60234761Y67071429D01*
X60234761Y67071429D02*
X60282380Y66976191D01*
X60282380Y66976191D02*
X60282380Y66880953D01*
X60282380Y66880953D02*
X60234761Y66785715D01*
X60234761Y66785715D02*
X60187142Y66738096D01*
X60187142Y66738096D02*
X60091904Y66690477D01*
X60091904Y66690477D02*
X59901428Y66642858D01*
X59901428Y66642858D02*
X59663333Y66642858D01*
X59663333Y66642858D02*
X59472857Y66690477D01*
X59472857Y66690477D02*
X59377619Y66738096D01*
X59377619Y66738096D02*
X59330000Y66785715D01*
X59330000Y66785715D02*
X59282380Y66880953D01*
X60282380Y67642858D02*
X59282380Y67642858D01*
X59901428Y67738096D02*
X60282380Y68023810D01*
X59615714Y68023810D02*
X59996666Y67642858D01*
X60282380Y68404763D02*
X60282380Y68642858D01*
X60282380Y68642858D02*
X60091904Y68642858D01*
X60091904Y68642858D02*
X60044285Y68547620D01*
X60044285Y68547620D02*
X59949047Y68452382D01*
X59949047Y68452382D02*
X59806190Y68404763D01*
X59806190Y68404763D02*
X59568095Y68404763D01*
X59568095Y68404763D02*
X59425238Y68452382D01*
X59425238Y68452382D02*
X59330000Y68547620D01*
X59330000Y68547620D02*
X59282380Y68690477D01*
X59282380Y68690477D02*
X59282380Y68880953D01*
X59282380Y68880953D02*
X59330000Y69023810D01*
X59330000Y69023810D02*
X59425238Y69119048D01*
X59425238Y69119048D02*
X59568095Y69166667D01*
X59568095Y69166667D02*
X59806190Y69166667D01*
X59806190Y69166667D02*
X59949047Y69119048D01*
X59949047Y69119048D02*
X60044285Y69023810D01*
X60044285Y69023810D02*
X60091904Y68928572D01*
X60091904Y68928572D02*
X60282380Y68928572D01*
X60282380Y68928572D02*
X60282380Y69166667D01*
X59330000Y69642858D02*
X59330000Y70547620D01*
X59472857Y69642858D02*
X59472857Y70500001D01*
X59615714Y69642858D02*
X59615714Y70547620D01*
X59806190Y69642858D02*
X59806190Y70642858D01*
X59949047Y69500001D02*
X59949047Y70690477D01*
X59282380Y69690477D02*
X59806190Y69690477D01*
X59234761Y70119048D02*
X60282380Y70119048D01*
X59282380Y69690477D02*
X59520476Y69452382D01*
X59996666Y70166667D02*
X60234761Y70690477D01*
X59139523Y69738096D02*
X59377619Y69642858D01*
X59139523Y70119048D02*
X59330000Y70071429D01*
X59901428Y70071429D02*
X60044285Y69928572D01*
X60044285Y69928572D02*
X60282380Y69452382D01*
X59568095Y71214286D02*
X59568095Y71880953D01*
X60234761Y71166667D02*
X60234761Y71928572D01*
X59806190Y71166667D02*
X60282380Y71166667D01*
X59806190Y71166667D02*
X59806190Y71928572D01*
X59806190Y71928572D02*
X60282380Y71928572D01*
X59139523Y71547619D02*
X59472857Y71880953D01*
X59472857Y71880953D02*
X59615714Y72166667D01*
X59139523Y71547619D02*
X59520476Y71166667D01*
X59520476Y71166667D02*
X59615714Y70928572D01*
X59425238Y72404762D02*
X59425238Y72833333D01*
X59615714Y72928571D02*
X59615714Y73595238D01*
X60234761Y72833333D02*
X60234761Y73357143D01*
X60282380Y72452381D02*
X60282380Y72642857D01*
X59139523Y72642857D02*
X60282380Y72642857D01*
X59282380Y72928571D02*
X60044285Y72928571D01*
X59710952Y72833333D02*
X59853809Y72404762D01*
X59234761Y73309523D02*
X59520476Y73357143D01*
X59520476Y73357143D02*
X59663333Y73309523D01*
X59663333Y73309523D02*
X60139523Y73404762D01*
X59187142Y73500000D02*
X59282380Y73023809D01*
X59996666Y73261904D02*
X60044285Y72785714D01*
X60044285Y73642857D02*
X60282380Y73595238D01*
X60282380Y73595238D02*
X60234761Y73500000D01*
X59377619Y74357142D02*
X59377619Y75071428D01*
X59425238Y73880952D02*
X59425238Y74309523D01*
X60282380Y73928571D02*
X60282380Y74119047D01*
X59139523Y74119047D02*
X60282380Y74119047D01*
X59139523Y74690475D02*
X59330000Y74690475D01*
X59758571Y74309523D02*
X59853809Y73880952D01*
X59568095Y74499999D02*
X59901428Y74499999D01*
X59901428Y74499999D02*
X60139523Y74452380D01*
X59568095Y74499999D02*
X59568095Y74880952D01*
X59568095Y74880952D02*
X60282380Y74928571D01*
X60282380Y74928571D02*
X60282380Y75071428D01*
X60282380Y75071428D02*
X60091904Y75166666D01*
X36928571Y40170000D02*
X37833333Y40170000D01*
X37071428Y39931905D02*
X37071428Y39217620D01*
X37357142Y40360477D02*
X37357142Y40170000D01*
X37404761Y39789048D02*
X37547619Y39693810D01*
X36642857Y40312858D02*
X36833333Y40217620D01*
X36595238Y39979524D02*
X36785714Y39884286D01*
X37309523Y39836667D02*
X37404761Y39550953D01*
X37404761Y39550953D02*
X37642857Y39312858D01*
X37642857Y39312858D02*
X37833333Y39217620D01*
X36785714Y39598572D02*
X36642857Y39217620D01*
X37119047Y40122381D02*
X36928571Y39741429D01*
X37404761Y40122381D02*
X37309523Y39836667D01*
X37309523Y39836667D02*
X37166666Y39693810D01*
X37309523Y39931905D02*
X37785714Y39931905D01*
X37785714Y39931905D02*
X37595238Y39550953D01*
X37595238Y39550953D02*
X37404761Y39312858D01*
X37404761Y39312858D02*
X37166666Y39217620D01*
X38309523Y40074762D02*
X39071428Y40074762D01*
X38309523Y39884286D02*
X39071428Y39884286D01*
X38071428Y39503334D02*
X38595237Y39503334D01*
X38833332Y39503334D02*
X39309523Y39503334D01*
X38071428Y39265239D02*
X38595237Y39265239D01*
X38833332Y39265239D02*
X39309523Y39265239D01*
X38071428Y39741429D02*
X38071428Y39217620D01*
X38309523Y40312858D02*
X38309523Y39884286D01*
X38071428Y39741429D02*
X38595237Y39741429D01*
X38595237Y39741429D02*
X38595237Y39217620D01*
X38833332Y39741429D02*
X38833332Y39217620D01*
X38309523Y40312858D02*
X39071428Y40312858D01*
X39071428Y40312858D02*
X39071428Y39884286D01*
X38833332Y39741429D02*
X39309523Y39741429D01*
X39309523Y39741429D02*
X39309523Y39217620D01*
X39547618Y40074762D02*
X39976189Y40074762D01*
X40119046Y40027143D02*
X40738094Y40027143D01*
X40023808Y39884286D02*
X40785713Y39884286D01*
X39785713Y40312858D02*
X39785713Y40074762D01*
X40071427Y39693810D02*
X40071427Y39217620D01*
X40119046Y40265239D02*
X40119046Y40027143D01*
X40309522Y39693810D02*
X40309522Y39217620D01*
X40404760Y39884286D02*
X40357141Y39693810D01*
X40404760Y40360477D02*
X40404760Y40027143D01*
X40547618Y39693810D02*
X40547618Y39217620D01*
X40738094Y40265239D02*
X40738094Y40027143D01*
X39880951Y39979524D02*
X39833332Y39455715D01*
X39976189Y39503334D02*
X39547618Y39408096D01*
X39642856Y39979524D02*
X39690475Y39550953D01*
X40071427Y39693810D02*
X40738094Y39693810D01*
X40738094Y39693810D02*
X40738094Y39217620D01*
X40738094Y39217620D02*
X40690475Y39217620D01*
X41023808Y39741429D02*
X42261903Y39741429D01*
X41357141Y39217620D02*
X41642855Y39217620D01*
X41642855Y39979524D02*
X41642855Y39217620D01*
X41166665Y40217620D02*
X42119046Y40217620D01*
X42119046Y40217620D02*
X41976189Y40122381D01*
X41976189Y40122381D02*
X41642855Y39979524D01*
X43166664Y39217620D02*
X42595236Y39217620D01*
X42880950Y39217620D02*
X42880950Y40217620D01*
X42880950Y40217620D02*
X42785712Y40074762D01*
X42785712Y40074762D02*
X42690474Y39979524D01*
X42690474Y39979524D02*
X42595236Y39931905D01*
X43499998Y40265239D02*
X44214283Y40265239D01*
X44452379Y39217620D02*
X44690474Y39217620D01*
X44309521Y40217620D02*
X44309521Y39550953D01*
X44690474Y40312858D02*
X44690474Y39217620D01*
X43595236Y39789048D02*
X43976188Y39598572D01*
X43785712Y40265239D02*
X43595236Y39836667D01*
X43595236Y39836667D02*
X43452379Y39693810D01*
X43642855Y39931905D02*
X44119045Y39931905D01*
X44119045Y39931905D02*
X43928569Y39550953D01*
X43928569Y39550953D02*
X43642855Y39217620D01*
X3428571Y25670000D02*
X4333333Y25670000D01*
X3571428Y25431905D02*
X3571428Y24717620D01*
X3857142Y25860477D02*
X3857142Y25670000D01*
X3904761Y25289048D02*
X4047619Y25193810D01*
X3142857Y25812858D02*
X3333333Y25717620D01*
X3095238Y25479524D02*
X3285714Y25384286D01*
X3809523Y25336667D02*
X3904761Y25050953D01*
X3904761Y25050953D02*
X4142857Y24812858D01*
X4142857Y24812858D02*
X4333333Y24717620D01*
X3285714Y25098572D02*
X3142857Y24717620D01*
X3619047Y25622381D02*
X3428571Y25241429D01*
X3904761Y25622381D02*
X3809523Y25336667D01*
X3809523Y25336667D02*
X3666666Y25193810D01*
X3809523Y25431905D02*
X4285714Y25431905D01*
X4285714Y25431905D02*
X4095238Y25050953D01*
X4095238Y25050953D02*
X3904761Y24812858D01*
X3904761Y24812858D02*
X3666666Y24717620D01*
X4809523Y25574762D02*
X5571428Y25574762D01*
X4809523Y25384286D02*
X5571428Y25384286D01*
X4571428Y25003334D02*
X5095237Y25003334D01*
X5333332Y25003334D02*
X5809523Y25003334D01*
X4571428Y24765239D02*
X5095237Y24765239D01*
X5333332Y24765239D02*
X5809523Y24765239D01*
X4571428Y25241429D02*
X4571428Y24717620D01*
X4809523Y25812858D02*
X4809523Y25384286D01*
X4571428Y25241429D02*
X5095237Y25241429D01*
X5095237Y25241429D02*
X5095237Y24717620D01*
X5333332Y25241429D02*
X5333332Y24717620D01*
X4809523Y25812858D02*
X5571428Y25812858D01*
X5571428Y25812858D02*
X5571428Y25384286D01*
X5333332Y25241429D02*
X5809523Y25241429D01*
X5809523Y25241429D02*
X5809523Y24717620D01*
X6047618Y25574762D02*
X6476189Y25574762D01*
X6619046Y25527143D02*
X7238094Y25527143D01*
X6523808Y25384286D02*
X7285713Y25384286D01*
X6285713Y25812858D02*
X6285713Y25574762D01*
X6571427Y25193810D02*
X6571427Y24717620D01*
X6619046Y25765239D02*
X6619046Y25527143D01*
X6809522Y25193810D02*
X6809522Y24717620D01*
X6904760Y25384286D02*
X6857141Y25193810D01*
X6904760Y25860477D02*
X6904760Y25527143D01*
X7047618Y25193810D02*
X7047618Y24717620D01*
X7238094Y25765239D02*
X7238094Y25527143D01*
X6380951Y25479524D02*
X6333332Y24955715D01*
X6476189Y25003334D02*
X6047618Y24908096D01*
X6142856Y25479524D02*
X6190475Y25050953D01*
X6571427Y25193810D02*
X7238094Y25193810D01*
X7238094Y25193810D02*
X7238094Y24717620D01*
X7238094Y24717620D02*
X7190475Y24717620D01*
X7523808Y25241429D02*
X8761903Y25241429D01*
X7857141Y24717620D02*
X8142855Y24717620D01*
X8142855Y25479524D02*
X8142855Y24717620D01*
X7666665Y25717620D02*
X8619046Y25717620D01*
X8619046Y25717620D02*
X8476189Y25622381D01*
X8476189Y25622381D02*
X8142855Y25479524D01*
X9095236Y25622381D02*
X9142855Y25670000D01*
X9142855Y25670000D02*
X9238093Y25717620D01*
X9238093Y25717620D02*
X9476188Y25717620D01*
X9476188Y25717620D02*
X9571426Y25670000D01*
X9571426Y25670000D02*
X9619045Y25622381D01*
X9619045Y25622381D02*
X9666664Y25527143D01*
X9666664Y25527143D02*
X9666664Y25431905D01*
X9666664Y25431905D02*
X9619045Y25289048D01*
X9619045Y25289048D02*
X9047617Y24717620D01*
X9047617Y24717620D02*
X9666664Y24717620D01*
X9999998Y25765239D02*
X10714283Y25765239D01*
X10952379Y24717620D02*
X11190474Y24717620D01*
X10809521Y25717620D02*
X10809521Y25050953D01*
X11190474Y25812858D02*
X11190474Y24717620D01*
X10095236Y25289048D02*
X10476188Y25098572D01*
X10285712Y25765239D02*
X10095236Y25336667D01*
X10095236Y25336667D02*
X9952379Y25193810D01*
X10142855Y25431905D02*
X10619045Y25431905D01*
X10619045Y25431905D02*
X10428569Y25050953D01*
X10428569Y25050953D02*
X10142855Y24717620D01*
D12*
X26714285Y20152858D02*
X26714285Y23152858D01*
X26714285Y23152858D02*
X27857142Y23152858D01*
X27857142Y23152858D02*
X28142857Y23010000D01*
X28142857Y23010000D02*
X28285714Y22867143D01*
X28285714Y22867143D02*
X28428571Y22581429D01*
X28428571Y22581429D02*
X28428571Y22152858D01*
X28428571Y22152858D02*
X28285714Y21867143D01*
X28285714Y21867143D02*
X28142857Y21724286D01*
X28142857Y21724286D02*
X27857142Y21581429D01*
X27857142Y21581429D02*
X26714285Y21581429D01*
X31428571Y20438572D02*
X31285714Y20295715D01*
X31285714Y20295715D02*
X30857142Y20152858D01*
X30857142Y20152858D02*
X30571428Y20152858D01*
X30571428Y20152858D02*
X30142857Y20295715D01*
X30142857Y20295715D02*
X29857142Y20581429D01*
X29857142Y20581429D02*
X29714285Y20867143D01*
X29714285Y20867143D02*
X29571428Y21438572D01*
X29571428Y21438572D02*
X29571428Y21867143D01*
X29571428Y21867143D02*
X29714285Y22438572D01*
X29714285Y22438572D02*
X29857142Y22724286D01*
X29857142Y22724286D02*
X30142857Y23010000D01*
X30142857Y23010000D02*
X30571428Y23152858D01*
X30571428Y23152858D02*
X30857142Y23152858D01*
X30857142Y23152858D02*
X31285714Y23010000D01*
X31285714Y23010000D02*
X31428571Y22867143D01*
X32714285Y21295715D02*
X35000000Y21295715D01*
X36857143Y21867143D02*
X36571428Y22010000D01*
X36571428Y22010000D02*
X36428571Y22152858D01*
X36428571Y22152858D02*
X36285714Y22438572D01*
X36285714Y22438572D02*
X36285714Y22581429D01*
X36285714Y22581429D02*
X36428571Y22867143D01*
X36428571Y22867143D02*
X36571428Y23010000D01*
X36571428Y23010000D02*
X36857143Y23152858D01*
X36857143Y23152858D02*
X37428571Y23152858D01*
X37428571Y23152858D02*
X37714286Y23010000D01*
X37714286Y23010000D02*
X37857143Y22867143D01*
X37857143Y22867143D02*
X38000000Y22581429D01*
X38000000Y22581429D02*
X38000000Y22438572D01*
X38000000Y22438572D02*
X37857143Y22152858D01*
X37857143Y22152858D02*
X37714286Y22010000D01*
X37714286Y22010000D02*
X37428571Y21867143D01*
X37428571Y21867143D02*
X36857143Y21867143D01*
X36857143Y21867143D02*
X36571428Y21724286D01*
X36571428Y21724286D02*
X36428571Y21581429D01*
X36428571Y21581429D02*
X36285714Y21295715D01*
X36285714Y21295715D02*
X36285714Y20724286D01*
X36285714Y20724286D02*
X36428571Y20438572D01*
X36428571Y20438572D02*
X36571428Y20295715D01*
X36571428Y20295715D02*
X36857143Y20152858D01*
X36857143Y20152858D02*
X37428571Y20152858D01*
X37428571Y20152858D02*
X37714286Y20295715D01*
X37714286Y20295715D02*
X37857143Y20438572D01*
X37857143Y20438572D02*
X38000000Y20724286D01*
X38000000Y20724286D02*
X38000000Y21295715D01*
X38000000Y21295715D02*
X37857143Y21581429D01*
X37857143Y21581429D02*
X37714286Y21724286D01*
X37714286Y21724286D02*
X37428571Y21867143D01*
X39857143Y23152858D02*
X40142857Y23152858D01*
X40142857Y23152858D02*
X40428571Y23010000D01*
X40428571Y23010000D02*
X40571429Y22867143D01*
X40571429Y22867143D02*
X40714286Y22581429D01*
X40714286Y22581429D02*
X40857143Y22010000D01*
X40857143Y22010000D02*
X40857143Y21295715D01*
X40857143Y21295715D02*
X40714286Y20724286D01*
X40714286Y20724286D02*
X40571429Y20438572D01*
X40571429Y20438572D02*
X40428571Y20295715D01*
X40428571Y20295715D02*
X40142857Y20152858D01*
X40142857Y20152858D02*
X39857143Y20152858D01*
X39857143Y20152858D02*
X39571429Y20295715D01*
X39571429Y20295715D02*
X39428571Y20438572D01*
X39428571Y20438572D02*
X39285714Y20724286D01*
X39285714Y20724286D02*
X39142857Y21295715D01*
X39142857Y21295715D02*
X39142857Y22010000D01*
X39142857Y22010000D02*
X39285714Y22581429D01*
X39285714Y22581429D02*
X39428571Y22867143D01*
X39428571Y22867143D02*
X39571429Y23010000D01*
X39571429Y23010000D02*
X39857143Y23152858D01*
X42714286Y23152858D02*
X43000000Y23152858D01*
X43000000Y23152858D02*
X43285714Y23010000D01*
X43285714Y23010000D02*
X43428572Y22867143D01*
X43428572Y22867143D02*
X43571429Y22581429D01*
X43571429Y22581429D02*
X43714286Y22010000D01*
X43714286Y22010000D02*
X43714286Y21295715D01*
X43714286Y21295715D02*
X43571429Y20724286D01*
X43571429Y20724286D02*
X43428572Y20438572D01*
X43428572Y20438572D02*
X43285714Y20295715D01*
X43285714Y20295715D02*
X43000000Y20152858D01*
X43000000Y20152858D02*
X42714286Y20152858D01*
X42714286Y20152858D02*
X42428572Y20295715D01*
X42428572Y20295715D02*
X42285714Y20438572D01*
X42285714Y20438572D02*
X42142857Y20724286D01*
X42142857Y20724286D02*
X42000000Y21295715D01*
X42000000Y21295715D02*
X42000000Y22010000D01*
X42000000Y22010000D02*
X42142857Y22581429D01*
X42142857Y22581429D02*
X42285714Y22867143D01*
X42285714Y22867143D02*
X42428572Y23010000D01*
X42428572Y23010000D02*
X42714286Y23152858D01*
X46571429Y20152858D02*
X44857143Y20152858D01*
X45714286Y20152858D02*
X45714286Y23152858D01*
X45714286Y23152858D02*
X45428572Y22724286D01*
X45428572Y22724286D02*
X45142857Y22438572D01*
X45142857Y22438572D02*
X44857143Y22295715D01*
X50228572Y23010000D02*
X52942858Y23010000D01*
X50657143Y22295715D02*
X50657143Y20152858D01*
X51514286Y23581429D02*
X51514286Y23010000D01*
X51657143Y21867143D02*
X52085715Y21581429D01*
X49371429Y23438572D02*
X49942858Y23152858D01*
X49228572Y22438572D02*
X49800000Y22152858D01*
X51371429Y22010000D02*
X51657143Y21152858D01*
X51657143Y21152858D02*
X52371429Y20438572D01*
X52371429Y20438572D02*
X52942858Y20152858D01*
X49800000Y21295715D02*
X49371429Y20152858D01*
X50800000Y22867143D02*
X50228572Y21724286D01*
X51657143Y22867143D02*
X51371429Y22010000D01*
X51371429Y22010000D02*
X50942858Y21581429D01*
X51371429Y22295715D02*
X52800000Y22295715D01*
X52800000Y22295715D02*
X52228572Y21152858D01*
X52228572Y21152858D02*
X51657143Y20438572D01*
X51657143Y20438572D02*
X50942858Y20152858D01*
X54371429Y22724286D02*
X56657143Y22724286D01*
X54371429Y22152858D02*
X56657143Y22152858D01*
X53657143Y21010000D02*
X55228571Y21010000D01*
X55942857Y21010000D02*
X57371429Y21010000D01*
X53657143Y20295715D02*
X55228571Y20295715D01*
X55942857Y20295715D02*
X57371429Y20295715D01*
X53657143Y21724286D02*
X53657143Y20152858D01*
X54371429Y23438572D02*
X54371429Y22152858D01*
X53657143Y21724286D02*
X55228571Y21724286D01*
X55228571Y21724286D02*
X55228571Y20152858D01*
X55942857Y21724286D02*
X55942857Y20152858D01*
X54371429Y23438572D02*
X56657143Y23438572D01*
X56657143Y23438572D02*
X56657143Y22152858D01*
X55942857Y21724286D02*
X57371429Y21724286D01*
X57371429Y21724286D02*
X57371429Y20152858D01*
X58228571Y23010000D02*
X61657142Y23010000D01*
X59085714Y22581429D02*
X60942857Y22581429D01*
X59085714Y22010000D02*
X60942857Y22010000D01*
X58085714Y21581429D02*
X61800000Y21581429D01*
X58942857Y20867143D02*
X60942857Y20867143D01*
X58371428Y20152858D02*
X61514285Y20152858D01*
X59942857Y21295715D02*
X59942857Y20152858D01*
X59085714Y23581429D02*
X59085714Y21581429D01*
X59085714Y21581429D02*
X58371428Y20724286D01*
X60942857Y23581429D02*
X60942857Y21581429D01*
X60942857Y21581429D02*
X61228571Y21010000D01*
X61228571Y21010000D02*
X61942857Y20724286D01*
X64228571Y23295715D02*
X66085713Y23295715D01*
X62657142Y22724286D02*
X63942856Y22724286D01*
X63371428Y23581429D02*
X63371428Y20152858D01*
X63371428Y22152858D02*
X63942856Y21581429D01*
X64514285Y22295715D02*
X65085713Y21010000D01*
X65085713Y21010000D02*
X65799999Y20438572D01*
X65799999Y20438572D02*
X66228571Y20152858D01*
X63228571Y22581429D02*
X62514285Y21010000D01*
X64228571Y22295715D02*
X66085713Y22295715D01*
X66085713Y22295715D02*
X65514285Y21152858D01*
X65514285Y21152858D02*
X64942856Y20438572D01*
X64942856Y20438572D02*
X64371428Y20152858D01*
X64228571Y23295715D02*
X64228571Y21581429D01*
X64228571Y21581429D02*
X64085713Y20438572D01*
X72228570Y20152858D02*
X71228570Y21581429D01*
X70514284Y20152858D02*
X70514284Y23152858D01*
X70514284Y23152858D02*
X71657141Y23152858D01*
X71657141Y23152858D02*
X71942856Y23010000D01*
X71942856Y23010000D02*
X72085713Y22867143D01*
X72085713Y22867143D02*
X72228570Y22581429D01*
X72228570Y22581429D02*
X72228570Y22152858D01*
X72228570Y22152858D02*
X72085713Y21867143D01*
X72085713Y21867143D02*
X71942856Y21724286D01*
X71942856Y21724286D02*
X71657141Y21581429D01*
X71657141Y21581429D02*
X70514284Y21581429D01*
X73514284Y21724286D02*
X74514284Y21724286D01*
X74942856Y20152858D02*
X73514284Y20152858D01*
X73514284Y20152858D02*
X73514284Y23152858D01*
X73514284Y23152858D02*
X74942856Y23152858D01*
X75799999Y23152858D02*
X76799999Y20152858D01*
X76799999Y20152858D02*
X77799999Y23152858D01*
X80371428Y20152858D02*
X78657142Y20152858D01*
X79514285Y20152858D02*
X79514285Y23152858D01*
X79514285Y23152858D02*
X79228571Y22724286D01*
X79228571Y22724286D02*
X78942856Y22438572D01*
X78942856Y22438572D02*
X78657142Y22295715D01*
D11*
X94646666Y69372620D02*
X94646666Y68658334D01*
X94646666Y68658334D02*
X94599047Y68515477D01*
X94599047Y68515477D02*
X94503809Y68420239D01*
X94503809Y68420239D02*
X94360952Y68372620D01*
X94360952Y68372620D02*
X94265714Y68372620D01*
X95551428Y69372620D02*
X95360952Y69372620D01*
X95360952Y69372620D02*
X95265714Y69325000D01*
X95265714Y69325000D02*
X95218095Y69277381D01*
X95218095Y69277381D02*
X95122857Y69134524D01*
X95122857Y69134524D02*
X95075238Y68944048D01*
X95075238Y68944048D02*
X95075238Y68563096D01*
X95075238Y68563096D02*
X95122857Y68467858D01*
X95122857Y68467858D02*
X95170476Y68420239D01*
X95170476Y68420239D02*
X95265714Y68372620D01*
X95265714Y68372620D02*
X95456190Y68372620D01*
X95456190Y68372620D02*
X95551428Y68420239D01*
X95551428Y68420239D02*
X95599047Y68467858D01*
X95599047Y68467858D02*
X95646666Y68563096D01*
X95646666Y68563096D02*
X95646666Y68801191D01*
X95646666Y68801191D02*
X95599047Y68896429D01*
X95599047Y68896429D02*
X95551428Y68944048D01*
X95551428Y68944048D02*
X95456190Y68991667D01*
X95456190Y68991667D02*
X95265714Y68991667D01*
X95265714Y68991667D02*
X95170476Y68944048D01*
X95170476Y68944048D02*
X95122857Y68896429D01*
X95122857Y68896429D02*
X95075238Y68801191D01*
X94646666Y98242620D02*
X94646666Y97528334D01*
X94646666Y97528334D02*
X94599047Y97385477D01*
X94599047Y97385477D02*
X94503809Y97290239D01*
X94503809Y97290239D02*
X94360952Y97242620D01*
X94360952Y97242620D02*
X94265714Y97242620D01*
X95551428Y97909286D02*
X95551428Y97242620D01*
X95313333Y98290239D02*
X95075238Y97575953D01*
X95075238Y97575953D02*
X95694285Y97575953D01*
X55217380Y71064524D02*
X54741190Y70731191D01*
X55217380Y70493096D02*
X54217380Y70493096D01*
X54217380Y70493096D02*
X54217380Y70874048D01*
X54217380Y70874048D02*
X54265000Y70969286D01*
X54265000Y70969286D02*
X54312619Y71016905D01*
X54312619Y71016905D02*
X54407857Y71064524D01*
X54407857Y71064524D02*
X54550714Y71064524D01*
X54550714Y71064524D02*
X54645952Y71016905D01*
X54645952Y71016905D02*
X54693571Y70969286D01*
X54693571Y70969286D02*
X54741190Y70874048D01*
X54741190Y70874048D02*
X54741190Y70493096D01*
X55217380Y71493096D02*
X54217380Y71493096D01*
X54217380Y71493096D02*
X55217380Y72064524D01*
X55217380Y72064524D02*
X54217380Y72064524D01*
X55217380Y73064524D02*
X55217380Y72493096D01*
X55217380Y72778810D02*
X54217380Y72778810D01*
X54217380Y72778810D02*
X54360238Y72683572D01*
X54360238Y72683572D02*
X54455476Y72588334D01*
X54455476Y72588334D02*
X54503095Y72493096D01*
X17409761Y65166668D02*
X17457380Y65309525D01*
X17457380Y65309525D02*
X17457380Y65547620D01*
X17457380Y65547620D02*
X17409761Y65642858D01*
X17409761Y65642858D02*
X17362142Y65690477D01*
X17362142Y65690477D02*
X17266904Y65738096D01*
X17266904Y65738096D02*
X17171666Y65738096D01*
X17171666Y65738096D02*
X17076428Y65690477D01*
X17076428Y65690477D02*
X17028809Y65642858D01*
X17028809Y65642858D02*
X16981190Y65547620D01*
X16981190Y65547620D02*
X16933571Y65357144D01*
X16933571Y65357144D02*
X16885952Y65261906D01*
X16885952Y65261906D02*
X16838333Y65214287D01*
X16838333Y65214287D02*
X16743095Y65166668D01*
X16743095Y65166668D02*
X16647857Y65166668D01*
X16647857Y65166668D02*
X16552619Y65214287D01*
X16552619Y65214287D02*
X16505000Y65261906D01*
X16505000Y65261906D02*
X16457380Y65357144D01*
X16457380Y65357144D02*
X16457380Y65595239D01*
X16457380Y65595239D02*
X16505000Y65738096D01*
X16457380Y66071430D02*
X17457380Y66309525D01*
X17457380Y66309525D02*
X16743095Y66500001D01*
X16743095Y66500001D02*
X17457380Y66690477D01*
X17457380Y66690477D02*
X16457380Y66928572D01*
X17457380Y67833334D02*
X17457380Y67261906D01*
X17457380Y67547620D02*
X16457380Y67547620D01*
X16457380Y67547620D02*
X16600238Y67452382D01*
X16600238Y67452382D02*
X16695476Y67357144D01*
X16695476Y67357144D02*
X16743095Y67261906D01*
X83833333Y84777858D02*
X83785714Y84730239D01*
X83785714Y84730239D02*
X83642857Y84682620D01*
X83642857Y84682620D02*
X83547619Y84682620D01*
X83547619Y84682620D02*
X83404762Y84730239D01*
X83404762Y84730239D02*
X83309524Y84825477D01*
X83309524Y84825477D02*
X83261905Y84920715D01*
X83261905Y84920715D02*
X83214286Y85111191D01*
X83214286Y85111191D02*
X83214286Y85254048D01*
X83214286Y85254048D02*
X83261905Y85444524D01*
X83261905Y85444524D02*
X83309524Y85539762D01*
X83309524Y85539762D02*
X83404762Y85635000D01*
X83404762Y85635000D02*
X83547619Y85682620D01*
X83547619Y85682620D02*
X83642857Y85682620D01*
X83642857Y85682620D02*
X83785714Y85635000D01*
X83785714Y85635000D02*
X83833333Y85587381D01*
X84166667Y85682620D02*
X84785714Y85682620D01*
X84785714Y85682620D02*
X84452381Y85301667D01*
X84452381Y85301667D02*
X84595238Y85301667D01*
X84595238Y85301667D02*
X84690476Y85254048D01*
X84690476Y85254048D02*
X84738095Y85206429D01*
X84738095Y85206429D02*
X84785714Y85111191D01*
X84785714Y85111191D02*
X84785714Y84873096D01*
X84785714Y84873096D02*
X84738095Y84777858D01*
X84738095Y84777858D02*
X84690476Y84730239D01*
X84690476Y84730239D02*
X84595238Y84682620D01*
X84595238Y84682620D02*
X84309524Y84682620D01*
X84309524Y84682620D02*
X84214286Y84730239D01*
X84214286Y84730239D02*
X84166667Y84777858D01*
X35419761Y74697620D02*
X35086428Y75173810D01*
X34848333Y74697620D02*
X34848333Y75697620D01*
X34848333Y75697620D02*
X35229285Y75697620D01*
X35229285Y75697620D02*
X35324523Y75650000D01*
X35324523Y75650000D02*
X35372142Y75602381D01*
X35372142Y75602381D02*
X35419761Y75507143D01*
X35419761Y75507143D02*
X35419761Y75364286D01*
X35419761Y75364286D02*
X35372142Y75269048D01*
X35372142Y75269048D02*
X35324523Y75221429D01*
X35324523Y75221429D02*
X35229285Y75173810D01*
X35229285Y75173810D02*
X34848333Y75173810D01*
X35705476Y75697620D02*
X36038809Y74697620D01*
X36038809Y74697620D02*
X36372142Y75697620D01*
X37229285Y74697620D02*
X36657857Y74697620D01*
X36943571Y74697620D02*
X36943571Y75697620D01*
X36943571Y75697620D02*
X36848333Y75554762D01*
X36848333Y75554762D02*
X36753095Y75459524D01*
X36753095Y75459524D02*
X36657857Y75411905D01*
X21333333Y74632620D02*
X21000000Y75108810D01*
X20761905Y74632620D02*
X20761905Y75632620D01*
X20761905Y75632620D02*
X21142857Y75632620D01*
X21142857Y75632620D02*
X21238095Y75585000D01*
X21238095Y75585000D02*
X21285714Y75537381D01*
X21285714Y75537381D02*
X21333333Y75442143D01*
X21333333Y75442143D02*
X21333333Y75299286D01*
X21333333Y75299286D02*
X21285714Y75204048D01*
X21285714Y75204048D02*
X21238095Y75156429D01*
X21238095Y75156429D02*
X21142857Y75108810D01*
X21142857Y75108810D02*
X20761905Y75108810D01*
X22285714Y74632620D02*
X21714286Y74632620D01*
X22000000Y74632620D02*
X22000000Y75632620D01*
X22000000Y75632620D02*
X21904762Y75489762D01*
X21904762Y75489762D02*
X21809524Y75394524D01*
X21809524Y75394524D02*
X21714286Y75346905D01*
X71333333Y84777858D02*
X71285714Y84730239D01*
X71285714Y84730239D02*
X71142857Y84682620D01*
X71142857Y84682620D02*
X71047619Y84682620D01*
X71047619Y84682620D02*
X70904762Y84730239D01*
X70904762Y84730239D02*
X70809524Y84825477D01*
X70809524Y84825477D02*
X70761905Y84920715D01*
X70761905Y84920715D02*
X70714286Y85111191D01*
X70714286Y85111191D02*
X70714286Y85254048D01*
X70714286Y85254048D02*
X70761905Y85444524D01*
X70761905Y85444524D02*
X70809524Y85539762D01*
X70809524Y85539762D02*
X70904762Y85635000D01*
X70904762Y85635000D02*
X71047619Y85682620D01*
X71047619Y85682620D02*
X71142857Y85682620D01*
X71142857Y85682620D02*
X71285714Y85635000D01*
X71285714Y85635000D02*
X71333333Y85587381D01*
X71714286Y85587381D02*
X71761905Y85635000D01*
X71761905Y85635000D02*
X71857143Y85682620D01*
X71857143Y85682620D02*
X72095238Y85682620D01*
X72095238Y85682620D02*
X72190476Y85635000D01*
X72190476Y85635000D02*
X72238095Y85587381D01*
X72238095Y85587381D02*
X72285714Y85492143D01*
X72285714Y85492143D02*
X72285714Y85396905D01*
X72285714Y85396905D02*
X72238095Y85254048D01*
X72238095Y85254048D02*
X71666667Y84682620D01*
X71666667Y84682620D02*
X72285714Y84682620D01*
X11022142Y87788434D02*
X11069761Y87740815D01*
X11069761Y87740815D02*
X11117380Y87597958D01*
X11117380Y87597958D02*
X11117380Y87502720D01*
X11117380Y87502720D02*
X11069761Y87359863D01*
X11069761Y87359863D02*
X10974523Y87264625D01*
X10974523Y87264625D02*
X10879285Y87217006D01*
X10879285Y87217006D02*
X10688809Y87169387D01*
X10688809Y87169387D02*
X10545952Y87169387D01*
X10545952Y87169387D02*
X10355476Y87217006D01*
X10355476Y87217006D02*
X10260238Y87264625D01*
X10260238Y87264625D02*
X10165000Y87359863D01*
X10165000Y87359863D02*
X10117380Y87502720D01*
X10117380Y87502720D02*
X10117380Y87597958D01*
X10117380Y87597958D02*
X10165000Y87740815D01*
X10165000Y87740815D02*
X10212619Y87788434D01*
X11117380Y88740815D02*
X11117380Y88169387D01*
X11117380Y88455101D02*
X10117380Y88455101D01*
X10117380Y88455101D02*
X10260238Y88359863D01*
X10260238Y88359863D02*
X10355476Y88264625D01*
X10355476Y88264625D02*
X10403095Y88169387D01*
X49411666Y81837620D02*
X49411666Y81123334D01*
X49411666Y81123334D02*
X49364047Y80980477D01*
X49364047Y80980477D02*
X49268809Y80885239D01*
X49268809Y80885239D02*
X49125952Y80837620D01*
X49125952Y80837620D02*
X49030714Y80837620D01*
X49840238Y81742381D02*
X49887857Y81790000D01*
X49887857Y81790000D02*
X49983095Y81837620D01*
X49983095Y81837620D02*
X50221190Y81837620D01*
X50221190Y81837620D02*
X50316428Y81790000D01*
X50316428Y81790000D02*
X50364047Y81742381D01*
X50364047Y81742381D02*
X50411666Y81647143D01*
X50411666Y81647143D02*
X50411666Y81551905D01*
X50411666Y81551905D02*
X50364047Y81409048D01*
X50364047Y81409048D02*
X49792619Y80837620D01*
X49792619Y80837620D02*
X50411666Y80837620D01*
X63538095Y82732620D02*
X63538095Y81923096D01*
X63538095Y81923096D02*
X63585714Y81827858D01*
X63585714Y81827858D02*
X63633333Y81780239D01*
X63633333Y81780239D02*
X63728571Y81732620D01*
X63728571Y81732620D02*
X63919047Y81732620D01*
X63919047Y81732620D02*
X64014285Y81780239D01*
X64014285Y81780239D02*
X64061904Y81827858D01*
X64061904Y81827858D02*
X64109523Y81923096D01*
X64109523Y81923096D02*
X64109523Y82732620D01*
X65109523Y81732620D02*
X64538095Y81732620D01*
X64823809Y81732620D02*
X64823809Y82732620D01*
X64823809Y82732620D02*
X64728571Y82589762D01*
X64728571Y82589762D02*
X64633333Y82494524D01*
X64633333Y82494524D02*
X64538095Y82446905D01*
X16957380Y42666667D02*
X17671666Y42666667D01*
X17671666Y42666667D02*
X17814523Y42619048D01*
X17814523Y42619048D02*
X17909761Y42523810D01*
X17909761Y42523810D02*
X17957380Y42380953D01*
X17957380Y42380953D02*
X17957380Y42285715D01*
X16957380Y43047620D02*
X16957380Y43666667D01*
X16957380Y43666667D02*
X17338333Y43333334D01*
X17338333Y43333334D02*
X17338333Y43476191D01*
X17338333Y43476191D02*
X17385952Y43571429D01*
X17385952Y43571429D02*
X17433571Y43619048D01*
X17433571Y43619048D02*
X17528809Y43666667D01*
X17528809Y43666667D02*
X17766904Y43666667D01*
X17766904Y43666667D02*
X17862142Y43619048D01*
X17862142Y43619048D02*
X17909761Y43571429D01*
X17909761Y43571429D02*
X17957380Y43476191D01*
X17957380Y43476191D02*
X17957380Y43190477D01*
X17957380Y43190477D02*
X17909761Y43095239D01*
X17909761Y43095239D02*
X17862142Y43047620D01*
X16497380Y92281667D02*
X17211666Y92281667D01*
X17211666Y92281667D02*
X17354523Y92234048D01*
X17354523Y92234048D02*
X17449761Y92138810D01*
X17449761Y92138810D02*
X17497380Y91995953D01*
X17497380Y91995953D02*
X17497380Y91900715D01*
X17497380Y93281667D02*
X17497380Y92710239D01*
X17497380Y92995953D02*
X16497380Y92995953D01*
X16497380Y92995953D02*
X16640238Y92900715D01*
X16640238Y92900715D02*
X16735476Y92805477D01*
X16735476Y92805477D02*
X16783095Y92710239D01*
X75838095Y82532620D02*
X75838095Y81723096D01*
X75838095Y81723096D02*
X75885714Y81627858D01*
X75885714Y81627858D02*
X75933333Y81580239D01*
X75933333Y81580239D02*
X76028571Y81532620D01*
X76028571Y81532620D02*
X76219047Y81532620D01*
X76219047Y81532620D02*
X76314285Y81580239D01*
X76314285Y81580239D02*
X76361904Y81627858D01*
X76361904Y81627858D02*
X76409523Y81723096D01*
X76409523Y81723096D02*
X76409523Y82532620D01*
X76838095Y82437381D02*
X76885714Y82485000D01*
X76885714Y82485000D02*
X76980952Y82532620D01*
X76980952Y82532620D02*
X77219047Y82532620D01*
X77219047Y82532620D02*
X77314285Y82485000D01*
X77314285Y82485000D02*
X77361904Y82437381D01*
X77361904Y82437381D02*
X77409523Y82342143D01*
X77409523Y82342143D02*
X77409523Y82246905D01*
X77409523Y82246905D02*
X77361904Y82104048D01*
X77361904Y82104048D02*
X76790476Y81532620D01*
X76790476Y81532620D02*
X77409523Y81532620D01*
X6396666Y4762620D02*
X6396666Y4048334D01*
X6396666Y4048334D02*
X6349047Y3905477D01*
X6349047Y3905477D02*
X6253809Y3810239D01*
X6253809Y3810239D02*
X6110952Y3762620D01*
X6110952Y3762620D02*
X6015714Y3762620D01*
X7349047Y4762620D02*
X6872857Y4762620D01*
X6872857Y4762620D02*
X6825238Y4286429D01*
X6825238Y4286429D02*
X6872857Y4334048D01*
X6872857Y4334048D02*
X6968095Y4381667D01*
X6968095Y4381667D02*
X7206190Y4381667D01*
X7206190Y4381667D02*
X7301428Y4334048D01*
X7301428Y4334048D02*
X7349047Y4286429D01*
X7349047Y4286429D02*
X7396666Y4191191D01*
X7396666Y4191191D02*
X7396666Y3953096D01*
X7396666Y3953096D02*
X7349047Y3857858D01*
X7349047Y3857858D02*
X7301428Y3810239D01*
X7301428Y3810239D02*
X7206190Y3762620D01*
X7206190Y3762620D02*
X6968095Y3762620D01*
X6968095Y3762620D02*
X6872857Y3810239D01*
X6872857Y3810239D02*
X6825238Y3857858D01*
D13*
X94980000Y65140000D02*
X94980000Y67740000D01*
X92380000Y65140000D02*
X92380000Y49840000D01*
X92380000Y67740000D02*
X93710000Y67740000D01*
X97580000Y67740000D02*
X97580000Y49840000D01*
X92380000Y65140000D02*
X94980000Y65140000D01*
X92380000Y66410000D02*
X92380000Y67740000D01*
X94980000Y67740000D02*
X97580000Y67740000D01*
X92380000Y49840000D02*
X97580000Y49840000D01*
X94980000Y94010000D02*
X94980000Y96610000D01*
X92380000Y94010000D02*
X92380000Y78710000D01*
X92380000Y96610000D02*
X93710000Y96610000D01*
X97580000Y96610000D02*
X97580000Y78710000D01*
X92380000Y94010000D02*
X94980000Y94010000D01*
X92380000Y95280000D02*
X92380000Y96610000D01*
X94980000Y96610000D02*
X97580000Y96610000D01*
X92380000Y78710000D02*
X97580000Y78710000D01*
X55850000Y58885000D02*
X58650000Y58885000D01*
X58650000Y58885000D02*
X58650000Y82085000D01*
X55850000Y61595000D02*
X58650000Y61595000D01*
X55850000Y82085000D02*
X55850000Y58885000D01*
X58650000Y82085000D02*
X55850000Y82085000D01*
X18090000Y65170000D02*
X18090000Y66500000D01*
X19420000Y65170000D02*
X18090000Y65170000D01*
X20690000Y65170000D02*
X25830000Y65170000D01*
X20690000Y65170000D02*
X20690000Y67830000D01*
X25830000Y65170000D02*
X25830000Y67830000D01*
X20690000Y67830000D02*
X25830000Y67830000D01*
X83371000Y83920000D02*
X84629000Y83920000D01*
X83371000Y82080000D02*
X84629000Y82080000D01*
X32395000Y73935000D02*
X32395000Y67095000D01*
X32395000Y73935000D02*
X35425000Y73935000D01*
X32395000Y67095000D02*
X35425000Y67095000D01*
X36725000Y73935000D02*
X39635000Y73935000D01*
X36725000Y67095000D02*
X39635000Y67095000D01*
X39635000Y73935000D02*
X39635000Y67095000D01*
X19460000Y72500000D02*
X20230000Y72500000D01*
X20230000Y73870000D02*
X20230000Y71130000D01*
X20230000Y71130000D02*
X26770000Y71130000D01*
X26770000Y73870000D02*
X20230000Y73870000D01*
X26770000Y71130000D02*
X26770000Y73870000D01*
X27540000Y72500000D02*
X26770000Y72500000D01*
X70871000Y83920000D02*
X72129000Y83920000D01*
X70871000Y82080000D02*
X72129000Y82080000D01*
X8475000Y90759875D02*
X8475000Y90259875D01*
X8725000Y90509875D02*
X8225000Y90509875D01*
X9580000Y87955100D02*
X4420000Y87955100D01*
X9580000Y87915100D02*
X4420000Y87915100D01*
X9579000Y87875100D02*
X4421000Y87875100D01*
X9578000Y87835100D02*
X4422000Y87835100D01*
X9576000Y87795100D02*
X4424000Y87795100D01*
X9573000Y87755100D02*
X4427000Y87755100D01*
X9569000Y87715100D02*
X8040000Y87715100D01*
X5960000Y87715100D02*
X4431000Y87715100D01*
X9565000Y87675100D02*
X8040000Y87675100D01*
X5960000Y87675100D02*
X4435000Y87675100D01*
X9561000Y87635100D02*
X8040000Y87635100D01*
X5960000Y87635100D02*
X4439000Y87635100D01*
X9556000Y87595100D02*
X8040000Y87595100D01*
X5960000Y87595100D02*
X4444000Y87595100D01*
X9550000Y87555100D02*
X8040000Y87555100D01*
X5960000Y87555100D02*
X4450000Y87555100D01*
X9543000Y87515100D02*
X8040000Y87515100D01*
X5960000Y87515100D02*
X4457000Y87515100D01*
X9536000Y87475100D02*
X8040000Y87475100D01*
X5960000Y87475100D02*
X4464000Y87475100D01*
X9528000Y87435100D02*
X8040000Y87435100D01*
X5960000Y87435100D02*
X4472000Y87435100D01*
X9520000Y87395100D02*
X8040000Y87395100D01*
X5960000Y87395100D02*
X4480000Y87395100D01*
X9511000Y87355100D02*
X8040000Y87355100D01*
X5960000Y87355100D02*
X4489000Y87355100D01*
X9501000Y87315100D02*
X8040000Y87315100D01*
X5960000Y87315100D02*
X4499000Y87315100D01*
X9491000Y87275100D02*
X8040000Y87275100D01*
X5960000Y87275100D02*
X4509000Y87275100D01*
X9480000Y87234100D02*
X8040000Y87234100D01*
X5960000Y87234100D02*
X4520000Y87234100D01*
X9468000Y87194100D02*
X8040000Y87194100D01*
X5960000Y87194100D02*
X4532000Y87194100D01*
X9455000Y87154100D02*
X8040000Y87154100D01*
X5960000Y87154100D02*
X4545000Y87154100D01*
X9442000Y87114100D02*
X8040000Y87114100D01*
X5960000Y87114100D02*
X4558000Y87114100D01*
X9428000Y87074100D02*
X8040000Y87074100D01*
X5960000Y87074100D02*
X4572000Y87074100D01*
X9414000Y87034100D02*
X8040000Y87034100D01*
X5960000Y87034100D02*
X4586000Y87034100D01*
X9398000Y86994100D02*
X8040000Y86994100D01*
X5960000Y86994100D02*
X4602000Y86994100D01*
X9382000Y86954100D02*
X8040000Y86954100D01*
X5960000Y86954100D02*
X4618000Y86954100D01*
X9365000Y86914100D02*
X8040000Y86914100D01*
X5960000Y86914100D02*
X4635000Y86914100D01*
X9348000Y86874100D02*
X8040000Y86874100D01*
X5960000Y86874100D02*
X4652000Y86874100D01*
X9329000Y86834100D02*
X8040000Y86834100D01*
X5960000Y86834100D02*
X4671000Y86834100D01*
X9310000Y86794100D02*
X8040000Y86794100D01*
X5960000Y86794100D02*
X4690000Y86794100D01*
X9290000Y86754100D02*
X8040000Y86754100D01*
X5960000Y86754100D02*
X4710000Y86754100D01*
X9268000Y86714100D02*
X8040000Y86714100D01*
X5960000Y86714100D02*
X4732000Y86714100D01*
X9247000Y86674100D02*
X8040000Y86674100D01*
X5960000Y86674100D02*
X4753000Y86674100D01*
X9224000Y86634100D02*
X8040000Y86634100D01*
X5960000Y86634100D02*
X4776000Y86634100D01*
X9200000Y86594100D02*
X8040000Y86594100D01*
X5960000Y86594100D02*
X4800000Y86594100D01*
X9175000Y86554100D02*
X8040000Y86554100D01*
X5960000Y86554100D02*
X4825000Y86554100D01*
X9149000Y86514100D02*
X8040000Y86514100D01*
X5960000Y86514100D02*
X4851000Y86514100D01*
X9122000Y86474100D02*
X8040000Y86474100D01*
X5960000Y86474100D02*
X4878000Y86474100D01*
X9095000Y86434100D02*
X8040000Y86434100D01*
X5960000Y86434100D02*
X4905000Y86434100D01*
X9065000Y86394100D02*
X8040000Y86394100D01*
X5960000Y86394100D02*
X4935000Y86394100D01*
X9035000Y86354100D02*
X8040000Y86354100D01*
X5960000Y86354100D02*
X4965000Y86354100D01*
X9004000Y86314100D02*
X8040000Y86314100D01*
X5960000Y86314100D02*
X4996000Y86314100D01*
X8971000Y86274100D02*
X8040000Y86274100D01*
X5960000Y86274100D02*
X5029000Y86274100D01*
X8937000Y86234100D02*
X8040000Y86234100D01*
X5960000Y86234100D02*
X5063000Y86234100D01*
X8901000Y86194100D02*
X8040000Y86194100D01*
X5960000Y86194100D02*
X5099000Y86194100D01*
X8864000Y86154100D02*
X8040000Y86154100D01*
X5960000Y86154100D02*
X5136000Y86154100D01*
X8826000Y86114100D02*
X8040000Y86114100D01*
X5960000Y86114100D02*
X5174000Y86114100D01*
X8785000Y86074100D02*
X8040000Y86074100D01*
X5960000Y86074100D02*
X5215000Y86074100D01*
X8743000Y86034100D02*
X8040000Y86034100D01*
X5960000Y86034100D02*
X5257000Y86034100D01*
X8699000Y85994100D02*
X8040000Y85994100D01*
X5960000Y85994100D02*
X5301000Y85994100D01*
X8653000Y85954100D02*
X8040000Y85954100D01*
X5960000Y85954100D02*
X5347000Y85954100D01*
X8605000Y85914100D02*
X8040000Y85914100D01*
X5960000Y85914100D02*
X5395000Y85914100D01*
X8554000Y85874100D02*
X8040000Y85874100D01*
X5960000Y85874100D02*
X5446000Y85874100D01*
X8500000Y85834100D02*
X8040000Y85834100D01*
X5960000Y85834100D02*
X5500000Y85834100D01*
X8443000Y85794100D02*
X8040000Y85794100D01*
X5960000Y85794100D02*
X5557000Y85794100D01*
X8383000Y85754100D02*
X8040000Y85754100D01*
X5960000Y85754100D02*
X5617000Y85754100D01*
X8319000Y85714100D02*
X8040000Y85714100D01*
X5960000Y85714100D02*
X5681000Y85714100D01*
X8251000Y85674100D02*
X8040000Y85674100D01*
X5960000Y85674100D02*
X5749000Y85674100D01*
X8178000Y85634100D02*
X5822000Y85634100D01*
X8098000Y85594100D02*
X5902000Y85594100D01*
X8011000Y85554100D02*
X5989000Y85554100D01*
X7915000Y85514100D02*
X6085000Y85514100D01*
X7805000Y85474100D02*
X6195000Y85474100D01*
X7677000Y85434100D02*
X6323000Y85434100D01*
X7518000Y85394100D02*
X6482000Y85394100D01*
X7284000Y85354100D02*
X6716000Y85354100D01*
X9620000Y87955100D02*
G75*
G03*
X9620000Y87955100I-2620000J0D01*
G01*
X47145000Y80205000D02*
X48475000Y80205000D01*
X47145000Y78875000D02*
X47145000Y80205000D01*
X47145000Y77605000D02*
X47145000Y59765000D01*
X47145000Y77605000D02*
X49745000Y77605000D01*
X47145000Y59765000D02*
X52345000Y59765000D01*
X49745000Y80205000D02*
X52345000Y80205000D01*
X49745000Y77605000D02*
X49745000Y80205000D01*
X52345000Y80205000D02*
X52345000Y59765000D01*
X63120000Y81090000D02*
X63120000Y60530000D01*
X63120000Y60530000D02*
X73400000Y60530000D01*
X65610000Y81030000D02*
X65610000Y60590000D01*
X65610000Y60590000D02*
X70910000Y60590000D01*
X67260000Y81030000D02*
X65610000Y81030000D01*
X70910000Y81030000D02*
X69260000Y81030000D01*
X70910000Y60590000D02*
X70910000Y81030000D01*
X73400000Y81090000D02*
X63120000Y81090000D01*
X73400000Y60530000D02*
X73400000Y81090000D01*
X67260000Y81030000D02*
G75*
G03*
X69260000Y81030000I1000000J0D01*
G01*
X18590000Y41670000D02*
X18590000Y43000000D01*
X19920000Y41670000D02*
X18590000Y41670000D01*
X21190000Y41670000D02*
X59350000Y41670000D01*
X21190000Y41670000D02*
X21190000Y44330000D01*
X59350000Y41670000D02*
X59350000Y44330000D01*
X21190000Y44330000D02*
X59350000Y44330000D01*
X80740000Y99600000D02*
X80740000Y93600000D01*
X79980000Y99600000D02*
X80740000Y99600000D01*
X78200000Y99600000D02*
X78200000Y93600000D01*
X77440000Y99600000D02*
X78200000Y99600000D01*
X75660000Y99600000D02*
X75660000Y93600000D01*
X74900000Y99600000D02*
X75660000Y99600000D01*
X73120000Y99600000D02*
X73120000Y93600000D01*
X72360000Y99600000D02*
X73120000Y99600000D01*
X70580000Y99600000D02*
X70580000Y93600000D01*
X69820000Y99600000D02*
X70580000Y99600000D01*
X68040000Y99600000D02*
X68040000Y93600000D01*
X67280000Y99600000D02*
X68040000Y99600000D01*
X65500000Y99600000D02*
X65500000Y93600000D01*
X64740000Y99600000D02*
X65500000Y99600000D01*
X62960000Y99600000D02*
X62960000Y93600000D01*
X62200000Y99600000D02*
X62960000Y99600000D01*
X60420000Y99600000D02*
X60420000Y93600000D01*
X59660000Y99600000D02*
X60420000Y99600000D01*
X57880000Y99600000D02*
X57880000Y93600000D01*
X57120000Y99600000D02*
X57880000Y99600000D01*
X55340000Y99600000D02*
X55340000Y93600000D01*
X54580000Y99600000D02*
X55340000Y99600000D01*
X52800000Y99600000D02*
X52800000Y93600000D01*
X52040000Y99600000D02*
X52800000Y99600000D01*
X50260000Y99600000D02*
X50260000Y93600000D01*
X49500000Y99600000D02*
X50260000Y99600000D01*
X47720000Y99600000D02*
X47720000Y93600000D01*
X46960000Y99600000D02*
X47720000Y99600000D01*
X45180000Y99600000D02*
X45180000Y93600000D01*
X44420000Y99600000D02*
X45180000Y99600000D01*
X42640000Y99600000D02*
X42640000Y93600000D01*
X41880000Y99600000D02*
X42640000Y99600000D01*
X40100000Y99600000D02*
X40100000Y93600000D01*
X39340000Y99600000D02*
X40100000Y99600000D01*
X37560000Y99600000D02*
X37560000Y93600000D01*
X36800000Y99600000D02*
X37560000Y99600000D01*
X35020000Y99600000D02*
X35020000Y93600000D01*
X34260000Y99600000D02*
X35020000Y99600000D01*
X32480000Y99600000D02*
X32480000Y93600000D01*
X31720000Y99600000D02*
X32480000Y99600000D01*
X29940000Y99600000D02*
X29940000Y93600000D01*
X29180000Y99600000D02*
X29940000Y99600000D01*
X27400000Y99600000D02*
X27400000Y93600000D01*
X26640000Y99600000D02*
X27400000Y99600000D01*
X24860000Y99600000D02*
X24860000Y93600000D01*
X24100000Y99600000D02*
X24860000Y99600000D01*
X22320000Y99600000D02*
X22320000Y93600000D01*
X21560000Y99600000D02*
X22320000Y99600000D01*
X19780000Y99600000D02*
X19780000Y93600000D01*
X19020000Y99600000D02*
X19780000Y99600000D01*
X81690000Y93600000D02*
X18070000Y93600000D01*
X79980000Y93600000D02*
X79980000Y99600000D01*
X77440000Y93600000D02*
X77440000Y99600000D01*
X74900000Y93600000D02*
X74900000Y99600000D01*
X72360000Y93600000D02*
X72360000Y99600000D01*
X69820000Y93600000D02*
X69820000Y99600000D01*
X67280000Y93600000D02*
X67280000Y99600000D01*
X64740000Y93600000D02*
X64740000Y99600000D01*
X62200000Y93600000D02*
X62200000Y99600000D01*
X59660000Y93600000D02*
X59660000Y99600000D01*
X57120000Y93600000D02*
X57120000Y99600000D01*
X54580000Y93600000D02*
X54580000Y99600000D01*
X52040000Y93600000D02*
X52040000Y99600000D01*
X49500000Y93600000D02*
X49500000Y99600000D01*
X46960000Y93600000D02*
X46960000Y99600000D01*
X44420000Y93600000D02*
X44420000Y99600000D01*
X41880000Y93600000D02*
X41880000Y99600000D01*
X39340000Y93600000D02*
X39340000Y99600000D01*
X36800000Y93600000D02*
X36800000Y99600000D01*
X34260000Y93600000D02*
X34260000Y99600000D01*
X31720000Y93600000D02*
X31720000Y99600000D01*
X29180000Y93600000D02*
X29180000Y99600000D01*
X26640000Y93600000D02*
X26640000Y99600000D01*
X24100000Y93600000D02*
X24100000Y99600000D01*
X21560000Y93600000D02*
X21560000Y99600000D01*
X19680000Y93600000D02*
X19680000Y99600000D01*
X19560000Y93600000D02*
X19560000Y99600000D01*
X19440000Y93600000D02*
X19440000Y99600000D01*
X19320000Y93600000D02*
X19320000Y99600000D01*
X19200000Y93600000D02*
X19200000Y99600000D01*
X19080000Y93600000D02*
X19080000Y99600000D01*
X19020000Y93600000D02*
X19020000Y99600000D01*
X18070000Y93600000D02*
X18070000Y90940000D01*
X81690000Y90940000D02*
X81690000Y93600000D01*
X79090000Y90940000D02*
X79090000Y93600000D01*
X76550000Y90940000D02*
X76550000Y93600000D01*
X74010000Y90940000D02*
X74010000Y93600000D01*
X71470000Y90940000D02*
X71470000Y93600000D01*
X68930000Y90940000D02*
X68930000Y93600000D01*
X66390000Y90940000D02*
X66390000Y93600000D01*
X63850000Y90940000D02*
X63850000Y93600000D01*
X61310000Y90940000D02*
X61310000Y93600000D01*
X58770000Y90940000D02*
X58770000Y93600000D01*
X56230000Y90940000D02*
X56230000Y93600000D01*
X53690000Y90940000D02*
X53690000Y93600000D01*
X51150000Y90940000D02*
X51150000Y93600000D01*
X48610000Y90940000D02*
X48610000Y93600000D01*
X46070000Y90940000D02*
X46070000Y93600000D01*
X43530000Y90940000D02*
X43530000Y93600000D01*
X40990000Y90940000D02*
X40990000Y93600000D01*
X38450000Y90940000D02*
X38450000Y93600000D01*
X35910000Y90940000D02*
X35910000Y93600000D01*
X33370000Y90940000D02*
X33370000Y93600000D01*
X30830000Y90940000D02*
X30830000Y93600000D01*
X28290000Y90940000D02*
X28290000Y93600000D01*
X25750000Y90940000D02*
X25750000Y93600000D01*
X23210000Y90940000D02*
X23210000Y93600000D01*
X20670000Y90940000D02*
X20670000Y93600000D01*
X18070000Y90940000D02*
X81690000Y90940000D01*
X80740000Y90542929D02*
X80740000Y90940000D01*
X79980000Y90542929D02*
X79980000Y90940000D01*
X78200000Y90542929D02*
X78200000Y90940000D01*
X77440000Y90542929D02*
X77440000Y90940000D01*
X75660000Y90542929D02*
X75660000Y90940000D01*
X74900000Y90542929D02*
X74900000Y90940000D01*
X73120000Y90542929D02*
X73120000Y90940000D01*
X72360000Y90542929D02*
X72360000Y90940000D01*
X70580000Y90542929D02*
X70580000Y90940000D01*
X69820000Y90542929D02*
X69820000Y90940000D01*
X68040000Y90542929D02*
X68040000Y90940000D01*
X67280000Y90542929D02*
X67280000Y90940000D01*
X65500000Y90542929D02*
X65500000Y90940000D01*
X64740000Y90542929D02*
X64740000Y90940000D01*
X62960000Y90542929D02*
X62960000Y90940000D01*
X62200000Y90542929D02*
X62200000Y90940000D01*
X60420000Y90542929D02*
X60420000Y90940000D01*
X59660000Y90542929D02*
X59660000Y90940000D01*
X57880000Y90542929D02*
X57880000Y90940000D01*
X57120000Y90542929D02*
X57120000Y90940000D01*
X55340000Y90542929D02*
X55340000Y90940000D01*
X54580000Y90542929D02*
X54580000Y90940000D01*
X52800000Y90542929D02*
X52800000Y90940000D01*
X52040000Y90542929D02*
X52040000Y90940000D01*
X50260000Y90542929D02*
X50260000Y90940000D01*
X49500000Y90542929D02*
X49500000Y90940000D01*
X47720000Y90542929D02*
X47720000Y90940000D01*
X46960000Y90542929D02*
X46960000Y90940000D01*
X45180000Y90542929D02*
X45180000Y90940000D01*
X44420000Y90542929D02*
X44420000Y90940000D01*
X42640000Y90542929D02*
X42640000Y90940000D01*
X41880000Y90542929D02*
X41880000Y90940000D01*
X40100000Y90542929D02*
X40100000Y90940000D01*
X39340000Y90542929D02*
X39340000Y90940000D01*
X37560000Y90542929D02*
X37560000Y90940000D01*
X36800000Y90542929D02*
X36800000Y90940000D01*
X35020000Y90542929D02*
X35020000Y90940000D01*
X34260000Y90542929D02*
X34260000Y90940000D01*
X32480000Y90542929D02*
X32480000Y90940000D01*
X31720000Y90542929D02*
X31720000Y90940000D01*
X29940000Y90542929D02*
X29940000Y90940000D01*
X29180000Y90542929D02*
X29180000Y90940000D01*
X27400000Y90542929D02*
X27400000Y90940000D01*
X26640000Y90542929D02*
X26640000Y90940000D01*
X24860000Y90542929D02*
X24860000Y90940000D01*
X24100000Y90542929D02*
X24100000Y90940000D01*
X22320000Y90542929D02*
X22320000Y90940000D01*
X21560000Y90542929D02*
X21560000Y90940000D01*
X19780000Y90542929D02*
X19780000Y90940000D01*
X19020000Y90542929D02*
X19020000Y90940000D01*
X19780000Y88070000D02*
X19780000Y88457071D01*
X19020000Y88070000D02*
X19020000Y88457071D01*
X80740000Y88002929D02*
X80740000Y88457071D01*
X79980000Y88002929D02*
X79980000Y88457071D01*
X78200000Y88002929D02*
X78200000Y88457071D01*
X77440000Y88002929D02*
X77440000Y88457071D01*
X75660000Y88002929D02*
X75660000Y88457071D01*
X74900000Y88002929D02*
X74900000Y88457071D01*
X73120000Y88002929D02*
X73120000Y88457071D01*
X72360000Y88002929D02*
X72360000Y88457071D01*
X70580000Y88002929D02*
X70580000Y88457071D01*
X69820000Y88002929D02*
X69820000Y88457071D01*
X68040000Y88002929D02*
X68040000Y88457071D01*
X67280000Y88002929D02*
X67280000Y88457071D01*
X65500000Y88002929D02*
X65500000Y88457071D01*
X64740000Y88002929D02*
X64740000Y88457071D01*
X62960000Y88002929D02*
X62960000Y88457071D01*
X62200000Y88002929D02*
X62200000Y88457071D01*
X60420000Y88002929D02*
X60420000Y88457071D01*
X59660000Y88002929D02*
X59660000Y88457071D01*
X57880000Y88002929D02*
X57880000Y88457071D01*
X57120000Y88002929D02*
X57120000Y88457071D01*
X55340000Y88002929D02*
X55340000Y88457071D01*
X54580000Y88002929D02*
X54580000Y88457071D01*
X52800000Y88002929D02*
X52800000Y88457071D01*
X52040000Y88002929D02*
X52040000Y88457071D01*
X50260000Y88002929D02*
X50260000Y88457071D01*
X49500000Y88002929D02*
X49500000Y88457071D01*
X47720000Y88002929D02*
X47720000Y88457071D01*
X46960000Y88002929D02*
X46960000Y88457071D01*
X45180000Y88002929D02*
X45180000Y88457071D01*
X44420000Y88002929D02*
X44420000Y88457071D01*
X42640000Y88002929D02*
X42640000Y88457071D01*
X41880000Y88002929D02*
X41880000Y88457071D01*
X40100000Y88002929D02*
X40100000Y88457071D01*
X39340000Y88002929D02*
X39340000Y88457071D01*
X37560000Y88002929D02*
X37560000Y88457071D01*
X36800000Y88002929D02*
X36800000Y88457071D01*
X35020000Y88002929D02*
X35020000Y88457071D01*
X34260000Y88002929D02*
X34260000Y88457071D01*
X32480000Y88002929D02*
X32480000Y88457071D01*
X31720000Y88002929D02*
X31720000Y88457071D01*
X29940000Y88002929D02*
X29940000Y88457071D01*
X29180000Y88002929D02*
X29180000Y88457071D01*
X27400000Y88002929D02*
X27400000Y88457071D01*
X26640000Y88002929D02*
X26640000Y88457071D01*
X24860000Y88002929D02*
X24860000Y88457071D01*
X24100000Y88002929D02*
X24100000Y88457071D01*
X22320000Y88002929D02*
X22320000Y88457071D01*
X21560000Y88002929D02*
X21560000Y88457071D01*
X19400000Y85690000D02*
X18130000Y85690000D01*
X18130000Y85690000D02*
X18130000Y86960000D01*
X75870000Y81015000D02*
X75870000Y62995000D01*
X75870000Y62995000D02*
X86150000Y62995000D01*
X78360000Y80955000D02*
X78360000Y63055000D01*
X78360000Y63055000D02*
X83660000Y63055000D01*
X80010000Y80955000D02*
X78360000Y80955000D01*
X83660000Y80955000D02*
X82010000Y80955000D01*
X83660000Y63055000D02*
X83660000Y80955000D01*
X86150000Y81015000D02*
X75870000Y81015000D01*
X86150000Y62995000D02*
X86150000Y81015000D01*
X80010000Y80955000D02*
G75*
G03*
X82010000Y80955000I1000000J0D01*
G01*
X9330000Y5130000D02*
X8000000Y5130000D01*
X9330000Y6460000D02*
X9330000Y5130000D01*
X9330000Y7730000D02*
X9330000Y23030000D01*
X9330000Y7730000D02*
X6730000Y7730000D01*
X9330000Y23030000D02*
X4130000Y23030000D01*
X6730000Y5130000D02*
X4130000Y5130000D01*
X6730000Y7730000D02*
X6730000Y5130000D01*
X4130000Y5130000D02*
X4130000Y23030000D01*
M02*
