M48
; DRILL file {KiCad (7.0.0-0)} date 2023年03月22日 水曜日 18:35:19
; FORMAT={-:-/ absolute / metric / decimal}
; #@! TF.CreationDate,2023-03-22T18:35:19+09:00
; #@! TF.GenerationSoftware,Kicad,Pcbnew,(7.0.0-0)
; #@! TF.FileFunction,MixedPlating,1,2
FMAT,2
METRIC
; #@! TA.AperFunction,Plated,PTH,ViaDrill
T1C0.300
; #@! TA.AperFunction,Plated,PTH,ComponentDrill
T2C0.800
; #@! TA.AperFunction,Plated,PTH,ComponentDrill
T3C1.000
%
G90
G05
T1
X24.623Y63.263
X26.926Y46.552
X31.936Y64.354
X32.558Y63.263
X32.889Y53.519
X36.423Y60.0
X39.627Y50.883
X40.271Y56.639
X41.587Y54.349
T2
X7.0Y89.205
X7.0Y86.705
X18.42Y72.5
X28.58Y72.5
X36.075Y73.055
X36.075Y67.975
X38.615Y70.515
X57.25Y80.645
X57.25Y78.105
X57.25Y75.565
X57.25Y73.025
X57.25Y70.485
X57.25Y67.945
X57.25Y65.405
X57.25Y62.865
X57.25Y60.325
X64.45Y79.7
X64.45Y77.16
X64.45Y74.62
X64.45Y72.08
X64.45Y69.54
X64.45Y67.0
X64.45Y64.46
X64.45Y61.92
X70.25Y83.0
X72.07Y79.7
X72.07Y77.16
X72.07Y74.62
X72.07Y72.08
X72.07Y69.54
X72.07Y67.0
X72.07Y64.46
X72.07Y61.92
X72.75Y83.0
X77.2Y79.625
X77.2Y77.085
X77.2Y74.545
X77.2Y72.005
X77.2Y69.465
X77.2Y66.925
X77.2Y64.385
X82.75Y83.0
X84.82Y79.625
X84.82Y77.085
X84.82Y74.545
X84.82Y72.005
X84.82Y69.465
X84.82Y66.925
X84.82Y64.385
X85.25Y83.0
T3
X5.46Y21.7
X5.46Y19.16
X5.46Y16.62
X5.46Y14.08
X5.46Y11.54
X5.46Y9.0
X5.46Y6.46
X8.0Y21.7
X8.0Y19.16
X8.0Y16.62
X8.0Y14.08
X8.0Y11.54
X8.0Y9.0
X8.0Y6.46
X19.4Y89.5
X19.4Y86.96
X19.42Y66.5
X19.92Y43.0
X21.94Y89.5
X21.94Y86.96
X21.96Y66.5
X22.46Y43.0
X24.48Y89.5
X24.48Y86.96
X24.5Y66.5
X25.0Y43.0
X27.02Y89.5
X27.02Y86.96
X27.54Y43.0
X29.56Y89.5
X29.56Y86.96
X30.08Y43.0
X32.1Y89.5
X32.1Y86.96
X32.62Y43.0
X34.64Y89.5
X34.64Y86.96
X35.16Y43.0
X37.18Y89.5
X37.18Y86.96
X37.7Y43.0
X39.72Y89.5
X39.72Y86.96
X40.24Y43.0
X42.26Y89.5
X42.26Y86.96
X42.78Y43.0
X44.8Y89.5
X44.8Y86.96
X45.32Y43.0
X47.34Y89.5
X47.34Y86.96
X47.86Y43.0
X48.475Y78.875
X48.475Y76.335
X48.475Y73.795
X48.475Y71.255
X48.475Y68.715
X48.475Y66.175
X48.475Y63.635
X48.475Y61.095
X49.88Y89.5
X49.88Y86.96
X50.4Y43.0
X51.015Y78.875
X51.015Y76.335
X51.015Y73.795
X51.015Y71.255
X51.015Y68.715
X51.015Y66.175
X51.015Y63.635
X51.015Y61.095
X52.42Y89.5
X52.42Y86.96
X52.94Y43.0
X54.96Y89.5
X54.96Y86.96
X55.48Y43.0
X57.5Y89.5
X57.5Y86.96
X58.02Y43.0
X60.04Y89.5
X60.04Y86.96
X62.58Y89.5
X62.58Y86.96
X65.12Y89.5
X65.12Y86.96
X67.66Y89.5
X67.66Y86.96
X70.2Y89.5
X70.2Y86.96
X72.74Y89.5
X72.74Y86.96
X75.28Y89.5
X75.28Y86.96
X77.82Y89.5
X77.82Y86.96
X80.36Y89.5
X80.36Y86.96
X93.71Y95.28
X93.71Y92.74
X93.71Y90.2
X93.71Y87.66
X93.71Y85.12
X93.71Y82.58
X93.71Y80.04
X93.71Y66.41
X93.71Y63.87
X93.71Y61.33
X93.71Y58.79
X93.71Y56.25
X93.71Y53.71
X93.71Y51.17
X96.25Y95.28
X96.25Y92.74
X96.25Y90.2
X96.25Y87.66
X96.25Y85.12
X96.25Y82.58
X96.25Y80.04
X96.25Y66.41
X96.25Y63.87
X96.25Y61.33
X96.25Y58.79
X96.25Y56.25
X96.25Y53.71
X96.25Y51.17
T0
M30
