G04 #@! TF.GenerationSoftware,KiCad,Pcbnew,(7.0.0-0)*
G04 #@! TF.CreationDate,2023-03-22T18:35:00+09:00*
G04 #@! TF.ProjectId,PC8001-SC1602,50433830-3031-42d5-9343-313630322e6b,rev?*
G04 #@! TF.SameCoordinates,PX5f5e100PY8f0d180*
G04 #@! TF.FileFunction,Copper,L2,Bot*
G04 #@! TF.FilePolarity,Positive*
%FSLAX46Y46*%
G04 Gerber Fmt 4.6, Leading zero omitted, Abs format (unit mm)*
G04 Created by KiCad (PCBNEW (7.0.0-0)) date 2023-03-22 18:35:00*
%MOMM*%
%LPD*%
G01*
G04 APERTURE LIST*
G04 #@! TA.AperFunction,ComponentPad*
%ADD10O,1.700000X1.700000*%
G04 #@! TD*
G04 #@! TA.AperFunction,ComponentPad*
%ADD11R,1.700000X1.700000*%
G04 #@! TD*
G04 #@! TA.AperFunction,ComponentPad*
%ADD12R,1.600000X1.600000*%
G04 #@! TD*
G04 #@! TA.AperFunction,ComponentPad*
%ADD13O,1.600000X1.600000*%
G04 #@! TD*
G04 #@! TA.AperFunction,ComponentPad*
%ADD14C,1.600000*%
G04 #@! TD*
G04 #@! TA.AperFunction,ComponentPad*
%ADD15C,1.440000*%
G04 #@! TD*
G04 #@! TA.AperFunction,ViaPad*
%ADD16C,0.600000*%
G04 #@! TD*
G04 #@! TA.AperFunction,Conductor*
%ADD17C,0.200000*%
G04 #@! TD*
G04 #@! TA.AperFunction,Conductor*
%ADD18C,0.600000*%
G04 #@! TD*
G04 APERTURE END LIST*
D10*
X96249999Y51169999D03*
X93709999Y51169999D03*
X96249999Y53709999D03*
X93709999Y53709999D03*
X96249999Y56249999D03*
X93709999Y56249999D03*
X96249999Y58789999D03*
X93709999Y58789999D03*
X96249999Y61329999D03*
X93709999Y61329999D03*
X96249999Y63869999D03*
X93709999Y63869999D03*
X96249999Y66409999D03*
D11*
X93709999Y66409999D03*
D10*
X96249999Y80039999D03*
X93709999Y80039999D03*
X96249999Y82579999D03*
X93709999Y82579999D03*
X96249999Y85119999D03*
X93709999Y85119999D03*
X96249999Y87659999D03*
X93709999Y87659999D03*
X96249999Y90199999D03*
X93709999Y90199999D03*
X96249999Y92739999D03*
X93709999Y92739999D03*
X96249999Y95279999D03*
D11*
X93709999Y95279999D03*
D12*
X57249999Y60324999D03*
D13*
X57249999Y62864999D03*
X57249999Y65404999D03*
X57249999Y67944999D03*
X57249999Y70484999D03*
X57249999Y73024999D03*
X57249999Y75564999D03*
X57249999Y78104999D03*
X57249999Y80644999D03*
D11*
X19419999Y66499999D03*
D10*
X21959999Y66499999D03*
X24499999Y66499999D03*
D14*
X82750000Y83000000D03*
X85250000Y83000000D03*
D15*
X36075000Y67975000D03*
X38615000Y70515000D03*
X36075000Y73055000D03*
D14*
X18420000Y72500000D03*
D13*
X28579999Y72499999D03*
D14*
X70250000Y83000000D03*
X72750000Y83000000D03*
D12*
X6999999Y89205099D03*
D14*
X7000000Y86705100D03*
D11*
X48474999Y78874999D03*
D10*
X51014999Y78874999D03*
X48474999Y76334999D03*
X51014999Y76334999D03*
X48474999Y73794999D03*
X51014999Y73794999D03*
X48474999Y71254999D03*
X51014999Y71254999D03*
X48474999Y68714999D03*
X51014999Y68714999D03*
X48474999Y66174999D03*
X51014999Y66174999D03*
X48474999Y63634999D03*
X51014999Y63634999D03*
X48474999Y61094999D03*
X51014999Y61094999D03*
D12*
X64449999Y79699999D03*
D13*
X64449999Y77159999D03*
X64449999Y74619999D03*
X64449999Y72079999D03*
X64449999Y69539999D03*
X64449999Y66999999D03*
X64449999Y64459999D03*
X64449999Y61919999D03*
X72069999Y61919999D03*
X72069999Y64459999D03*
X72069999Y66999999D03*
X72069999Y69539999D03*
X72069999Y72079999D03*
X72069999Y74619999D03*
X72069999Y77159999D03*
X72069999Y79699999D03*
D11*
X19919999Y42999999D03*
D10*
X22459999Y42999999D03*
X24999999Y42999999D03*
X27539999Y42999999D03*
X30079999Y42999999D03*
X32619999Y42999999D03*
X35159999Y42999999D03*
X37699999Y42999999D03*
X40239999Y42999999D03*
X42779999Y42999999D03*
X45319999Y42999999D03*
X47859999Y42999999D03*
X50399999Y42999999D03*
X52939999Y42999999D03*
X55479999Y42999999D03*
X58019999Y42999999D03*
X80359999Y89499999D03*
X80359999Y86959999D03*
X77819999Y89499999D03*
X77819999Y86959999D03*
X75279999Y89499999D03*
X75279999Y86959999D03*
X72739999Y89499999D03*
X72739999Y86959999D03*
X70199999Y89499999D03*
X70199999Y86959999D03*
X67659999Y89499999D03*
X67659999Y86959999D03*
X65119999Y89499999D03*
X65119999Y86959999D03*
X62579999Y89499999D03*
X62579999Y86959999D03*
X60039999Y89499999D03*
X60039999Y86959999D03*
X57499999Y89499999D03*
X57499999Y86959999D03*
X54959999Y89499999D03*
X54959999Y86959999D03*
X52419999Y89499999D03*
X52419999Y86959999D03*
X49879999Y89499999D03*
X49879999Y86959999D03*
X47339999Y89499999D03*
X47339999Y86959999D03*
X44799999Y89499999D03*
X44799999Y86959999D03*
X42259999Y89499999D03*
X42259999Y86959999D03*
X39719999Y89499999D03*
X39719999Y86959999D03*
X37179999Y89499999D03*
X37179999Y86959999D03*
X34639999Y89499999D03*
X34639999Y86959999D03*
X32099999Y89499999D03*
X32099999Y86959999D03*
X29559999Y89499999D03*
X29559999Y86959999D03*
X27019999Y89499999D03*
X27019999Y86959999D03*
X24479999Y89499999D03*
X24479999Y86959999D03*
X21939999Y89499999D03*
X21939999Y86959999D03*
X19399999Y89499999D03*
D11*
X19399999Y86959999D03*
D12*
X77199999Y79624999D03*
D13*
X77199999Y77084999D03*
X77199999Y74544999D03*
X77199999Y72004999D03*
X77199999Y69464999D03*
X77199999Y66924999D03*
X77199999Y64384999D03*
X84819999Y64384999D03*
X84819999Y66924999D03*
X84819999Y69464999D03*
X84819999Y72004999D03*
X84819999Y74544999D03*
X84819999Y77084999D03*
X84819999Y79624999D03*
D11*
X7999999Y6459999D03*
D10*
X5459999Y6459999D03*
X7999999Y8999999D03*
X5459999Y8999999D03*
X7999999Y11539999D03*
X5459999Y11539999D03*
X7999999Y14079999D03*
X5459999Y14079999D03*
X7999999Y16619999D03*
X5459999Y16619999D03*
X7999999Y19159999D03*
X5459999Y19159999D03*
X7999999Y21699999D03*
X5459999Y21699999D03*
D16*
X32557900Y63262700D03*
X41587300Y54349000D03*
X40271300Y56638600D03*
X39627100Y50882800D03*
X36423100Y59999900D03*
X31936200Y64354300D03*
X32889200Y53518900D03*
X26925700Y46551800D03*
X24623300Y63262700D03*
D17*
X28580000Y66861900D02*
X28580000Y72500000D01*
X32179200Y63262700D02*
X28580000Y66861900D01*
X32557900Y63262700D02*
X32179200Y63262700D01*
X5460000Y11540000D02*
X5460000Y12690100D01*
X10050000Y20430000D02*
X32620000Y43000000D01*
X7581600Y20430000D02*
X10050000Y20430000D01*
X6849800Y19698200D02*
X7581600Y20430000D01*
X6849800Y18861400D02*
X6849800Y19698200D01*
X5998200Y18009800D02*
X6849800Y18861400D01*
X5200900Y18009800D02*
X5998200Y18009800D01*
X4269000Y17077900D02*
X5200900Y18009800D01*
X4269000Y13593600D02*
X4269000Y17077900D01*
X5172500Y12690100D02*
X4269000Y13593600D01*
X5460000Y12690100D02*
X5172500Y12690100D01*
X76972000Y75984900D02*
X77200000Y75984900D01*
X75760200Y74773100D02*
X76972000Y75984900D01*
X75760200Y74188200D02*
X75760200Y74773100D01*
X72382000Y70810000D02*
X75760200Y74188200D01*
X71742600Y70810000D02*
X72382000Y70810000D01*
X65550200Y64617600D02*
X71742600Y70810000D01*
X65550200Y63992500D02*
X65550200Y64617600D01*
X64747700Y63190000D02*
X65550200Y63992500D01*
X63920000Y63190000D02*
X64747700Y63190000D01*
X49612400Y48882400D02*
X63920000Y63190000D01*
X38502400Y48882400D02*
X49612400Y48882400D01*
X32620000Y43000000D02*
X38502400Y48882400D01*
X77200000Y77085000D02*
X77200000Y75984900D01*
X8000000Y9000000D02*
X6849900Y9000000D01*
X3424600Y21424600D02*
X25000000Y43000000D01*
X3424600Y9344200D02*
X3424600Y21424600D01*
X4924600Y7844200D02*
X3424600Y9344200D01*
X5981600Y7844200D02*
X4924600Y7844200D01*
X6849900Y8712500D02*
X5981600Y7844200D01*
X6849900Y9000000D02*
X6849900Y8712500D01*
X25000000Y43000000D02*
X25000000Y44150100D01*
X38615000Y57392400D02*
X38615000Y70515000D01*
X25372700Y44150100D02*
X38615000Y57392400D01*
X25000000Y44150100D02*
X25372700Y44150100D01*
X49625100Y60856700D02*
X49625100Y61095000D01*
X50571300Y59910500D02*
X49625100Y60856700D01*
X52657700Y59910500D02*
X50571300Y59910500D01*
X54200700Y61453500D02*
X52657700Y59910500D01*
X60343400Y61453500D02*
X54200700Y61453500D01*
X63349900Y64460000D02*
X60343400Y61453500D01*
X48475000Y61095000D02*
X49625100Y61095000D01*
X64450000Y64460000D02*
X63349900Y64460000D01*
X51015000Y61095000D02*
X51015000Y63635000D01*
X51015000Y63635000D02*
X51015000Y66175000D01*
X51015000Y66175000D02*
X51015000Y68715000D01*
X51015000Y68715000D02*
X51015000Y71255000D01*
X51015000Y78875000D02*
X51015000Y76335000D01*
X51015000Y76335000D02*
X51015000Y73795000D01*
X51015000Y73795000D02*
X51015000Y71255000D01*
X64222000Y70640100D02*
X64450000Y70640100D01*
X63310400Y71551700D02*
X64222000Y70640100D01*
X63310400Y74989500D02*
X63310400Y71551700D01*
X64210900Y75890000D02*
X63310400Y74989500D01*
X64745100Y75890000D02*
X64210900Y75890000D01*
X69049900Y80194800D02*
X64745100Y75890000D01*
X69049900Y84659800D02*
X69049900Y80194800D01*
X70200000Y85809900D02*
X69049900Y84659800D01*
X70200000Y86960000D02*
X70200000Y85809900D01*
X64450000Y69540000D02*
X64450000Y70640100D01*
X57250000Y73025000D02*
X57250000Y74125100D01*
X59297300Y74125100D02*
X57250000Y74125100D01*
X59297300Y73115300D02*
X59297300Y74125100D01*
X64312500Y68100100D02*
X59297300Y73115300D01*
X64450000Y68100100D02*
X64312500Y68100100D01*
X59297300Y85067200D02*
X60040000Y85809900D01*
X59297300Y74125100D02*
X59297300Y85067200D01*
X64450000Y67000000D02*
X64450000Y68100100D01*
X60040000Y86960000D02*
X60040000Y85809900D01*
X57500000Y81995100D02*
X57250000Y81745100D01*
X57500000Y86960000D02*
X57500000Y81995100D01*
X57250000Y80645000D02*
X57250000Y81745100D01*
X57022000Y79205100D02*
X57250000Y79205100D01*
X54960000Y81267100D02*
X57022000Y79205100D01*
X54960000Y86960000D02*
X54960000Y81267100D01*
X57250000Y78105000D02*
X57250000Y79205100D01*
X57022000Y76665100D02*
X57250000Y76665100D01*
X52420000Y81267100D02*
X57022000Y76665100D01*
X52420000Y86960000D02*
X52420000Y81267100D01*
X57250000Y75565000D02*
X57250000Y76665100D01*
X30080000Y43000000D02*
X31230100Y43000000D01*
X96250000Y66410000D02*
X95099900Y66410000D01*
X95099900Y65596700D02*
X95099900Y66410000D01*
X94763000Y65259800D02*
X95099900Y65596700D01*
X92731000Y65259800D02*
X94763000Y65259800D01*
X90843300Y67147500D02*
X92731000Y65259800D01*
X90843300Y80643300D02*
X90843300Y67147500D01*
X80803700Y90682900D02*
X90843300Y80643300D01*
X49426900Y90682900D02*
X80803700Y90682900D01*
X48610000Y89866000D02*
X49426900Y90682900D01*
X48610000Y89179700D02*
X48610000Y89866000D01*
X47540400Y88110100D02*
X48610000Y89179700D01*
X46812600Y88110100D02*
X47540400Y88110100D01*
X45950100Y87247600D02*
X46812600Y88110100D01*
X45950100Y86960000D02*
X45950100Y87247600D01*
X44800000Y86960000D02*
X45950100Y86960000D01*
X31230100Y43287500D02*
X31230100Y43000000D01*
X37425000Y49482400D02*
X31230100Y43287500D01*
X40319100Y49482400D02*
X37425000Y49482400D01*
X44800000Y53963300D02*
X40319100Y49482400D01*
X44800000Y86960000D02*
X44800000Y53963300D01*
X42260000Y86960000D02*
X42260000Y86485000D01*
X93710000Y66410000D02*
X93710000Y67560100D01*
X44124800Y88349800D02*
X42260000Y86485000D01*
X45338200Y88349800D02*
X44124800Y88349800D01*
X46070000Y89081600D02*
X45338200Y88349800D01*
X46070000Y89882400D02*
X46070000Y89081600D01*
X47270700Y91083100D02*
X46070000Y89882400D01*
X80981000Y91083100D02*
X47270700Y91083100D01*
X93710000Y78354100D02*
X80981000Y91083100D01*
X93710000Y67560100D02*
X93710000Y78354100D01*
X27540000Y43000000D02*
X28690100Y43000000D01*
X26474100Y41849900D02*
X27540000Y41849900D01*
X6730000Y22105800D02*
X26474100Y41849900D01*
X6730000Y21305900D02*
X6730000Y22105800D01*
X5734300Y20310200D02*
X6730000Y21305900D01*
X4944300Y20310200D02*
X5734300Y20310200D01*
X3856000Y19221900D02*
X4944300Y20310200D01*
X3856000Y11466600D02*
X3856000Y19221900D01*
X5172500Y10150100D02*
X3856000Y11466600D01*
X5460000Y10150100D02*
X5172500Y10150100D01*
X5460000Y9000000D02*
X5460000Y10150100D01*
X27540000Y43000000D02*
X27540000Y41849900D01*
X28690100Y43287500D02*
X28690100Y43000000D01*
X35285100Y49882500D02*
X28690100Y43287500D01*
X40129800Y49882500D02*
X35285100Y49882500D01*
X42260000Y52012700D02*
X40129800Y49882500D01*
X42260000Y86485000D02*
X42260000Y52012700D01*
X5460000Y21700000D02*
X5460000Y22850100D01*
X41587300Y83942600D02*
X39720000Y85809900D01*
X41587300Y54349000D02*
X41587300Y83942600D01*
X39720000Y86960000D02*
X39720000Y85809900D01*
X6495200Y22850100D02*
X5460000Y22850100D01*
X26270000Y42624900D02*
X6495200Y22850100D01*
X26270000Y43428900D02*
X26270000Y42624900D01*
X33123700Y50282600D02*
X26270000Y43428900D01*
X39941300Y50282600D02*
X33123700Y50282600D01*
X41587300Y51928600D02*
X39941300Y50282600D01*
X41587300Y54349000D02*
X41587300Y51928600D01*
X40271300Y82718600D02*
X40271300Y56638600D01*
X37180000Y85809900D02*
X40271300Y82718600D01*
X37180000Y86960000D02*
X37180000Y85809900D01*
X96250000Y90200000D02*
X95099900Y90200000D01*
X95099900Y90438300D02*
X95099900Y90200000D01*
X94068200Y91470000D02*
X95099900Y90438300D01*
X89625500Y91470000D02*
X94068200Y91470000D01*
X89204000Y91891500D02*
X89625500Y91470000D01*
X43003400Y91891500D02*
X89204000Y91891500D01*
X40990000Y89878100D02*
X43003400Y91891500D01*
X40990000Y89105900D02*
X40990000Y89878100D01*
X39994200Y88110100D02*
X40990000Y89105900D01*
X36652600Y88110100D02*
X39994200Y88110100D01*
X35790100Y87247600D02*
X36652600Y88110100D01*
X35790100Y86960000D02*
X35790100Y87247600D01*
X34640000Y86960000D02*
X35790100Y86960000D01*
X39638400Y50894100D02*
X39627100Y50882800D01*
X39638400Y77706000D02*
X39638400Y50894100D01*
X35790100Y81554300D02*
X39638400Y77706000D01*
X35790100Y86960000D02*
X35790100Y81554300D01*
X45320000Y43000000D02*
X44169900Y43000000D01*
X33489800Y84420100D02*
X32100000Y85809900D01*
X33489800Y62933200D02*
X33489800Y84420100D01*
X36423100Y59999900D02*
X33489800Y62933200D01*
X32100000Y86960000D02*
X32100000Y85809900D01*
X10470100Y19160000D02*
X8000000Y19160000D01*
X33890000Y42579900D02*
X10470100Y19160000D01*
X33890000Y43423100D02*
X33890000Y42579900D01*
X34642900Y44176000D02*
X33890000Y43423100D01*
X43232200Y44176000D02*
X34642900Y44176000D01*
X44169900Y43238300D02*
X43232200Y44176000D01*
X44169900Y43000000D02*
X44169900Y43238300D01*
X31936200Y83433700D02*
X29560000Y85809900D01*
X31936200Y64354300D02*
X31936200Y83433700D01*
X29560000Y86960000D02*
X29560000Y85809900D01*
X41629900Y42761700D02*
X41629900Y43000000D01*
X11769700Y12901500D02*
X41629900Y42761700D01*
X7490100Y12901500D02*
X11769700Y12901500D01*
X6610100Y13781500D02*
X7490100Y12901500D01*
X6610100Y14607400D02*
X6610100Y13781500D01*
X5747600Y15469900D02*
X6610100Y14607400D01*
X5460000Y15469900D02*
X5747600Y15469900D01*
X5460000Y16620000D02*
X5460000Y15469900D01*
X42780000Y43000000D02*
X41629900Y43000000D01*
X39089900Y42761700D02*
X39089900Y43000000D01*
X12948200Y16620000D02*
X39089900Y42761700D01*
X8000000Y16620000D02*
X12948200Y16620000D01*
X40240000Y43000000D02*
X39089900Y43000000D01*
X27020000Y59388100D02*
X32889200Y53518900D01*
X27020000Y86960000D02*
X27020000Y59388100D01*
X25689000Y47788500D02*
X26925700Y46551800D01*
X25689000Y84600900D02*
X25689000Y47788500D01*
X24480000Y85809900D02*
X25689000Y84600900D01*
X24480000Y86960000D02*
X24480000Y85809900D01*
X23329800Y84420100D02*
X21940000Y85809900D01*
X23329800Y64556200D02*
X23329800Y84420100D01*
X24623300Y63262700D02*
X23329800Y64556200D01*
X21940000Y86960000D02*
X21940000Y85809900D01*
X10050000Y17890000D02*
X35160000Y43000000D01*
X7581600Y17890000D02*
X10050000Y17890000D01*
X6849800Y17158200D02*
X7581600Y17890000D01*
X6849800Y16092800D02*
X6849800Y17158200D01*
X7712500Y15230100D02*
X6849800Y16092800D01*
X8000000Y15230100D02*
X7712500Y15230100D01*
X8000000Y14080000D02*
X8000000Y15230100D01*
D18*
X81779100Y88080900D02*
X81779100Y84305600D01*
X80360000Y89500000D02*
X81779100Y88080900D01*
X82750000Y83334700D02*
X82750000Y83000000D01*
X81779100Y84305600D02*
X82750000Y83334700D01*
X77200000Y69465000D02*
X78500100Y69465000D01*
X71555600Y84305600D02*
X70250000Y83000000D01*
X81779100Y84305600D02*
X71555600Y84305600D01*
X70250000Y77880000D02*
X64450000Y72080000D01*
X70250000Y83000000D02*
X70250000Y77880000D01*
X78560600Y73184400D02*
X77200000Y74545000D01*
X78560600Y70704800D02*
X78560600Y73184400D01*
X79150300Y70115200D02*
X78560600Y70704800D01*
X84820000Y77085000D02*
X83519900Y77085000D01*
X82750000Y77854900D02*
X83519900Y77085000D01*
X82750000Y83000000D02*
X82750000Y77854900D01*
X83519900Y77085000D02*
X83519900Y72005000D01*
X79150300Y70115100D02*
X83519900Y70115100D01*
X79150300Y70115200D02*
X79150300Y70115100D01*
X84820000Y72005000D02*
X83519900Y72005000D01*
X83519900Y72005000D02*
X83519900Y70115100D01*
X64450000Y61920000D02*
X65750100Y61920000D01*
X58020000Y43000000D02*
X58020000Y44350100D01*
X79150300Y70115200D02*
X78500100Y69465000D01*
X67050300Y53380400D02*
X67050300Y60619800D01*
X58020000Y44350100D02*
X67050300Y53380400D01*
X67050300Y60619800D02*
X65750100Y61920000D01*
X78500100Y65685100D02*
X77200000Y64385000D01*
X78500100Y69465000D02*
X78500100Y65685100D01*
X72622200Y60619800D02*
X67050300Y60619800D01*
X75899900Y63897500D02*
X72622200Y60619800D01*
X75899900Y64385000D02*
X75899900Y63897500D01*
X77200000Y64385000D02*
X75899900Y64385000D01*
X83519900Y68225100D02*
X84820000Y66925000D01*
X83519900Y70115100D02*
X83519900Y68225100D01*
X94892300Y49812300D02*
X96250000Y51170000D01*
X94009600Y49812300D02*
X94892300Y49812300D01*
X90989900Y52832000D02*
X94009600Y49812300D01*
X90989900Y60755100D02*
X90989900Y52832000D01*
X84820000Y66925000D02*
X90989900Y60755100D01*
X85250000Y81355100D02*
X85250000Y83000000D01*
X84820000Y80925100D02*
X85250000Y81355100D01*
X84820000Y79625000D02*
X84820000Y80925100D01*
X72750000Y81680100D02*
X72750000Y83000000D01*
X72070000Y81000100D02*
X72750000Y81680100D01*
X72070000Y79700000D02*
X72070000Y81000100D01*
X19400000Y86960000D02*
X19400000Y85609900D01*
X21960000Y83049900D02*
X21960000Y66500000D01*
X19400000Y85609900D02*
X21960000Y83049900D01*
X21960000Y44850100D02*
X22460000Y44350100D01*
X21960000Y66500000D02*
X21960000Y44850100D01*
X22460000Y43312100D02*
X22460000Y44350100D01*
X22460000Y43312100D02*
X22460000Y43000000D01*
X22460000Y43000000D02*
X22460000Y41649900D01*
X2824400Y9095600D02*
X5460000Y6460000D01*
X2824400Y22014300D02*
X2824400Y9095600D01*
X22460000Y41649900D02*
X2824400Y22014300D01*
G04 #@! TA.AperFunction,Conductor*
G36*
X33427257Y86313024D02*
G01*
X33471575Y86274158D01*
X33598395Y86093039D01*
X33598401Y86093032D01*
X33601505Y86088599D01*
X33768599Y85921505D01*
X33773031Y85918402D01*
X33773033Y85918400D01*
X33909954Y85822527D01*
X33962170Y85785965D01*
X33967070Y85783680D01*
X33967072Y85783679D01*
X33974396Y85780264D01*
X34176337Y85686097D01*
X34404592Y85624937D01*
X34640000Y85604341D01*
X34875408Y85624937D01*
X35033507Y85667300D01*
X35089791Y85669141D01*
X35141087Y85645900D01*
X35176812Y85602368D01*
X35189600Y85547524D01*
X35189600Y81601787D01*
X35188538Y81585602D01*
X35184418Y81554300D01*
X35185479Y81546241D01*
X35189600Y81514939D01*
X35203994Y81405598D01*
X35203995Y81405592D01*
X35205056Y81397538D01*
X35208165Y81390032D01*
X35208166Y81390029D01*
X35259085Y81267100D01*
X35265564Y81251459D01*
X35282926Y81228832D01*
X35355385Y81134401D01*
X35361818Y81126018D01*
X35368264Y81121072D01*
X35386869Y81106796D01*
X35399064Y81096101D01*
X39001581Y77493584D01*
X39028461Y77453356D01*
X39037900Y77405903D01*
X39037900Y71826839D01*
X39025112Y71771995D01*
X38989387Y71728463D01*
X38938092Y71705222D01*
X38881807Y71707064D01*
X38832972Y71720149D01*
X38832971Y71720150D01*
X38827747Y71721549D01*
X38822359Y71722021D01*
X38822356Y71722021D01*
X38620395Y71739690D01*
X38615000Y71740162D01*
X38609605Y71739690D01*
X38407643Y71722021D01*
X38407638Y71722021D01*
X38402253Y71721549D01*
X38397028Y71720150D01*
X38397028Y71720149D01*
X38201202Y71667679D01*
X38201190Y71667675D01*
X38195970Y71666276D01*
X38191065Y71663990D01*
X38191060Y71663987D01*
X38007329Y71578311D01*
X38007325Y71578309D01*
X38002419Y71576021D01*
X37997986Y71572918D01*
X37997979Y71572913D01*
X37831916Y71456635D01*
X37831911Y71456632D01*
X37827481Y71453529D01*
X37823657Y71449706D01*
X37823651Y71449700D01*
X37680300Y71306349D01*
X37680294Y71306343D01*
X37676471Y71302519D01*
X37673368Y71298089D01*
X37673365Y71298084D01*
X37557087Y71132021D01*
X37557082Y71132014D01*
X37553979Y71127581D01*
X37551691Y71122675D01*
X37551689Y71122671D01*
X37466013Y70938940D01*
X37466010Y70938935D01*
X37463724Y70934030D01*
X37462325Y70928810D01*
X37462321Y70928798D01*
X37424174Y70786428D01*
X37408451Y70727747D01*
X37407979Y70722362D01*
X37407979Y70722357D01*
X37395706Y70582073D01*
X37389838Y70515000D01*
X37390310Y70509605D01*
X37400945Y70388039D01*
X37408451Y70302253D01*
X37420226Y70258308D01*
X37462321Y70101203D01*
X37462324Y70101195D01*
X37463724Y70095970D01*
X37466012Y70091063D01*
X37466013Y70091061D01*
X37488771Y70042257D01*
X37553979Y69902419D01*
X37557086Y69897982D01*
X37557087Y69897980D01*
X37599662Y69837177D01*
X37676471Y69727481D01*
X37827481Y69576471D01*
X37879567Y69540000D01*
X37961623Y69482544D01*
X38000489Y69438226D01*
X38014500Y69380969D01*
X38014500Y57692497D01*
X38005061Y57645044D01*
X37978181Y57604816D01*
X33896835Y53523472D01*
X33836746Y53490262D01*
X33768199Y53494112D01*
X33712206Y53533841D01*
X33685935Y53597269D01*
X33674568Y53698155D01*
X33614989Y53868422D01*
X33519016Y54021162D01*
X33391462Y54148716D01*
X33290690Y54212035D01*
X33244612Y54240988D01*
X33238722Y54244689D01*
X33232159Y54246986D01*
X33232156Y54246987D01*
X33075025Y54301969D01*
X33068455Y54304268D01*
X33061533Y54305048D01*
X32981531Y54314062D01*
X32941613Y54325562D01*
X32907734Y54349601D01*
X27656819Y59600516D01*
X27629939Y59640744D01*
X27620500Y59688197D01*
X27620500Y71346030D01*
X27638491Y71410358D01*
X27687243Y71456019D01*
X27752610Y71469765D01*
X27815621Y71447606D01*
X27868817Y71410358D01*
X27926623Y71369882D01*
X27965489Y71325564D01*
X27979500Y71268307D01*
X27979500Y66909387D01*
X27978438Y66893202D01*
X27974318Y66861900D01*
X27979042Y66826014D01*
X27985981Y66773308D01*
X27993894Y66713199D01*
X27993895Y66713194D01*
X27994956Y66705138D01*
X28055464Y66559059D01*
X28151718Y66433618D01*
X28158164Y66428672D01*
X28176769Y66414396D01*
X28188964Y66403701D01*
X31721002Y62871662D01*
X31731696Y62859468D01*
X31745969Y62840867D01*
X31745971Y62840865D01*
X31750918Y62834418D01*
X31782412Y62810252D01*
X31782414Y62810250D01*
X31876359Y62738164D01*
X31883863Y62735056D01*
X31883868Y62735053D01*
X31979895Y62695278D01*
X32020124Y62668398D01*
X32055638Y62632884D01*
X32208378Y62536911D01*
X32378645Y62477332D01*
X32557900Y62457135D01*
X32737155Y62477332D01*
X32907422Y62536911D01*
X32911888Y62539718D01*
X32960151Y62551691D01*
X33010094Y62543208D01*
X33052477Y62515459D01*
X33056571Y62511365D01*
X33061518Y62504918D01*
X33067964Y62499972D01*
X33086569Y62485696D01*
X33098764Y62475001D01*
X35592399Y59981366D01*
X35616438Y59947487D01*
X35627938Y59907569D01*
X35636847Y59828495D01*
X35637732Y59820645D01*
X35640031Y59814076D01*
X35640031Y59814075D01*
X35695005Y59656966D01*
X35697311Y59650378D01*
X35705821Y59636835D01*
X35787230Y59507272D01*
X35793284Y59497638D01*
X35920838Y59370084D01*
X36073578Y59274111D01*
X36243845Y59214532D01*
X36423100Y59194335D01*
X36602355Y59214532D01*
X36772622Y59274111D01*
X36925362Y59370084D01*
X37052916Y59497638D01*
X37148889Y59650378D01*
X37208468Y59820645D01*
X37228665Y59999900D01*
X37208468Y60179155D01*
X37148889Y60349422D01*
X37052916Y60502162D01*
X36925362Y60629716D01*
X36896675Y60647741D01*
X36778512Y60721988D01*
X36772622Y60725689D01*
X36766059Y60727986D01*
X36766056Y60727987D01*
X36608925Y60782969D01*
X36602355Y60785268D01*
X36595433Y60786048D01*
X36515431Y60795062D01*
X36475513Y60806562D01*
X36441634Y60830601D01*
X34126619Y63145616D01*
X34099739Y63185844D01*
X34090300Y63233297D01*
X34090300Y67975000D01*
X34849838Y67975000D01*
X34850310Y67969605D01*
X34867431Y67773903D01*
X34868451Y67762253D01*
X34880226Y67718308D01*
X34922321Y67561203D01*
X34922324Y67561195D01*
X34923724Y67555970D01*
X34926012Y67551063D01*
X34926013Y67551061D01*
X34968048Y67460918D01*
X35013979Y67362419D01*
X35017086Y67357982D01*
X35017087Y67357980D01*
X35039081Y67326569D01*
X35136471Y67187481D01*
X35287481Y67036471D01*
X35462419Y66913979D01*
X35655970Y66823724D01*
X35862253Y66768451D01*
X36075000Y66749838D01*
X36287747Y66768451D01*
X36494030Y66823724D01*
X36687581Y66913979D01*
X36862519Y67036471D01*
X37013529Y67187481D01*
X37136021Y67362419D01*
X37226276Y67555970D01*
X37281549Y67762253D01*
X37300162Y67975000D01*
X37281549Y68187747D01*
X37226276Y68394030D01*
X37136021Y68587581D01*
X37013529Y68762519D01*
X36862519Y68913529D01*
X36712598Y69018504D01*
X36692020Y69032913D01*
X36692018Y69032914D01*
X36687581Y69036021D01*
X36553087Y69098737D01*
X36498939Y69123987D01*
X36498937Y69123988D01*
X36494030Y69126276D01*
X36488805Y69127676D01*
X36488797Y69127679D01*
X36337220Y69168293D01*
X36287747Y69181549D01*
X36282359Y69182021D01*
X36282356Y69182021D01*
X36080395Y69199690D01*
X36075000Y69200162D01*
X36069605Y69199690D01*
X35867643Y69182021D01*
X35867638Y69182021D01*
X35862253Y69181549D01*
X35857028Y69180150D01*
X35857028Y69180149D01*
X35661202Y69127679D01*
X35661190Y69127675D01*
X35655970Y69126276D01*
X35651065Y69123990D01*
X35651060Y69123987D01*
X35467329Y69038311D01*
X35467325Y69038309D01*
X35462419Y69036021D01*
X35457986Y69032918D01*
X35457979Y69032913D01*
X35291916Y68916635D01*
X35291911Y68916632D01*
X35287481Y68913529D01*
X35283657Y68909706D01*
X35283651Y68909700D01*
X35140300Y68766349D01*
X35140294Y68766343D01*
X35136471Y68762519D01*
X35133368Y68758089D01*
X35133365Y68758084D01*
X35017087Y68592021D01*
X35017082Y68592014D01*
X35013979Y68587581D01*
X35011691Y68582675D01*
X35011689Y68582671D01*
X34926013Y68398940D01*
X34926010Y68398935D01*
X34923724Y68394030D01*
X34922325Y68388810D01*
X34922321Y68388798D01*
X34884174Y68246428D01*
X34868451Y68187747D01*
X34867979Y68182362D01*
X34867979Y68182357D01*
X34855706Y68042073D01*
X34849838Y67975000D01*
X34090300Y67975000D01*
X34090300Y72033738D01*
X35410658Y72033738D01*
X35418089Y72025629D01*
X35458232Y71997521D01*
X35467584Y71992122D01*
X35651239Y71906483D01*
X35661363Y71902797D01*
X35857107Y71850347D01*
X35867738Y71848473D01*
X36069605Y71830812D01*
X36080395Y71830812D01*
X36282261Y71848473D01*
X36292892Y71850347D01*
X36488636Y71902797D01*
X36498760Y71906483D01*
X36682419Y71992124D01*
X36691767Y71997521D01*
X36731907Y72025627D01*
X36739339Y72033739D01*
X36733426Y72043021D01*
X36086542Y72689905D01*
X36075000Y72696569D01*
X36063457Y72689905D01*
X35416572Y72043021D01*
X35410658Y72033738D01*
X34090300Y72033738D01*
X34090300Y73049605D01*
X34850812Y73049605D01*
X34868472Y72847739D01*
X34870346Y72837108D01*
X34922796Y72641364D01*
X34926482Y72631240D01*
X35012124Y72447578D01*
X35017518Y72438236D01*
X35045626Y72398093D01*
X35053737Y72390660D01*
X35063016Y72396571D01*
X35709904Y73043458D01*
X35716568Y73055000D01*
X36433431Y73055000D01*
X36440095Y73043458D01*
X37086979Y72396574D01*
X37096261Y72390661D01*
X37104373Y72398093D01*
X37132479Y72438233D01*
X37137876Y72447581D01*
X37223517Y72631240D01*
X37227203Y72641364D01*
X37279653Y72837108D01*
X37281527Y72847739D01*
X37299188Y73049605D01*
X37299188Y73060395D01*
X37281527Y73262262D01*
X37279653Y73272893D01*
X37227203Y73468637D01*
X37223517Y73478761D01*
X37137878Y73662416D01*
X37132479Y73671768D01*
X37104371Y73711911D01*
X37096262Y73719342D01*
X37086979Y73713428D01*
X36440095Y73066543D01*
X36433431Y73055000D01*
X35716568Y73055000D01*
X35709904Y73066543D01*
X35063016Y73713431D01*
X35053738Y73719342D01*
X35045625Y73711908D01*
X35017515Y73671762D01*
X35012125Y73662425D01*
X34926482Y73478761D01*
X34922796Y73468637D01*
X34870346Y73272893D01*
X34868472Y73262262D01*
X34850812Y73060395D01*
X34850812Y73049605D01*
X34090300Y73049605D01*
X34090300Y74076262D01*
X35410658Y74076262D01*
X35416569Y74066984D01*
X36063457Y73420096D01*
X36075000Y73413432D01*
X36086542Y73420096D01*
X36733429Y74066984D01*
X36739340Y74076263D01*
X36731907Y74084374D01*
X36691764Y74112482D01*
X36682422Y74117876D01*
X36498760Y74203518D01*
X36488636Y74207204D01*
X36292892Y74259654D01*
X36282261Y74261528D01*
X36080395Y74279188D01*
X36069605Y74279188D01*
X35867738Y74261528D01*
X35857107Y74259654D01*
X35661363Y74207204D01*
X35651239Y74203518D01*
X35467575Y74117875D01*
X35458238Y74112485D01*
X35418092Y74084375D01*
X35410658Y74076262D01*
X34090300Y74076262D01*
X34090300Y84372613D01*
X34091361Y84388798D01*
X34094421Y84412041D01*
X34095482Y84420100D01*
X34074844Y84576862D01*
X34014336Y84722941D01*
X33942250Y84816885D01*
X33942250Y84816886D01*
X33923028Y84841936D01*
X33918082Y84848382D01*
X33893022Y84867611D01*
X33880834Y84878301D01*
X32992196Y85766939D01*
X32960102Y85822527D01*
X32960102Y85886714D01*
X32992193Y85942298D01*
X33138495Y86088599D01*
X33268424Y86274158D01*
X33312743Y86313024D01*
X33370000Y86327035D01*
X33427257Y86313024D01*
G37*
G04 #@! TD.AperFunction*
G04 #@! TA.AperFunction,Conductor*
G36*
X80548000Y89733387D02*
G01*
X80593387Y89688000D01*
X80610000Y89626000D01*
X80610000Y89374000D01*
X80593387Y89312000D01*
X80548000Y89266613D01*
X80486000Y89250000D01*
X77694000Y89250000D01*
X77632000Y89266613D01*
X77586613Y89312000D01*
X77570000Y89374000D01*
X77570000Y89626000D01*
X77586613Y89688000D01*
X77632000Y89733387D01*
X77694000Y89750000D01*
X80486000Y89750000D01*
X80548000Y89733387D01*
G37*
G04 #@! TD.AperFunction*
G04 #@! TA.AperFunction,Conductor*
G36*
X99438000Y99483387D02*
G01*
X99483387Y99438000D01*
X99500000Y99376000D01*
X99500000Y624000D01*
X99483387Y562000D01*
X99438000Y516613D01*
X99376000Y500000D01*
X624000Y500000D01*
X562000Y516613D01*
X516613Y562000D01*
X500000Y624000D01*
X500000Y9005406D01*
X2023900Y9005406D01*
X2025449Y8998617D01*
X2025450Y8998612D01*
X2032417Y8968082D01*
X2034745Y8954382D01*
X2038252Y8923264D01*
X2039032Y8916345D01*
X2041329Y8909779D01*
X2041330Y8909777D01*
X2051672Y8880221D01*
X2055519Y8866865D01*
X2062488Y8836333D01*
X2062491Y8836324D01*
X2064040Y8829539D01*
X2067058Y8823271D01*
X2067061Y8823264D01*
X2080650Y8795046D01*
X2085968Y8782207D01*
X2098611Y8746078D01*
X2102312Y8740188D01*
X2102313Y8740186D01*
X2118972Y8713673D01*
X2125696Y8701507D01*
X2139288Y8673285D01*
X2142309Y8667013D01*
X2166171Y8637091D01*
X2174218Y8625750D01*
X2194584Y8593338D01*
X2199512Y8588410D01*
X4081441Y6706481D01*
X4110282Y6661211D01*
X4117288Y6607993D01*
X4115364Y6586000D01*
X4104341Y6460000D01*
X4124937Y6224592D01*
X4126336Y6219370D01*
X4126337Y6219366D01*
X4184694Y6001570D01*
X4184697Y6001562D01*
X4186097Y5996337D01*
X4188385Y5991430D01*
X4188386Y5991428D01*
X4283678Y5787073D01*
X4283681Y5787067D01*
X4285965Y5782170D01*
X4289064Y5777743D01*
X4289066Y5777741D01*
X4418399Y5593034D01*
X4418402Y5593030D01*
X4421505Y5588599D01*
X4588599Y5421505D01*
X4782170Y5285965D01*
X4996337Y5186097D01*
X5224592Y5124937D01*
X5460000Y5104341D01*
X5695408Y5124937D01*
X5923663Y5186097D01*
X6137830Y5285965D01*
X6331401Y5421505D01*
X6453717Y5543822D01*
X6506460Y5575115D01*
X6567753Y5577304D01*
X6622597Y5549851D01*
X6657577Y5499472D01*
X6703548Y5376221D01*
X6711962Y5360811D01*
X6787498Y5259908D01*
X6799907Y5247499D01*
X6900810Y5171963D01*
X6916222Y5163548D01*
X7035358Y5119112D01*
X7050332Y5115574D01*
X7098885Y5110354D01*
X7105482Y5110000D01*
X7733674Y5110000D01*
X7746549Y5113451D01*
X7750000Y5126326D01*
X8250000Y5126326D01*
X8253450Y5113451D01*
X8266326Y5110000D01*
X8894518Y5110000D01*
X8901114Y5110354D01*
X8949667Y5115574D01*
X8964641Y5119112D01*
X9083777Y5163548D01*
X9099189Y5171963D01*
X9200092Y5247499D01*
X9212501Y5259908D01*
X9288037Y5360811D01*
X9296452Y5376223D01*
X9340888Y5495359D01*
X9344426Y5510333D01*
X9349646Y5558886D01*
X9350000Y5565482D01*
X9350000Y6193674D01*
X9346549Y6206550D01*
X9333674Y6210000D01*
X8266326Y6210000D01*
X8253450Y6206550D01*
X8250000Y6193674D01*
X8250000Y5126326D01*
X7750000Y5126326D01*
X7750000Y6586000D01*
X7766613Y6648000D01*
X7812000Y6693387D01*
X7874000Y6710000D01*
X9333674Y6710000D01*
X9346549Y6713451D01*
X9350000Y6726326D01*
X9350000Y7354518D01*
X9349646Y7361115D01*
X9344426Y7409668D01*
X9340888Y7424642D01*
X9296452Y7543778D01*
X9288037Y7559190D01*
X9212501Y7660093D01*
X9200092Y7672502D01*
X9099189Y7748038D01*
X9083779Y7756452D01*
X8960528Y7802423D01*
X8910149Y7837403D01*
X8882696Y7892247D01*
X8884885Y7953540D01*
X8916178Y8006283D01*
X9038495Y8128599D01*
X9174035Y8322170D01*
X9273903Y8536337D01*
X9335063Y8764592D01*
X9355659Y9000000D01*
X9335063Y9235408D01*
X9273903Y9463663D01*
X9174035Y9677829D01*
X9038495Y9871401D01*
X8871401Y10038495D01*
X8866968Y10041599D01*
X8866961Y10041605D01*
X8685842Y10168425D01*
X8646976Y10212743D01*
X8632965Y10270000D01*
X8646976Y10327257D01*
X8685842Y10371575D01*
X8866961Y10498396D01*
X8866961Y10498397D01*
X8871401Y10501505D01*
X9038495Y10668599D01*
X9174035Y10862170D01*
X9273903Y11076337D01*
X9335063Y11304592D01*
X9355659Y11540000D01*
X9335063Y11775408D01*
X9273903Y12003663D01*
X9217510Y12124596D01*
X9206158Y12185110D01*
X9225312Y12243625D01*
X9270250Y12285714D01*
X9329893Y12301000D01*
X11722213Y12301000D01*
X11738398Y12299939D01*
X11769700Y12295818D01*
X11926462Y12316456D01*
X12072541Y12376964D01*
X12127708Y12419295D01*
X12197982Y12473218D01*
X12217210Y12498278D01*
X12227889Y12510456D01*
X41706088Y41988655D01*
X41761675Y42020748D01*
X41825863Y42020748D01*
X41881450Y41988654D01*
X41908599Y41961505D01*
X42102170Y41825965D01*
X42107070Y41823680D01*
X42107072Y41823679D01*
X42120733Y41817309D01*
X42316337Y41726097D01*
X42544592Y41664937D01*
X42780000Y41644341D01*
X43015408Y41664937D01*
X43243663Y41726097D01*
X43457830Y41825965D01*
X43651401Y41961505D01*
X43818495Y42128599D01*
X43948426Y42314159D01*
X43992743Y42353024D01*
X44050000Y42367035D01*
X44107257Y42353024D01*
X44151575Y42314158D01*
X44278395Y42133039D01*
X44278401Y42133032D01*
X44281505Y42128599D01*
X44448599Y41961505D01*
X44642170Y41825965D01*
X44647070Y41823680D01*
X44647072Y41823679D01*
X44660733Y41817309D01*
X44856337Y41726097D01*
X45084592Y41664937D01*
X45320000Y41644341D01*
X45555408Y41664937D01*
X45783663Y41726097D01*
X45997830Y41825965D01*
X46191401Y41961505D01*
X46358495Y42128599D01*
X46488426Y42314159D01*
X46532743Y42353024D01*
X46590000Y42367035D01*
X46647257Y42353024D01*
X46691575Y42314158D01*
X46818395Y42133039D01*
X46818401Y42133032D01*
X46821505Y42128599D01*
X46988599Y41961505D01*
X47182170Y41825965D01*
X47187070Y41823680D01*
X47187072Y41823679D01*
X47200733Y41817309D01*
X47396337Y41726097D01*
X47624592Y41664937D01*
X47860000Y41644341D01*
X48095408Y41664937D01*
X48323663Y41726097D01*
X48537830Y41825965D01*
X48731401Y41961505D01*
X48898495Y42128599D01*
X49028426Y42314159D01*
X49072743Y42353024D01*
X49130000Y42367035D01*
X49187257Y42353024D01*
X49231575Y42314158D01*
X49358395Y42133039D01*
X49358401Y42133032D01*
X49361505Y42128599D01*
X49528599Y41961505D01*
X49722170Y41825965D01*
X49727070Y41823680D01*
X49727072Y41823679D01*
X49740733Y41817309D01*
X49936337Y41726097D01*
X50164592Y41664937D01*
X50400000Y41644341D01*
X50635408Y41664937D01*
X50863663Y41726097D01*
X51077830Y41825965D01*
X51271401Y41961505D01*
X51438495Y42128599D01*
X51568426Y42314159D01*
X51612743Y42353024D01*
X51670000Y42367035D01*
X51727257Y42353024D01*
X51771575Y42314158D01*
X51898395Y42133039D01*
X51898401Y42133032D01*
X51901505Y42128599D01*
X52068599Y41961505D01*
X52262170Y41825965D01*
X52267070Y41823680D01*
X52267072Y41823679D01*
X52280733Y41817309D01*
X52476337Y41726097D01*
X52704592Y41664937D01*
X52940000Y41644341D01*
X53175408Y41664937D01*
X53403663Y41726097D01*
X53617830Y41825965D01*
X53811401Y41961505D01*
X53978495Y42128599D01*
X54108426Y42314159D01*
X54152743Y42353024D01*
X54210000Y42367035D01*
X54267257Y42353024D01*
X54311575Y42314158D01*
X54438395Y42133039D01*
X54438401Y42133032D01*
X54441505Y42128599D01*
X54608599Y41961505D01*
X54802170Y41825965D01*
X54807070Y41823680D01*
X54807072Y41823679D01*
X54820733Y41817309D01*
X55016337Y41726097D01*
X55244592Y41664937D01*
X55480000Y41644341D01*
X55715408Y41664937D01*
X55943663Y41726097D01*
X56157830Y41825965D01*
X56351401Y41961505D01*
X56518495Y42128599D01*
X56648730Y42314595D01*
X56693048Y42353460D01*
X56750305Y42367471D01*
X56807562Y42353460D01*
X56851880Y42314595D01*
X56978784Y42133357D01*
X56985721Y42125091D01*
X57145090Y41965722D01*
X57153356Y41958785D01*
X57337991Y41829502D01*
X57347323Y41824114D01*
X57551602Y41728857D01*
X57561736Y41725169D01*
X57756219Y41673057D01*
X57767448Y41672689D01*
X57770000Y41683631D01*
X58270000Y41683631D01*
X58272551Y41672689D01*
X58283780Y41673057D01*
X58478263Y41725169D01*
X58488397Y41728857D01*
X58692676Y41824114D01*
X58702008Y41829502D01*
X58886643Y41958785D01*
X58894909Y41965722D01*
X59054278Y42125091D01*
X59061215Y42133357D01*
X59190498Y42317992D01*
X59195886Y42327324D01*
X59291143Y42531603D01*
X59294831Y42541737D01*
X59346943Y42736220D01*
X59347311Y42747449D01*
X59336369Y42750000D01*
X58286326Y42750000D01*
X58273450Y42746550D01*
X58270000Y42733674D01*
X58270000Y41683631D01*
X57770000Y41683631D01*
X57770000Y43266326D01*
X58270000Y43266326D01*
X58273450Y43253451D01*
X58286326Y43250000D01*
X59336369Y43250000D01*
X59347311Y43252552D01*
X59346943Y43263781D01*
X59294831Y43458264D01*
X59291143Y43468398D01*
X59195889Y43672668D01*
X59190491Y43682018D01*
X59061215Y43866643D01*
X59054280Y43874908D01*
X58894909Y44034279D01*
X58886643Y44041216D01*
X58702008Y44170499D01*
X58692676Y44175887D01*
X58488397Y44271144D01*
X58478263Y44274832D01*
X58283780Y44326944D01*
X58272551Y44327312D01*
X58270000Y44316369D01*
X58270000Y43266326D01*
X57770000Y43266326D01*
X57770000Y44316369D01*
X57767448Y44327312D01*
X57756219Y44326944D01*
X57561736Y44274832D01*
X57551602Y44271144D01*
X57347332Y44175890D01*
X57337982Y44170492D01*
X57153357Y44041216D01*
X57145092Y44034281D01*
X56985719Y43874908D01*
X56978788Y43866648D01*
X56851880Y43685404D01*
X56807562Y43646539D01*
X56750305Y43632528D01*
X56693048Y43646539D01*
X56648730Y43685405D01*
X56648425Y43685841D01*
X56518495Y43871401D01*
X56351401Y44038495D01*
X56346970Y44041598D01*
X56346966Y44041601D01*
X56162259Y44170934D01*
X56162257Y44170936D01*
X56157830Y44174035D01*
X56152933Y44176319D01*
X56152927Y44176322D01*
X55948572Y44271614D01*
X55948570Y44271615D01*
X55943663Y44273903D01*
X55938438Y44275303D01*
X55938430Y44275306D01*
X55720634Y44333663D01*
X55720630Y44333664D01*
X55715408Y44335063D01*
X55710020Y44335535D01*
X55710017Y44335535D01*
X55485395Y44355187D01*
X55480000Y44355659D01*
X55474605Y44355187D01*
X55249982Y44335535D01*
X55249977Y44335535D01*
X55244592Y44335063D01*
X55239371Y44333665D01*
X55239365Y44333663D01*
X55021569Y44275306D01*
X55021557Y44275302D01*
X55016337Y44273903D01*
X55011432Y44271617D01*
X55011427Y44271614D01*
X54807081Y44176325D01*
X54807077Y44176323D01*
X54802171Y44174035D01*
X54797738Y44170932D01*
X54797731Y44170927D01*
X54613034Y44041601D01*
X54613029Y44041598D01*
X54608599Y44038495D01*
X54604775Y44034672D01*
X54604769Y44034666D01*
X54445334Y43875231D01*
X54445328Y43875225D01*
X54441505Y43871401D01*
X54438402Y43866971D01*
X54438399Y43866966D01*
X54311575Y43685841D01*
X54267257Y43646975D01*
X54210000Y43632964D01*
X54152743Y43646975D01*
X54108425Y43685841D01*
X54097327Y43701690D01*
X53978495Y43871401D01*
X53811401Y44038495D01*
X53806970Y44041598D01*
X53806966Y44041601D01*
X53622259Y44170934D01*
X53622257Y44170936D01*
X53617830Y44174035D01*
X53612933Y44176319D01*
X53612927Y44176322D01*
X53408572Y44271614D01*
X53408570Y44271615D01*
X53403663Y44273903D01*
X53398438Y44275303D01*
X53398430Y44275306D01*
X53180634Y44333663D01*
X53180630Y44333664D01*
X53175408Y44335063D01*
X53170020Y44335535D01*
X53170017Y44335535D01*
X52945395Y44355187D01*
X52940000Y44355659D01*
X52934605Y44355187D01*
X52709982Y44335535D01*
X52709977Y44335535D01*
X52704592Y44335063D01*
X52699371Y44333665D01*
X52699365Y44333663D01*
X52481569Y44275306D01*
X52481557Y44275302D01*
X52476337Y44273903D01*
X52471432Y44271617D01*
X52471427Y44271614D01*
X52267081Y44176325D01*
X52267077Y44176323D01*
X52262171Y44174035D01*
X52257738Y44170932D01*
X52257731Y44170927D01*
X52073034Y44041601D01*
X52073029Y44041598D01*
X52068599Y44038495D01*
X52064775Y44034672D01*
X52064769Y44034666D01*
X51905334Y43875231D01*
X51905328Y43875225D01*
X51901505Y43871401D01*
X51898402Y43866971D01*
X51898399Y43866966D01*
X51771575Y43685841D01*
X51727257Y43646975D01*
X51670000Y43632964D01*
X51612743Y43646975D01*
X51568425Y43685841D01*
X51557327Y43701690D01*
X51438495Y43871401D01*
X51271401Y44038495D01*
X51266970Y44041598D01*
X51266966Y44041601D01*
X51082259Y44170934D01*
X51082257Y44170936D01*
X51077830Y44174035D01*
X51072933Y44176319D01*
X51072927Y44176322D01*
X50868572Y44271614D01*
X50868570Y44271615D01*
X50863663Y44273903D01*
X50858438Y44275303D01*
X50858430Y44275306D01*
X50640634Y44333663D01*
X50640630Y44333664D01*
X50635408Y44335063D01*
X50630020Y44335535D01*
X50630017Y44335535D01*
X50405395Y44355187D01*
X50400000Y44355659D01*
X50394605Y44355187D01*
X50169982Y44335535D01*
X50169977Y44335535D01*
X50164592Y44335063D01*
X50159371Y44333665D01*
X50159365Y44333663D01*
X49941569Y44275306D01*
X49941557Y44275302D01*
X49936337Y44273903D01*
X49931432Y44271617D01*
X49931427Y44271614D01*
X49727081Y44176325D01*
X49727077Y44176323D01*
X49722171Y44174035D01*
X49717738Y44170932D01*
X49717731Y44170927D01*
X49533034Y44041601D01*
X49533029Y44041598D01*
X49528599Y44038495D01*
X49524775Y44034672D01*
X49524769Y44034666D01*
X49365334Y43875231D01*
X49365328Y43875225D01*
X49361505Y43871401D01*
X49358402Y43866971D01*
X49358399Y43866966D01*
X49231575Y43685841D01*
X49187257Y43646975D01*
X49130000Y43632964D01*
X49072743Y43646975D01*
X49028425Y43685841D01*
X49017327Y43701690D01*
X48898495Y43871401D01*
X48731401Y44038495D01*
X48726970Y44041598D01*
X48726966Y44041601D01*
X48542259Y44170934D01*
X48542257Y44170936D01*
X48537830Y44174035D01*
X48532933Y44176319D01*
X48532927Y44176322D01*
X48328572Y44271614D01*
X48328570Y44271615D01*
X48323663Y44273903D01*
X48318438Y44275303D01*
X48318430Y44275306D01*
X48100634Y44333663D01*
X48100630Y44333664D01*
X48095408Y44335063D01*
X48090020Y44335535D01*
X48090017Y44335535D01*
X47865395Y44355187D01*
X47860000Y44355659D01*
X47854605Y44355187D01*
X47629982Y44335535D01*
X47629977Y44335535D01*
X47624592Y44335063D01*
X47619371Y44333665D01*
X47619365Y44333663D01*
X47401569Y44275306D01*
X47401557Y44275302D01*
X47396337Y44273903D01*
X47391432Y44271617D01*
X47391427Y44271614D01*
X47187081Y44176325D01*
X47187077Y44176323D01*
X47182171Y44174035D01*
X47177738Y44170932D01*
X47177731Y44170927D01*
X46993034Y44041601D01*
X46993029Y44041598D01*
X46988599Y44038495D01*
X46984775Y44034672D01*
X46984769Y44034666D01*
X46825334Y43875231D01*
X46825328Y43875225D01*
X46821505Y43871401D01*
X46818402Y43866971D01*
X46818399Y43866966D01*
X46691575Y43685841D01*
X46647257Y43646975D01*
X46590000Y43632964D01*
X46532743Y43646975D01*
X46488425Y43685841D01*
X46477327Y43701690D01*
X46358495Y43871401D01*
X46191401Y44038495D01*
X46186970Y44041598D01*
X46186966Y44041601D01*
X46002259Y44170934D01*
X46002257Y44170936D01*
X45997830Y44174035D01*
X45992933Y44176319D01*
X45992927Y44176322D01*
X45788572Y44271614D01*
X45788570Y44271615D01*
X45783663Y44273903D01*
X45778438Y44275303D01*
X45778430Y44275306D01*
X45560634Y44333663D01*
X45560630Y44333664D01*
X45555408Y44335063D01*
X45550020Y44335535D01*
X45550017Y44335535D01*
X45325395Y44355187D01*
X45320000Y44355659D01*
X45314605Y44355187D01*
X45089982Y44335535D01*
X45089977Y44335535D01*
X45084592Y44335063D01*
X45079371Y44333665D01*
X45079365Y44333663D01*
X44861569Y44275306D01*
X44861557Y44275302D01*
X44856337Y44273903D01*
X44851432Y44271617D01*
X44851427Y44271614D01*
X44647081Y44176325D01*
X44647077Y44176323D01*
X44642171Y44174035D01*
X44637738Y44170932D01*
X44637731Y44170927D01*
X44453035Y44041602D01*
X44453028Y44041597D01*
X44448599Y44038495D01*
X44444775Y44034672D01*
X44444763Y44034661D01*
X44421446Y44011345D01*
X44365859Y43979253D01*
X44301673Y43979255D01*
X44246087Y44011348D01*
X43690399Y44567036D01*
X43679704Y44579231D01*
X43665428Y44597836D01*
X43660482Y44604282D01*
X43535041Y44700536D01*
X43498191Y44715800D01*
X43396471Y44757934D01*
X43396468Y44757935D01*
X43388962Y44761044D01*
X43380908Y44762105D01*
X43380902Y44762106D01*
X43271561Y44776500D01*
X43240259Y44780621D01*
X43232200Y44781682D01*
X43224141Y44780621D01*
X43200898Y44777561D01*
X43184713Y44776500D01*
X35545097Y44776500D01*
X35488802Y44790015D01*
X35444779Y44827615D01*
X35422624Y44881102D01*
X35427166Y44938818D01*
X35457416Y44988181D01*
X38714816Y48245581D01*
X38755044Y48272461D01*
X38802497Y48281900D01*
X49564913Y48281900D01*
X49581098Y48280839D01*
X49612400Y48276718D01*
X49769162Y48297356D01*
X49915241Y48357864D01*
X49935676Y48373544D01*
X50040682Y48454118D01*
X50059910Y48479178D01*
X50070589Y48491356D01*
X63044190Y61464956D01*
X63094579Y61495533D01*
X63153399Y61499388D01*
X63207353Y61475648D01*
X63244249Y61429677D01*
X63317579Y61272420D01*
X63322967Y61263088D01*
X63447232Y61085619D01*
X63454169Y61077353D01*
X63607352Y60924170D01*
X63615618Y60917233D01*
X63793087Y60792968D01*
X63802419Y60787580D01*
X63998765Y60696023D01*
X64008907Y60692331D01*
X64186219Y60644821D01*
X64197448Y60644453D01*
X64200000Y60655395D01*
X64700000Y60655395D01*
X64702551Y60644453D01*
X64713780Y60644821D01*
X64891092Y60692331D01*
X64901234Y60696023D01*
X65097580Y60787580D01*
X65106912Y60792968D01*
X65284381Y60917233D01*
X65292647Y60924170D01*
X65445830Y61077353D01*
X65452767Y61085619D01*
X65577032Y61263088D01*
X65582420Y61272420D01*
X65673977Y61468766D01*
X65677669Y61478908D01*
X65725179Y61656220D01*
X65725547Y61667449D01*
X65714605Y61670000D01*
X64716326Y61670000D01*
X64703450Y61666550D01*
X64700000Y61653674D01*
X64700000Y60655395D01*
X64200000Y60655395D01*
X64200000Y62046000D01*
X64216613Y62108000D01*
X64262000Y62153387D01*
X64324000Y62170000D01*
X65714605Y62170000D01*
X65725547Y62172552D01*
X65725179Y62183781D01*
X65677669Y62361093D01*
X65673977Y62371235D01*
X65582420Y62567581D01*
X65577032Y62576913D01*
X65452767Y62754382D01*
X65445830Y62762648D01*
X65395387Y62813091D01*
X65363293Y62868678D01*
X65363293Y62932865D01*
X65395387Y62988453D01*
X65664902Y63257968D01*
X65941244Y63534311D01*
X65953422Y63544990D01*
X65978482Y63564218D01*
X66074736Y63689659D01*
X66135244Y63835738D01*
X66146460Y63920936D01*
X66155882Y63992500D01*
X66151761Y64023802D01*
X66150700Y64039987D01*
X66150700Y64317503D01*
X66160139Y64364956D01*
X66187019Y64405184D01*
X67320918Y65539083D01*
X70728242Y68946409D01*
X70778633Y68976987D01*
X70837452Y68980842D01*
X70891406Y68957103D01*
X70928302Y68911133D01*
X70937141Y68892179D01*
X70939432Y68887266D01*
X70942539Y68882829D01*
X70942540Y68882827D01*
X70995055Y68807827D01*
X71069953Y68700861D01*
X71230861Y68539953D01*
X71417266Y68409432D01*
X71422172Y68407145D01*
X71422176Y68407142D01*
X71475274Y68382382D01*
X71527450Y68336625D01*
X71546869Y68270000D01*
X71527450Y68203375D01*
X71475274Y68157618D01*
X71422176Y68132859D01*
X71422163Y68132852D01*
X71417266Y68130568D01*
X71412833Y68127465D01*
X71412826Y68127460D01*
X71235296Y68003153D01*
X71235291Y68003150D01*
X71230861Y68000047D01*
X71227037Y67996224D01*
X71227031Y67996218D01*
X71073782Y67842969D01*
X71073776Y67842963D01*
X71069953Y67839139D01*
X71066850Y67834709D01*
X71066847Y67834704D01*
X70942540Y67657174D01*
X70942535Y67657167D01*
X70939432Y67652734D01*
X70937144Y67647828D01*
X70937142Y67647824D01*
X70845550Y67451406D01*
X70845547Y67451401D01*
X70843261Y67446496D01*
X70841862Y67441276D01*
X70841858Y67441264D01*
X70785764Y67231917D01*
X70785762Y67231906D01*
X70784365Y67226692D01*
X70783893Y67221307D01*
X70783893Y67221302D01*
X70768058Y67040301D01*
X70764532Y67000000D01*
X70765004Y66994605D01*
X70783788Y66779897D01*
X70784365Y66773308D01*
X70785762Y66768093D01*
X70785764Y66768084D01*
X70841858Y66558737D01*
X70841861Y66558729D01*
X70843261Y66553504D01*
X70845549Y66548597D01*
X70845550Y66548595D01*
X70907551Y66415635D01*
X70939432Y66347266D01*
X70942539Y66342829D01*
X70942540Y66342827D01*
X70995055Y66267827D01*
X71069953Y66160861D01*
X71230861Y65999953D01*
X71417266Y65869432D01*
X71422172Y65867145D01*
X71422176Y65867142D01*
X71475274Y65842382D01*
X71527450Y65796625D01*
X71546869Y65730000D01*
X71527450Y65663375D01*
X71475274Y65617618D01*
X71422176Y65592859D01*
X71422163Y65592852D01*
X71417266Y65590568D01*
X71412833Y65587465D01*
X71412826Y65587460D01*
X71235296Y65463153D01*
X71235291Y65463150D01*
X71230861Y65460047D01*
X71227037Y65456224D01*
X71227031Y65456218D01*
X71073782Y65302969D01*
X71073776Y65302963D01*
X71069953Y65299139D01*
X71066850Y65294709D01*
X71066847Y65294704D01*
X70942540Y65117174D01*
X70942535Y65117167D01*
X70939432Y65112734D01*
X70937144Y65107828D01*
X70937142Y65107824D01*
X70845550Y64911406D01*
X70845547Y64911401D01*
X70843261Y64906496D01*
X70841862Y64901276D01*
X70841858Y64901264D01*
X70785764Y64691917D01*
X70785762Y64691906D01*
X70784365Y64686692D01*
X70783893Y64681307D01*
X70783893Y64681302D01*
X70765004Y64465395D01*
X70764532Y64460000D01*
X70765004Y64454605D01*
X70783133Y64247382D01*
X70784365Y64233308D01*
X70785762Y64228093D01*
X70785764Y64228084D01*
X70841858Y64018737D01*
X70841861Y64018729D01*
X70843261Y64013504D01*
X70939432Y63807266D01*
X70942539Y63802829D01*
X70942540Y63802827D01*
X70995055Y63727827D01*
X71069953Y63620861D01*
X71230861Y63459953D01*
X71417266Y63329432D01*
X71422172Y63327145D01*
X71422176Y63327142D01*
X71475274Y63302382D01*
X71527450Y63256625D01*
X71546869Y63190000D01*
X71527450Y63123375D01*
X71475274Y63077618D01*
X71422176Y63052859D01*
X71422163Y63052852D01*
X71417266Y63050568D01*
X71412833Y63047465D01*
X71412826Y63047460D01*
X71235296Y62923153D01*
X71235291Y62923150D01*
X71230861Y62920047D01*
X71227037Y62916224D01*
X71227031Y62916218D01*
X71073782Y62762969D01*
X71073776Y62762963D01*
X71069953Y62759139D01*
X71066850Y62754709D01*
X71066847Y62754704D01*
X70942540Y62577174D01*
X70942535Y62577167D01*
X70939432Y62572734D01*
X70937144Y62567828D01*
X70937142Y62567824D01*
X70845550Y62371406D01*
X70845547Y62371401D01*
X70843261Y62366496D01*
X70841862Y62361276D01*
X70841858Y62361264D01*
X70785764Y62151917D01*
X70785762Y62151906D01*
X70784365Y62146692D01*
X70783893Y62141307D01*
X70783893Y62141302D01*
X70765004Y61925395D01*
X70764532Y61920000D01*
X70765004Y61914605D01*
X70770067Y61856729D01*
X70784365Y61693308D01*
X70785762Y61688093D01*
X70785764Y61688084D01*
X70841858Y61478737D01*
X70841861Y61478729D01*
X70843261Y61473504D01*
X70939432Y61267266D01*
X71069953Y61080861D01*
X71230861Y60919953D01*
X71417266Y60789432D01*
X71623504Y60693261D01*
X71628734Y60691860D01*
X71628736Y60691859D01*
X71776858Y60652170D01*
X71843308Y60634365D01*
X72070000Y60614532D01*
X72296692Y60634365D01*
X72516496Y60693261D01*
X72722734Y60789432D01*
X72909139Y60919953D01*
X73070047Y61080861D01*
X73200568Y61267266D01*
X73296739Y61473504D01*
X73355635Y61693308D01*
X73375468Y61920000D01*
X73355635Y62146692D01*
X73324357Y62263425D01*
X73298141Y62361264D01*
X73298140Y62361266D01*
X73296739Y62366496D01*
X73200568Y62572734D01*
X73070047Y62759139D01*
X72909139Y62920047D01*
X72722734Y63050568D01*
X72664724Y63077619D01*
X72612549Y63123375D01*
X72593130Y63190000D01*
X72612549Y63256625D01*
X72664725Y63302382D01*
X72673050Y63306264D01*
X72722734Y63329432D01*
X72909139Y63459953D01*
X73070047Y63620861D01*
X73200568Y63807266D01*
X73296739Y64013504D01*
X73328610Y64132449D01*
X75924452Y64132449D01*
X75924820Y64121220D01*
X75972330Y63943908D01*
X75976022Y63933766D01*
X76067579Y63737420D01*
X76072967Y63728088D01*
X76197232Y63550619D01*
X76204169Y63542353D01*
X76357352Y63389170D01*
X76365618Y63382233D01*
X76543087Y63257968D01*
X76552419Y63252580D01*
X76748765Y63161023D01*
X76758907Y63157331D01*
X76936219Y63109821D01*
X76947448Y63109453D01*
X76950000Y63120395D01*
X77450000Y63120395D01*
X77452551Y63109453D01*
X77463780Y63109821D01*
X77641092Y63157331D01*
X77651234Y63161023D01*
X77847580Y63252580D01*
X77856912Y63257968D01*
X78034381Y63382233D01*
X78042647Y63389170D01*
X78195830Y63542353D01*
X78202767Y63550619D01*
X78327032Y63728088D01*
X78332420Y63737420D01*
X78423977Y63933766D01*
X78427669Y63943908D01*
X78475179Y64121220D01*
X78475547Y64132449D01*
X78464605Y64135000D01*
X77466326Y64135000D01*
X77453450Y64131550D01*
X77450000Y64118674D01*
X77450000Y63120395D01*
X76950000Y63120395D01*
X76950000Y64118674D01*
X76946549Y64131550D01*
X76933674Y64135000D01*
X75935395Y64135000D01*
X75924452Y64132449D01*
X73328610Y64132449D01*
X73355635Y64233308D01*
X73368906Y64385000D01*
X83514532Y64385000D01*
X83515004Y64379605D01*
X83532900Y64175045D01*
X83534365Y64158308D01*
X83535762Y64153093D01*
X83535764Y64153084D01*
X83591858Y63943737D01*
X83591861Y63943729D01*
X83593261Y63938504D01*
X83689432Y63732266D01*
X83692539Y63727829D01*
X83692540Y63727827D01*
X83712232Y63699704D01*
X83819953Y63545861D01*
X83980861Y63384953D01*
X84167266Y63254432D01*
X84373504Y63158261D01*
X84378734Y63156860D01*
X84378736Y63156859D01*
X84554285Y63109821D01*
X84593308Y63099365D01*
X84820000Y63079532D01*
X85046692Y63099365D01*
X85266496Y63158261D01*
X85472734Y63254432D01*
X85659139Y63384953D01*
X85820047Y63545861D01*
X85950568Y63732266D01*
X86046739Y63938504D01*
X86105635Y64158308D01*
X86125468Y64385000D01*
X86105635Y64611692D01*
X86046739Y64831496D01*
X85950568Y65037734D01*
X85820047Y65224139D01*
X85659139Y65385047D01*
X85505335Y65492741D01*
X85477173Y65512460D01*
X85477171Y65512461D01*
X85472734Y65515568D01*
X85467831Y65517855D01*
X85467823Y65517859D01*
X85414134Y65542894D01*
X85361958Y65588651D01*
X85342539Y65655277D01*
X85361959Y65721902D01*
X85414135Y65767659D01*
X85467585Y65792583D01*
X85476912Y65797968D01*
X85654381Y65922233D01*
X85662647Y65929170D01*
X85815830Y66082353D01*
X85822767Y66090619D01*
X85947032Y66268088D01*
X85952420Y66277420D01*
X86043977Y66473766D01*
X86047669Y66483908D01*
X86095179Y66661220D01*
X86095547Y66672449D01*
X86084605Y66675000D01*
X83555395Y66675000D01*
X83544452Y66672449D01*
X83544820Y66661220D01*
X83592330Y66483908D01*
X83596022Y66473766D01*
X83687579Y66277420D01*
X83692967Y66268088D01*
X83817232Y66090619D01*
X83824169Y66082353D01*
X83977352Y65929170D01*
X83985618Y65922233D01*
X84163087Y65797968D01*
X84172423Y65792578D01*
X84225864Y65767658D01*
X84278040Y65721902D01*
X84297460Y65655277D01*
X84278041Y65588652D01*
X84225866Y65542894D01*
X84216656Y65538599D01*
X84167266Y65515568D01*
X84162833Y65512465D01*
X84162826Y65512460D01*
X83985296Y65388153D01*
X83985291Y65388150D01*
X83980861Y65385047D01*
X83977037Y65381224D01*
X83977031Y65381218D01*
X83823782Y65227969D01*
X83823776Y65227963D01*
X83819953Y65224139D01*
X83816850Y65219709D01*
X83816847Y65219704D01*
X83692540Y65042174D01*
X83692535Y65042167D01*
X83689432Y65037734D01*
X83687144Y65032828D01*
X83687142Y65032824D01*
X83595550Y64836406D01*
X83595547Y64836401D01*
X83593261Y64831496D01*
X83591862Y64826276D01*
X83591858Y64826264D01*
X83535764Y64616917D01*
X83535762Y64616906D01*
X83534365Y64611692D01*
X83533893Y64606307D01*
X83533893Y64606302D01*
X83528348Y64542919D01*
X83514532Y64385000D01*
X73368906Y64385000D01*
X73375468Y64460000D01*
X73355635Y64686692D01*
X73351045Y64703822D01*
X73298141Y64901264D01*
X73298140Y64901266D01*
X73296739Y64906496D01*
X73200568Y65112734D01*
X73070047Y65299139D01*
X72909139Y65460047D01*
X72722734Y65590568D01*
X72664724Y65617619D01*
X72612549Y65663375D01*
X72593130Y65730000D01*
X72612549Y65796625D01*
X72664725Y65842382D01*
X72673050Y65846264D01*
X72722734Y65869432D01*
X72909139Y65999953D01*
X73070047Y66160861D01*
X73200568Y66347266D01*
X73296739Y66553504D01*
X73355635Y66773308D01*
X73368906Y66925000D01*
X75894532Y66925000D01*
X75895004Y66919605D01*
X75912535Y66719218D01*
X75914365Y66698308D01*
X75915762Y66693093D01*
X75915764Y66693084D01*
X75971858Y66483737D01*
X75971861Y66483729D01*
X75973261Y66478504D01*
X75975549Y66473597D01*
X75975550Y66473595D01*
X75994192Y66433618D01*
X76069432Y66272266D01*
X76072539Y66267829D01*
X76072540Y66267827D01*
X76092232Y66239704D01*
X76199953Y66085861D01*
X76360861Y65924953D01*
X76547266Y65794432D01*
X76552175Y65792143D01*
X76552180Y65792140D01*
X76605864Y65767107D01*
X76658040Y65721351D01*
X76677460Y65654726D01*
X76658041Y65588101D01*
X76605866Y65542343D01*
X76552416Y65517419D01*
X76543087Y65512033D01*
X76365618Y65387768D01*
X76357352Y65380831D01*
X76204169Y65227648D01*
X76197232Y65219382D01*
X76072967Y65041913D01*
X76067579Y65032581D01*
X75976022Y64836235D01*
X75972330Y64826093D01*
X75924820Y64648781D01*
X75924452Y64637552D01*
X75935395Y64635000D01*
X78464605Y64635000D01*
X78475547Y64637552D01*
X78475179Y64648781D01*
X78427669Y64826093D01*
X78423977Y64836235D01*
X78332420Y65032581D01*
X78327032Y65041913D01*
X78202767Y65219382D01*
X78195830Y65227648D01*
X78042647Y65380831D01*
X78034381Y65387768D01*
X77856912Y65512033D01*
X77847579Y65517421D01*
X77794134Y65542343D01*
X77741958Y65588101D01*
X77722539Y65654726D01*
X77741959Y65721351D01*
X77794131Y65767106D01*
X77852734Y65794432D01*
X78039139Y65924953D01*
X78200047Y66085861D01*
X78330568Y66272266D01*
X78426739Y66478504D01*
X78485635Y66698308D01*
X78505468Y66925000D01*
X78485635Y67151692D01*
X78430361Y67357980D01*
X78428141Y67366264D01*
X78428140Y67366266D01*
X78426739Y67371496D01*
X78330568Y67577734D01*
X78200047Y67764139D01*
X78039139Y67925047D01*
X77885335Y68032741D01*
X77857173Y68052460D01*
X77857171Y68052461D01*
X77852734Y68055568D01*
X77847831Y68057855D01*
X77847823Y68057859D01*
X77794134Y68082894D01*
X77741958Y68128651D01*
X77722539Y68195277D01*
X77741959Y68261902D01*
X77794135Y68307659D01*
X77847585Y68332583D01*
X77856912Y68337968D01*
X78034381Y68462233D01*
X78042647Y68469170D01*
X78195830Y68622353D01*
X78202767Y68630619D01*
X78327032Y68808088D01*
X78332420Y68817420D01*
X78423977Y69013766D01*
X78427669Y69023908D01*
X78475179Y69201220D01*
X78475547Y69212449D01*
X78464605Y69215000D01*
X75935395Y69215000D01*
X75924452Y69212449D01*
X75924820Y69201220D01*
X75972330Y69023908D01*
X75976022Y69013766D01*
X76067579Y68817420D01*
X76072967Y68808088D01*
X76197232Y68630619D01*
X76204169Y68622353D01*
X76357352Y68469170D01*
X76365618Y68462233D01*
X76543087Y68337968D01*
X76552423Y68332578D01*
X76605864Y68307658D01*
X76658040Y68261902D01*
X76677460Y68195277D01*
X76658041Y68128652D01*
X76605866Y68082894D01*
X76604024Y68082035D01*
X76547266Y68055568D01*
X76542833Y68052465D01*
X76542826Y68052460D01*
X76365296Y67928153D01*
X76365291Y67928150D01*
X76360861Y67925047D01*
X76357037Y67921224D01*
X76357031Y67921218D01*
X76203782Y67767969D01*
X76203776Y67767963D01*
X76199953Y67764139D01*
X76196850Y67759709D01*
X76196847Y67759704D01*
X76072540Y67582174D01*
X76072535Y67582167D01*
X76069432Y67577734D01*
X76067144Y67572828D01*
X76067142Y67572824D01*
X75975550Y67376406D01*
X75975547Y67376401D01*
X75973261Y67371496D01*
X75971862Y67366276D01*
X75971858Y67366264D01*
X75915764Y67156917D01*
X75915762Y67156906D01*
X75914365Y67151692D01*
X75913893Y67146307D01*
X75913893Y67146302D01*
X75904284Y67036471D01*
X75894532Y66925000D01*
X73368906Y66925000D01*
X73375468Y67000000D01*
X73355635Y67226692D01*
X73324357Y67343425D01*
X73298141Y67441264D01*
X73298140Y67441266D01*
X73296739Y67446496D01*
X73200568Y67652734D01*
X73070047Y67839139D01*
X72909139Y68000047D01*
X72722734Y68130568D01*
X72664724Y68157619D01*
X72612549Y68203375D01*
X72593130Y68270000D01*
X72612549Y68336625D01*
X72664725Y68382382D01*
X72673050Y68386264D01*
X72722734Y68409432D01*
X72909139Y68539953D01*
X73070047Y68700861D01*
X73200568Y68887266D01*
X73296739Y69093504D01*
X73355635Y69313308D01*
X73368906Y69465000D01*
X83514532Y69465000D01*
X83515004Y69459605D01*
X83527331Y69318699D01*
X83534365Y69238308D01*
X83535762Y69233093D01*
X83535764Y69233084D01*
X83591858Y69023737D01*
X83591861Y69023729D01*
X83593261Y69018504D01*
X83689432Y68812266D01*
X83692539Y68807829D01*
X83692540Y68807827D01*
X83712232Y68779704D01*
X83819953Y68625861D01*
X83980861Y68464953D01*
X84167266Y68334432D01*
X84172175Y68332143D01*
X84172180Y68332140D01*
X84225864Y68307107D01*
X84278040Y68261351D01*
X84297460Y68194726D01*
X84278041Y68128101D01*
X84225866Y68082343D01*
X84172416Y68057419D01*
X84163087Y68052033D01*
X83985618Y67927768D01*
X83977352Y67920831D01*
X83824169Y67767648D01*
X83817232Y67759382D01*
X83692967Y67581913D01*
X83687579Y67572581D01*
X83596022Y67376235D01*
X83592330Y67366093D01*
X83544820Y67188781D01*
X83544452Y67177552D01*
X83555395Y67175000D01*
X86084605Y67175000D01*
X86095547Y67177552D01*
X86095179Y67188781D01*
X86047669Y67366093D01*
X86043977Y67376235D01*
X85952420Y67572581D01*
X85947032Y67581913D01*
X85822767Y67759382D01*
X85815830Y67767648D01*
X85662647Y67920831D01*
X85654381Y67927768D01*
X85476912Y68052033D01*
X85467579Y68057421D01*
X85414134Y68082343D01*
X85361958Y68128101D01*
X85342539Y68194726D01*
X85361959Y68261351D01*
X85414131Y68307106D01*
X85472734Y68334432D01*
X85659139Y68464953D01*
X85820047Y68625861D01*
X85950568Y68812266D01*
X86046739Y69018504D01*
X86105635Y69238308D01*
X86125468Y69465000D01*
X86105635Y69691692D01*
X86046739Y69911496D01*
X85950568Y70117734D01*
X85820047Y70304139D01*
X85659139Y70465047D01*
X85505335Y70572741D01*
X85477173Y70592460D01*
X85477171Y70592461D01*
X85472734Y70595568D01*
X85467831Y70597855D01*
X85467823Y70597859D01*
X85414134Y70622894D01*
X85361958Y70668651D01*
X85342539Y70735277D01*
X85361959Y70801902D01*
X85414135Y70847659D01*
X85467585Y70872583D01*
X85476912Y70877968D01*
X85654381Y71002233D01*
X85662647Y71009170D01*
X85815830Y71162353D01*
X85822767Y71170619D01*
X85947032Y71348088D01*
X85952420Y71357420D01*
X86043977Y71553766D01*
X86047669Y71563908D01*
X86095179Y71741220D01*
X86095547Y71752449D01*
X86084605Y71755000D01*
X83555395Y71755000D01*
X83544452Y71752449D01*
X83544820Y71741220D01*
X83592330Y71563908D01*
X83596022Y71553766D01*
X83687579Y71357420D01*
X83692967Y71348088D01*
X83817232Y71170619D01*
X83824169Y71162353D01*
X83977352Y71009170D01*
X83985618Y71002233D01*
X84163087Y70877968D01*
X84172423Y70872578D01*
X84225864Y70847658D01*
X84278040Y70801902D01*
X84297460Y70735277D01*
X84278041Y70668652D01*
X84225866Y70622894D01*
X84224024Y70622035D01*
X84167266Y70595568D01*
X84162833Y70592465D01*
X84162826Y70592460D01*
X83985296Y70468153D01*
X83985291Y70468150D01*
X83980861Y70465047D01*
X83977037Y70461224D01*
X83977031Y70461218D01*
X83823782Y70307969D01*
X83823776Y70307963D01*
X83819953Y70304139D01*
X83816850Y70299709D01*
X83816847Y70299704D01*
X83692540Y70122174D01*
X83692535Y70122167D01*
X83689432Y70117734D01*
X83687144Y70112828D01*
X83687142Y70112824D01*
X83595550Y69916406D01*
X83595547Y69916401D01*
X83593261Y69911496D01*
X83591862Y69906276D01*
X83591858Y69906264D01*
X83535764Y69696917D01*
X83535762Y69696906D01*
X83534365Y69691692D01*
X83533893Y69686307D01*
X83533893Y69686302D01*
X83524284Y69576471D01*
X83514532Y69465000D01*
X73368906Y69465000D01*
X73375468Y69540000D01*
X73355635Y69766692D01*
X73324356Y69883426D01*
X73298141Y69981264D01*
X73298140Y69981266D01*
X73296739Y69986496D01*
X73200568Y70192734D01*
X73070047Y70379139D01*
X73022891Y70426295D01*
X72990797Y70481882D01*
X72990797Y70546070D01*
X73022891Y70601657D01*
X76076197Y73654963D01*
X76131784Y73687057D01*
X76195972Y73687057D01*
X76251559Y73654963D01*
X76357352Y73549170D01*
X76365618Y73542233D01*
X76543087Y73417968D01*
X76552423Y73412578D01*
X76605864Y73387658D01*
X76658040Y73341902D01*
X76677460Y73275277D01*
X76658041Y73208652D01*
X76605866Y73162894D01*
X76604024Y73162035D01*
X76547266Y73135568D01*
X76542833Y73132465D01*
X76542826Y73132460D01*
X76365296Y73008153D01*
X76365291Y73008150D01*
X76360861Y73005047D01*
X76357037Y73001224D01*
X76357031Y73001218D01*
X76203782Y72847969D01*
X76203776Y72847963D01*
X76199953Y72844139D01*
X76196850Y72839709D01*
X76196847Y72839704D01*
X76072540Y72662174D01*
X76072535Y72662167D01*
X76069432Y72657734D01*
X76067144Y72652828D01*
X76067142Y72652824D01*
X75975550Y72456406D01*
X75975547Y72456401D01*
X75973261Y72451496D01*
X75971862Y72446276D01*
X75971858Y72446264D01*
X75915764Y72236917D01*
X75915762Y72236906D01*
X75914365Y72231692D01*
X75913893Y72226307D01*
X75913893Y72226302D01*
X75898346Y72048595D01*
X75894532Y72005000D01*
X75895004Y71999605D01*
X75910065Y71827449D01*
X75914365Y71778308D01*
X75915762Y71773093D01*
X75915764Y71773084D01*
X75971858Y71563737D01*
X75971861Y71563729D01*
X75973261Y71558504D01*
X76069432Y71352266D01*
X76072539Y71347829D01*
X76072540Y71347827D01*
X76092232Y71319704D01*
X76199953Y71165861D01*
X76360861Y71004953D01*
X76547266Y70874432D01*
X76552175Y70872143D01*
X76552180Y70872140D01*
X76605864Y70847107D01*
X76658040Y70801351D01*
X76677460Y70734726D01*
X76658041Y70668101D01*
X76605866Y70622343D01*
X76552416Y70597419D01*
X76543087Y70592033D01*
X76365618Y70467768D01*
X76357352Y70460831D01*
X76204169Y70307648D01*
X76197232Y70299382D01*
X76072967Y70121913D01*
X76067579Y70112581D01*
X75976022Y69916235D01*
X75972330Y69906093D01*
X75924820Y69728781D01*
X75924452Y69717552D01*
X75935395Y69715000D01*
X78464605Y69715000D01*
X78475547Y69717552D01*
X78475179Y69728781D01*
X78427669Y69906093D01*
X78423977Y69916235D01*
X78332420Y70112581D01*
X78327032Y70121913D01*
X78202767Y70299382D01*
X78195830Y70307648D01*
X78042647Y70460831D01*
X78034381Y70467768D01*
X77856912Y70592033D01*
X77847579Y70597421D01*
X77794134Y70622343D01*
X77741958Y70668101D01*
X77722539Y70734726D01*
X77741959Y70801351D01*
X77794131Y70847106D01*
X77852734Y70874432D01*
X78039139Y71004953D01*
X78200047Y71165861D01*
X78330568Y71352266D01*
X78426739Y71558504D01*
X78485635Y71778308D01*
X78505468Y72005000D01*
X78485635Y72231692D01*
X78426739Y72451496D01*
X78330568Y72657734D01*
X78200047Y72844139D01*
X78039139Y73005047D01*
X77881680Y73115300D01*
X77857173Y73132460D01*
X77857171Y73132461D01*
X77852734Y73135568D01*
X77847831Y73137855D01*
X77847823Y73137859D01*
X77794134Y73162894D01*
X77741958Y73208651D01*
X77722539Y73275277D01*
X77741959Y73341902D01*
X77794135Y73387659D01*
X77847585Y73412583D01*
X77856912Y73417968D01*
X78034381Y73542233D01*
X78042647Y73549170D01*
X78195830Y73702353D01*
X78202767Y73710619D01*
X78327032Y73888088D01*
X78332420Y73897420D01*
X78423977Y74093766D01*
X78427669Y74103908D01*
X78475179Y74281220D01*
X78475547Y74292449D01*
X78464605Y74295000D01*
X77074000Y74295000D01*
X77012000Y74311613D01*
X76966613Y74357000D01*
X76950000Y74419000D01*
X76950000Y74545000D01*
X83514532Y74545000D01*
X83515004Y74539605D01*
X83527331Y74398699D01*
X83534365Y74318308D01*
X83535762Y74313093D01*
X83535764Y74313084D01*
X83591858Y74103737D01*
X83591861Y74103729D01*
X83593261Y74098504D01*
X83595549Y74093597D01*
X83595550Y74093595D01*
X83599850Y74084374D01*
X83689432Y73892266D01*
X83692539Y73887829D01*
X83692540Y73887827D01*
X83753760Y73800395D01*
X83819953Y73705861D01*
X83980861Y73544953D01*
X84167266Y73414432D01*
X84172175Y73412143D01*
X84172180Y73412140D01*
X84225864Y73387107D01*
X84278040Y73341351D01*
X84297460Y73274726D01*
X84278041Y73208101D01*
X84225866Y73162343D01*
X84172416Y73137419D01*
X84163087Y73132033D01*
X83985618Y73007768D01*
X83977352Y73000831D01*
X83824169Y72847648D01*
X83817232Y72839382D01*
X83692967Y72661913D01*
X83687579Y72652581D01*
X83596022Y72456235D01*
X83592330Y72446093D01*
X83544820Y72268781D01*
X83544452Y72257552D01*
X83555395Y72255000D01*
X86084605Y72255000D01*
X86095547Y72257552D01*
X86095179Y72268781D01*
X86047669Y72446093D01*
X86043977Y72456235D01*
X85952420Y72652581D01*
X85947032Y72661913D01*
X85822767Y72839382D01*
X85815830Y72847648D01*
X85662647Y73000831D01*
X85654381Y73007768D01*
X85476912Y73132033D01*
X85467579Y73137421D01*
X85414134Y73162343D01*
X85361958Y73208101D01*
X85342539Y73274726D01*
X85361959Y73341351D01*
X85414131Y73387106D01*
X85472734Y73414432D01*
X85659139Y73544953D01*
X85820047Y73705861D01*
X85950568Y73892266D01*
X86046739Y74098504D01*
X86105635Y74318308D01*
X86125468Y74545000D01*
X86105635Y74771692D01*
X86101373Y74787599D01*
X86048141Y74986264D01*
X86048140Y74986266D01*
X86046739Y74991496D01*
X85950568Y75197734D01*
X85820047Y75384139D01*
X85659139Y75545047D01*
X85505335Y75652741D01*
X85477173Y75672460D01*
X85477171Y75672461D01*
X85472734Y75675568D01*
X85467831Y75677855D01*
X85467823Y75677859D01*
X85414134Y75702894D01*
X85361958Y75748651D01*
X85342539Y75815277D01*
X85361959Y75881902D01*
X85414135Y75927659D01*
X85467585Y75952583D01*
X85476912Y75957968D01*
X85654381Y76082233D01*
X85662647Y76089170D01*
X85815830Y76242353D01*
X85822767Y76250619D01*
X85947032Y76428088D01*
X85952420Y76437420D01*
X86043977Y76633766D01*
X86047669Y76643908D01*
X86095179Y76821220D01*
X86095547Y76832449D01*
X86084605Y76835000D01*
X83555395Y76835000D01*
X83544452Y76832449D01*
X83544820Y76821220D01*
X83592330Y76643908D01*
X83596022Y76633766D01*
X83687579Y76437420D01*
X83692967Y76428088D01*
X83817232Y76250619D01*
X83824169Y76242353D01*
X83977352Y76089170D01*
X83985618Y76082233D01*
X84163087Y75957968D01*
X84172423Y75952578D01*
X84225864Y75927658D01*
X84278040Y75881902D01*
X84297460Y75815277D01*
X84278041Y75748652D01*
X84225865Y75702894D01*
X84167266Y75675568D01*
X84162833Y75672465D01*
X84162826Y75672460D01*
X83985296Y75548153D01*
X83985291Y75548150D01*
X83980861Y75545047D01*
X83977037Y75541224D01*
X83977031Y75541218D01*
X83823782Y75387969D01*
X83823776Y75387963D01*
X83819953Y75384139D01*
X83816850Y75379709D01*
X83816847Y75379704D01*
X83692540Y75202174D01*
X83692535Y75202167D01*
X83689432Y75197734D01*
X83687144Y75192828D01*
X83687142Y75192824D01*
X83595550Y74996406D01*
X83595547Y74996401D01*
X83593261Y74991496D01*
X83591862Y74986276D01*
X83591858Y74986264D01*
X83535764Y74776917D01*
X83535762Y74776906D01*
X83534365Y74771692D01*
X83533893Y74766307D01*
X83533893Y74766302D01*
X83525488Y74670231D01*
X83514532Y74545000D01*
X76950000Y74545000D01*
X76950000Y74671000D01*
X76966613Y74733000D01*
X77012000Y74778387D01*
X77074000Y74795000D01*
X78464605Y74795000D01*
X78475547Y74797552D01*
X78475179Y74808781D01*
X78427669Y74986093D01*
X78423977Y74996235D01*
X78332420Y75192581D01*
X78327032Y75201913D01*
X78202767Y75379382D01*
X78195830Y75387648D01*
X78042647Y75540831D01*
X78034381Y75547768D01*
X77856912Y75672033D01*
X77842890Y75680128D01*
X77843521Y75681222D01*
X77804544Y75712047D01*
X77780378Y75763880D01*
X77782039Y75820885D01*
X77785044Y75828138D01*
X77789566Y75862490D01*
X77809402Y75915194D01*
X77849874Y75953099D01*
X77852734Y75954432D01*
X78039139Y76084953D01*
X78200047Y76245861D01*
X78330568Y76432266D01*
X78426739Y76638504D01*
X78485635Y76858308D01*
X78505468Y77085000D01*
X78485635Y77311692D01*
X78447969Y77452266D01*
X78428141Y77526264D01*
X78428140Y77526266D01*
X78426739Y77531496D01*
X78330568Y77737734D01*
X78200047Y77924139D01*
X78039139Y78085047D01*
X78014535Y78102275D01*
X77975398Y78147117D01*
X77961665Y78205031D01*
X77976499Y78262672D01*
X78016485Y78306761D01*
X78072406Y78327139D01*
X78107483Y78330909D01*
X78242331Y78381204D01*
X78357546Y78467454D01*
X78443796Y78582669D01*
X78494091Y78717517D01*
X78500500Y78777127D01*
X78500499Y80472872D01*
X78494091Y80532483D01*
X78443796Y80667331D01*
X78357546Y80782546D01*
X78322340Y80808901D01*
X78249431Y80863481D01*
X78249430Y80863482D01*
X78242331Y80868796D01*
X78140858Y80906643D01*
X78114752Y80916380D01*
X78114750Y80916381D01*
X78107483Y80919091D01*
X78099770Y80919921D01*
X78099767Y80919921D01*
X78051180Y80925145D01*
X78051169Y80925146D01*
X78047873Y80925500D01*
X78044550Y80925500D01*
X76355439Y80925500D01*
X76355420Y80925500D01*
X76352128Y80925499D01*
X76348850Y80925147D01*
X76348838Y80925146D01*
X76300231Y80919921D01*
X76300225Y80919920D01*
X76292517Y80919091D01*
X76285252Y80916382D01*
X76285246Y80916380D01*
X76165980Y80871896D01*
X76165978Y80871896D01*
X76157669Y80868796D01*
X76150572Y80863484D01*
X76150568Y80863481D01*
X76049550Y80787859D01*
X76049546Y80787856D01*
X76042454Y80782546D01*
X76037144Y80775454D01*
X76037141Y80775450D01*
X75961519Y80674432D01*
X75961516Y80674428D01*
X75956204Y80667331D01*
X75953104Y80659022D01*
X75953104Y80659020D01*
X75908620Y80539753D01*
X75908619Y80539750D01*
X75905909Y80532483D01*
X75905079Y80524773D01*
X75905079Y80524768D01*
X75899855Y80476181D01*
X75899854Y80476169D01*
X75899500Y80472873D01*
X75899500Y80469552D01*
X75899500Y80469551D01*
X75899500Y78780440D01*
X75899500Y78780422D01*
X75899501Y78777128D01*
X75899853Y78773850D01*
X75899854Y78773839D01*
X75905079Y78725232D01*
X75905080Y78725227D01*
X75905909Y78717517D01*
X75908619Y78710251D01*
X75908620Y78710247D01*
X75928231Y78657669D01*
X75956204Y78582669D01*
X75961518Y78575570D01*
X75961519Y78575569D01*
X76023969Y78492146D01*
X76042454Y78467454D01*
X76157669Y78381204D01*
X76292517Y78330909D01*
X76327599Y78327138D01*
X76383516Y78306760D01*
X76423500Y78262672D01*
X76438334Y78205031D01*
X76424601Y78147118D01*
X76385465Y78102275D01*
X76365297Y78088153D01*
X76360861Y78085047D01*
X76357037Y78081224D01*
X76357031Y78081218D01*
X76203782Y77927969D01*
X76203776Y77927963D01*
X76199953Y77924139D01*
X76196850Y77919709D01*
X76196847Y77919704D01*
X76072540Y77742174D01*
X76072535Y77742167D01*
X76069432Y77737734D01*
X76067144Y77732828D01*
X76067142Y77732824D01*
X75975550Y77536406D01*
X75975547Y77536401D01*
X75973261Y77531496D01*
X75971862Y77526276D01*
X75971858Y77526264D01*
X75915764Y77316917D01*
X75915762Y77316906D01*
X75914365Y77311692D01*
X75894532Y77085000D01*
X75895004Y77079605D01*
X75907331Y76938699D01*
X75914365Y76858308D01*
X75915762Y76853093D01*
X75915764Y76853084D01*
X75971858Y76643737D01*
X75971861Y76643729D01*
X75973261Y76638504D01*
X76069432Y76432266D01*
X76072539Y76427829D01*
X76072540Y76427827D01*
X76092232Y76399704D01*
X76199953Y76245861D01*
X76203781Y76242033D01*
X76203782Y76242032D01*
X76204158Y76241656D01*
X76204291Y76241426D01*
X76207261Y76237886D01*
X76206636Y76237363D01*
X76236252Y76186069D01*
X76236252Y76121881D01*
X76204158Y76066294D01*
X75369165Y75231302D01*
X75356974Y75220610D01*
X75338365Y75206330D01*
X75338361Y75206327D01*
X75331918Y75201382D01*
X75326974Y75194940D01*
X75326972Y75194937D01*
X75307750Y75169886D01*
X75307750Y75169885D01*
X75240611Y75082389D01*
X75240608Y75082386D01*
X75235664Y75075941D01*
X75232555Y75068437D01*
X75232553Y75068432D01*
X75178266Y74937372D01*
X75178264Y74937367D01*
X75175156Y74929862D01*
X75174096Y74921811D01*
X75174094Y74921803D01*
X75159215Y74808781D01*
X75154518Y74773100D01*
X75155579Y74765041D01*
X75158639Y74741798D01*
X75159700Y74725613D01*
X75159700Y74488297D01*
X75150261Y74440844D01*
X75123381Y74400616D01*
X73406861Y72684098D01*
X73356468Y72653518D01*
X73297648Y72649663D01*
X73243694Y72673403D01*
X73206798Y72719373D01*
X73200568Y72732734D01*
X73070047Y72919139D01*
X72909139Y73080047D01*
X72722734Y73210568D01*
X72664724Y73237619D01*
X72612549Y73283375D01*
X72593130Y73350000D01*
X72612549Y73416625D01*
X72664725Y73462382D01*
X72673050Y73466264D01*
X72722734Y73489432D01*
X72909139Y73619953D01*
X73070047Y73780861D01*
X73200568Y73967266D01*
X73296739Y74173504D01*
X73355635Y74393308D01*
X73375468Y74620000D01*
X73355635Y74846692D01*
X73333350Y74929862D01*
X73298141Y75061264D01*
X73298140Y75061266D01*
X73296739Y75066496D01*
X73200568Y75272734D01*
X73070047Y75459139D01*
X72909139Y75620047D01*
X72722734Y75750568D01*
X72664724Y75777619D01*
X72612549Y75823375D01*
X72593130Y75890000D01*
X72612549Y75956625D01*
X72664725Y76002382D01*
X72673050Y76006264D01*
X72722734Y76029432D01*
X72909139Y76159953D01*
X73070047Y76320861D01*
X73200568Y76507266D01*
X73296739Y76713504D01*
X73355635Y76933308D01*
X73375468Y77160000D01*
X73355635Y77386692D01*
X73324357Y77503425D01*
X73298141Y77601264D01*
X73298140Y77601266D01*
X73296739Y77606496D01*
X73200568Y77812734D01*
X73070047Y77999139D01*
X72909139Y78160047D01*
X72722734Y78290568D01*
X72664724Y78317619D01*
X72612549Y78363375D01*
X72593130Y78430000D01*
X72612549Y78496625D01*
X72664725Y78542382D01*
X72722734Y78569432D01*
X72909139Y78699953D01*
X73070047Y78860861D01*
X73200568Y79047266D01*
X73296739Y79253504D01*
X73355635Y79473308D01*
X73375468Y79700000D01*
X73355635Y79926692D01*
X73323640Y80046099D01*
X73298141Y80141264D01*
X73298140Y80141266D01*
X73296739Y80146496D01*
X73200568Y80352734D01*
X73070047Y80539139D01*
X72993262Y80615925D01*
X72961168Y80671512D01*
X72961168Y80735699D01*
X72993260Y80791284D01*
X73347826Y81145848D01*
X73347825Y81145848D01*
X73379816Y81177838D01*
X73400180Y81210250D01*
X73408220Y81221581D01*
X73432091Y81251513D01*
X73448705Y81286014D01*
X73455418Y81298161D01*
X73475789Y81330578D01*
X73488429Y81366703D01*
X73493752Y81379553D01*
X73495707Y81383613D01*
X73510360Y81414039D01*
X73518881Y81451374D01*
X73522718Y81464697D01*
X73535368Y81500845D01*
X73539655Y81538903D01*
X73541979Y81552577D01*
X73550500Y81589906D01*
X73550500Y81770294D01*
X73550500Y81910325D01*
X73552932Y81921297D01*
X82028217Y81921297D01*
X82035650Y81913186D01*
X82093077Y81872975D01*
X82102427Y81867577D01*
X82298768Y81776021D01*
X82308902Y81772333D01*
X82518162Y81716261D01*
X82528793Y81714387D01*
X82744605Y81695506D01*
X82755395Y81695506D01*
X82971206Y81714387D01*
X82981837Y81716261D01*
X83191097Y81772333D01*
X83201231Y81776021D01*
X83397575Y81867578D01*
X83406920Y81872974D01*
X83464348Y81913186D01*
X83471780Y81921297D01*
X83465867Y81930579D01*
X82761542Y82634905D01*
X82750000Y82641569D01*
X82738457Y82634905D01*
X82034128Y81930576D01*
X82028217Y81921297D01*
X73552932Y81921297D01*
X73562116Y81962726D01*
X73590009Y81999083D01*
X73589139Y81999953D01*
X73663364Y82074178D01*
X73750047Y82160861D01*
X73880568Y82347266D01*
X73976739Y82553504D01*
X74035635Y82773308D01*
X74054996Y82994605D01*
X81445506Y82994605D01*
X81464386Y82778794D01*
X81466260Y82768163D01*
X81522332Y82558903D01*
X81526020Y82548769D01*
X81617576Y82352428D01*
X81622974Y82343078D01*
X81663184Y82285652D01*
X81671295Y82278219D01*
X81680574Y82284130D01*
X82384903Y82988458D01*
X82391567Y83000001D01*
X83108431Y83000001D01*
X83115095Y82988458D01*
X83819421Y82284133D01*
X83828703Y82278220D01*
X83836814Y82285652D01*
X83877026Y82343080D01*
X83882420Y82352422D01*
X83887340Y82362972D01*
X83933096Y82415150D01*
X83999721Y82434571D01*
X84066347Y82415153D01*
X84112105Y82362977D01*
X84117138Y82352183D01*
X84117143Y82352173D01*
X84119432Y82347266D01*
X84122539Y82342829D01*
X84122540Y82342827D01*
X84206600Y82222776D01*
X84249953Y82160861D01*
X84253782Y82157032D01*
X84410861Y81999953D01*
X84409990Y81999083D01*
X84437884Y81962726D01*
X84449500Y81910325D01*
X84449500Y81738041D01*
X84440061Y81690588D01*
X84413181Y81650359D01*
X84317744Y81554924D01*
X84317734Y81554913D01*
X84190184Y81427362D01*
X84186479Y81421468D01*
X84186479Y81421466D01*
X84169816Y81394948D01*
X84161773Y81383613D01*
X84142253Y81359135D01*
X84142251Y81359133D01*
X84137909Y81353687D01*
X84134889Y81347418D01*
X84134883Y81347407D01*
X84121299Y81319200D01*
X84114577Y81307036D01*
X84105301Y81292272D01*
X84094211Y81274622D01*
X84091915Y81268063D01*
X84091911Y81268053D01*
X84081565Y81238487D01*
X84076247Y81225649D01*
X84062660Y81197434D01*
X84062657Y81197429D01*
X84059640Y81191161D01*
X84058092Y81184383D01*
X84058089Y81184372D01*
X84051118Y81153832D01*
X84047272Y81140481D01*
X84034632Y81104355D01*
X84033852Y81097437D01*
X84033852Y81097435D01*
X84030345Y81066319D01*
X84028017Y81052621D01*
X84021050Y81022092D01*
X84021048Y81022080D01*
X84019500Y81015294D01*
X84019500Y81008328D01*
X84019500Y80714675D01*
X84007884Y80662274D01*
X83979990Y80625918D01*
X83980861Y80625047D01*
X83823782Y80467969D01*
X83823776Y80467963D01*
X83819953Y80464139D01*
X83816850Y80459709D01*
X83816847Y80459704D01*
X83692540Y80282174D01*
X83692535Y80282167D01*
X83689432Y80277734D01*
X83687144Y80272828D01*
X83687142Y80272824D01*
X83595550Y80076406D01*
X83595547Y80076401D01*
X83593261Y80071496D01*
X83591862Y80066276D01*
X83591858Y80066264D01*
X83535764Y79856917D01*
X83535762Y79856906D01*
X83534365Y79851692D01*
X83533893Y79846307D01*
X83533893Y79846302D01*
X83524765Y79741966D01*
X83514532Y79625000D01*
X83515004Y79619605D01*
X83527331Y79478699D01*
X83534365Y79398308D01*
X83535762Y79393093D01*
X83535764Y79393084D01*
X83591858Y79183737D01*
X83591861Y79183729D01*
X83593261Y79178504D01*
X83689432Y78972266D01*
X83692539Y78967829D01*
X83692540Y78967827D01*
X83712232Y78939704D01*
X83819953Y78785861D01*
X83980861Y78624953D01*
X84167266Y78494432D01*
X84172175Y78492143D01*
X84172180Y78492140D01*
X84225864Y78467107D01*
X84278040Y78421351D01*
X84297460Y78354726D01*
X84278041Y78288101D01*
X84225866Y78242343D01*
X84172416Y78217419D01*
X84163087Y78212033D01*
X83985618Y78087768D01*
X83977352Y78080831D01*
X83824169Y77927648D01*
X83817232Y77919382D01*
X83692967Y77741913D01*
X83687579Y77732581D01*
X83596022Y77536235D01*
X83592330Y77526093D01*
X83544820Y77348781D01*
X83544452Y77337552D01*
X83555395Y77335000D01*
X86084605Y77335000D01*
X86095547Y77337552D01*
X86095179Y77348781D01*
X86047669Y77526093D01*
X86043977Y77536235D01*
X85952420Y77732581D01*
X85947032Y77741913D01*
X85822767Y77919382D01*
X85815830Y77927648D01*
X85662647Y78080831D01*
X85654381Y78087768D01*
X85476912Y78212033D01*
X85467579Y78217421D01*
X85414134Y78242343D01*
X85361958Y78288101D01*
X85342539Y78354726D01*
X85361959Y78421351D01*
X85414131Y78467106D01*
X85472734Y78494432D01*
X85659139Y78624953D01*
X85820047Y78785861D01*
X85950568Y78972266D01*
X86046739Y79178504D01*
X86105635Y79398308D01*
X86125468Y79625000D01*
X86105635Y79851692D01*
X86046739Y80071496D01*
X85950568Y80277734D01*
X85820047Y80464139D01*
X85743262Y80540924D01*
X85711168Y80596512D01*
X85711168Y80660699D01*
X85743261Y80716284D01*
X85847826Y80820848D01*
X85847825Y80820848D01*
X85879816Y80852838D01*
X85900186Y80885258D01*
X85908221Y80896583D01*
X85932092Y80926514D01*
X85948704Y80961012D01*
X85955423Y80973167D01*
X85975789Y81005578D01*
X85979189Y81015294D01*
X85988431Y81041706D01*
X85993749Y81054547D01*
X86010360Y81089039D01*
X86018881Y81126374D01*
X86022718Y81139697D01*
X86035368Y81175845D01*
X86039655Y81213903D01*
X86041979Y81227577D01*
X86050500Y81264906D01*
X86050500Y81445294D01*
X86050500Y81910325D01*
X86062116Y81962726D01*
X86090009Y81999083D01*
X86089139Y81999953D01*
X86163364Y82074178D01*
X86250047Y82160861D01*
X86380568Y82347266D01*
X86476739Y82553504D01*
X86535635Y82773308D01*
X86555468Y83000000D01*
X86535635Y83226692D01*
X86476739Y83446496D01*
X86380568Y83652734D01*
X86250047Y83839139D01*
X86089139Y84000047D01*
X85965219Y84086816D01*
X85907173Y84127460D01*
X85907171Y84127461D01*
X85902734Y84130568D01*
X85696496Y84226739D01*
X85691271Y84228139D01*
X85691263Y84228142D01*
X85481916Y84284236D01*
X85481907Y84284238D01*
X85476692Y84285635D01*
X85471304Y84286107D01*
X85471301Y84286107D01*
X85255395Y84304996D01*
X85250000Y84305468D01*
X85244605Y84304996D01*
X85028698Y84286107D01*
X85028693Y84286107D01*
X85023308Y84285635D01*
X85018094Y84284238D01*
X85018083Y84284236D01*
X84808736Y84228142D01*
X84808724Y84228138D01*
X84803504Y84226739D01*
X84798599Y84224453D01*
X84798594Y84224450D01*
X84602176Y84132858D01*
X84602172Y84132856D01*
X84597266Y84130568D01*
X84592833Y84127465D01*
X84592826Y84127460D01*
X84415296Y84003153D01*
X84415291Y84003150D01*
X84410861Y84000047D01*
X84407037Y83996224D01*
X84407031Y83996218D01*
X84253782Y83842969D01*
X84253776Y83842963D01*
X84249953Y83839139D01*
X84246850Y83834709D01*
X84246847Y83834704D01*
X84122540Y83657174D01*
X84122535Y83657167D01*
X84119432Y83652734D01*
X84117142Y83647825D01*
X84117140Y83647820D01*
X84112104Y83637021D01*
X84066346Y83584847D01*
X83999721Y83565430D01*
X83933097Y83584851D01*
X83887341Y83637026D01*
X83882420Y83647578D01*
X83877025Y83656923D01*
X83836814Y83714350D01*
X83828703Y83721783D01*
X83819424Y83715872D01*
X83115095Y83011543D01*
X83108431Y83000001D01*
X82391567Y83000001D01*
X82384903Y83011543D01*
X81680574Y83715872D01*
X81671296Y83721783D01*
X81663183Y83714349D01*
X81622971Y83656919D01*
X81617577Y83647575D01*
X81526020Y83451232D01*
X81522332Y83441098D01*
X81466260Y83231838D01*
X81464386Y83221207D01*
X81445506Y83005395D01*
X81445506Y82994605D01*
X74054996Y82994605D01*
X74055468Y83000000D01*
X74035635Y83226692D01*
X73976739Y83446496D01*
X73880568Y83652734D01*
X73750047Y83839139D01*
X73589139Y84000047D01*
X73476804Y84078704D01*
X82028217Y84078704D01*
X82034128Y84069426D01*
X82738457Y83365097D01*
X82750000Y83358433D01*
X82761542Y83365097D01*
X83465870Y84069426D01*
X83471781Y84078705D01*
X83464348Y84086816D01*
X83406922Y84127026D01*
X83397572Y84132424D01*
X83201231Y84223980D01*
X83191097Y84227668D01*
X82981837Y84283740D01*
X82971206Y84285614D01*
X82755395Y84304494D01*
X82744605Y84304494D01*
X82528793Y84285614D01*
X82518162Y84283740D01*
X82308902Y84227668D01*
X82298768Y84223980D01*
X82102425Y84132423D01*
X82093081Y84127029D01*
X82035651Y84086817D01*
X82028217Y84078704D01*
X73476804Y84078704D01*
X73465219Y84086816D01*
X73407173Y84127460D01*
X73407171Y84127461D01*
X73402734Y84130568D01*
X73196496Y84226739D01*
X73191271Y84228139D01*
X73191263Y84228142D01*
X72981916Y84284236D01*
X72981907Y84284238D01*
X72976692Y84285635D01*
X72971304Y84286107D01*
X72971301Y84286107D01*
X72755395Y84304996D01*
X72750000Y84305468D01*
X72744605Y84304996D01*
X72528698Y84286107D01*
X72528693Y84286107D01*
X72523308Y84285635D01*
X72518094Y84284238D01*
X72518083Y84284236D01*
X72308736Y84228142D01*
X72308724Y84228138D01*
X72303504Y84226739D01*
X72298599Y84224453D01*
X72298594Y84224450D01*
X72102176Y84132858D01*
X72102172Y84132856D01*
X72097266Y84130568D01*
X72092833Y84127465D01*
X72092826Y84127460D01*
X71915296Y84003153D01*
X71915291Y84003150D01*
X71910861Y84000047D01*
X71907037Y83996224D01*
X71907031Y83996218D01*
X71753782Y83842969D01*
X71753776Y83842963D01*
X71749953Y83839139D01*
X71746850Y83834709D01*
X71746847Y83834704D01*
X71622540Y83657174D01*
X71622535Y83657167D01*
X71619432Y83652734D01*
X71617142Y83647825D01*
X71617140Y83647820D01*
X71612104Y83637021D01*
X71566346Y83584847D01*
X71499721Y83565430D01*
X71433097Y83584851D01*
X71387341Y83637026D01*
X71382420Y83647578D01*
X71377025Y83656923D01*
X71336814Y83714350D01*
X71328703Y83721783D01*
X71319424Y83715872D01*
X70615095Y83011543D01*
X70608431Y83000000D01*
X70615095Y82988458D01*
X71319421Y82284133D01*
X71328703Y82278220D01*
X71336814Y82285652D01*
X71377026Y82343080D01*
X71382420Y82352422D01*
X71387340Y82362972D01*
X71433096Y82415150D01*
X71499721Y82434571D01*
X71566347Y82415153D01*
X71612105Y82362977D01*
X71617138Y82352183D01*
X71617143Y82352173D01*
X71619432Y82347266D01*
X71622539Y82342829D01*
X71622540Y82342827D01*
X71706600Y82222776D01*
X71749953Y82160861D01*
X71753782Y82157032D01*
X71836636Y82074178D01*
X71868730Y82018591D01*
X71868730Y81954404D01*
X71836636Y81898816D01*
X71567738Y81629916D01*
X71445109Y81507288D01*
X71445105Y81507284D01*
X71440184Y81502362D01*
X71436479Y81496468D01*
X71436479Y81496466D01*
X71419816Y81469948D01*
X71411773Y81458613D01*
X71392253Y81434135D01*
X71392251Y81434133D01*
X71387909Y81428687D01*
X71384889Y81422418D01*
X71384883Y81422407D01*
X71371299Y81394200D01*
X71364577Y81382036D01*
X71354943Y81366702D01*
X71344211Y81349622D01*
X71341915Y81343063D01*
X71341911Y81343053D01*
X71331565Y81313487D01*
X71326247Y81300649D01*
X71312660Y81272434D01*
X71312657Y81272429D01*
X71309640Y81266161D01*
X71308092Y81259383D01*
X71308089Y81259372D01*
X71301118Y81228832D01*
X71297272Y81215481D01*
X71284632Y81179355D01*
X71283852Y81172437D01*
X71283852Y81172435D01*
X71280345Y81141319D01*
X71278017Y81127621D01*
X71271050Y81097092D01*
X71271048Y81097080D01*
X71269500Y81090294D01*
X71269500Y81083328D01*
X71269500Y80789675D01*
X71257884Y80737274D01*
X71229990Y80700918D01*
X71230861Y80700047D01*
X71073782Y80542969D01*
X71073776Y80542963D01*
X71069953Y80539139D01*
X71066850Y80534709D01*
X71066847Y80534704D01*
X70942540Y80357174D01*
X70942535Y80357167D01*
X70939432Y80352734D01*
X70937144Y80347828D01*
X70937142Y80347824D01*
X70845550Y80151406D01*
X70845547Y80151401D01*
X70843261Y80146496D01*
X70841862Y80141276D01*
X70841858Y80141264D01*
X70785764Y79931917D01*
X70785762Y79931906D01*
X70784365Y79926692D01*
X70783893Y79921307D01*
X70783893Y79921302D01*
X70767734Y79736603D01*
X70764532Y79700000D01*
X70765004Y79694605D01*
X70774878Y79581737D01*
X70784365Y79473308D01*
X70785762Y79468093D01*
X70785764Y79468084D01*
X70841858Y79258737D01*
X70841861Y79258729D01*
X70843261Y79253504D01*
X70939432Y79047266D01*
X70942539Y79042829D01*
X70942540Y79042827D01*
X70971474Y79001505D01*
X71069953Y78860861D01*
X71230861Y78699953D01*
X71417266Y78569432D01*
X71422172Y78567145D01*
X71422176Y78567142D01*
X71475274Y78542382D01*
X71527450Y78496625D01*
X71546869Y78430000D01*
X71527450Y78363375D01*
X71475274Y78317618D01*
X71422176Y78292859D01*
X71422163Y78292852D01*
X71417266Y78290568D01*
X71412833Y78287465D01*
X71412826Y78287460D01*
X71235296Y78163153D01*
X71235294Y78163151D01*
X71230861Y78160047D01*
X71227037Y78156224D01*
X71227031Y78156218D01*
X71073782Y78002969D01*
X71073776Y78002963D01*
X71069953Y77999139D01*
X71066850Y77994709D01*
X71066847Y77994704D01*
X70942540Y77817174D01*
X70942535Y77817167D01*
X70939432Y77812734D01*
X70937144Y77807828D01*
X70937142Y77807824D01*
X70845550Y77611406D01*
X70845547Y77611401D01*
X70843261Y77606496D01*
X70841862Y77601276D01*
X70841858Y77601264D01*
X70785764Y77391917D01*
X70785762Y77391906D01*
X70784365Y77386692D01*
X70783893Y77381307D01*
X70783893Y77381302D01*
X70765004Y77165395D01*
X70764532Y77160000D01*
X70784365Y76933308D01*
X70785762Y76928093D01*
X70785764Y76928084D01*
X70841858Y76718737D01*
X70841861Y76718729D01*
X70843261Y76713504D01*
X70939432Y76507266D01*
X70942539Y76502829D01*
X70942540Y76502827D01*
X70995055Y76427827D01*
X71069953Y76320861D01*
X71230861Y76159953D01*
X71417266Y76029432D01*
X71422172Y76027145D01*
X71422176Y76027142D01*
X71475274Y76002382D01*
X71527450Y75956625D01*
X71546869Y75890000D01*
X71527450Y75823375D01*
X71475274Y75777618D01*
X71422176Y75752859D01*
X71422163Y75752852D01*
X71417266Y75750568D01*
X71412833Y75747465D01*
X71412826Y75747460D01*
X71235296Y75623153D01*
X71235291Y75623150D01*
X71230861Y75620047D01*
X71227037Y75616224D01*
X71227031Y75616218D01*
X71073782Y75462969D01*
X71073776Y75462963D01*
X71069953Y75459139D01*
X71066850Y75454709D01*
X71066847Y75454704D01*
X70942540Y75277174D01*
X70942535Y75277167D01*
X70939432Y75272734D01*
X70937144Y75267828D01*
X70937142Y75267824D01*
X70845550Y75071406D01*
X70845547Y75071401D01*
X70843261Y75066496D01*
X70841862Y75061276D01*
X70841858Y75061264D01*
X70785764Y74851917D01*
X70785762Y74851906D01*
X70784365Y74846692D01*
X70783893Y74841307D01*
X70783893Y74841302D01*
X70765004Y74625395D01*
X70764532Y74620000D01*
X70765004Y74614605D01*
X70783725Y74400616D01*
X70784365Y74393308D01*
X70785762Y74388093D01*
X70785764Y74388084D01*
X70841858Y74178737D01*
X70841861Y74178729D01*
X70843261Y74173504D01*
X70845549Y74168597D01*
X70845550Y74168595D01*
X70888606Y74076262D01*
X70939432Y73967266D01*
X70942539Y73962829D01*
X70942540Y73962827D01*
X70995055Y73887827D01*
X71069953Y73780861D01*
X71230861Y73619953D01*
X71417266Y73489432D01*
X71422172Y73487145D01*
X71422176Y73487142D01*
X71475274Y73462382D01*
X71527450Y73416625D01*
X71546869Y73350000D01*
X71527450Y73283375D01*
X71475274Y73237618D01*
X71422176Y73212859D01*
X71422163Y73212852D01*
X71417266Y73210568D01*
X71412833Y73207465D01*
X71412826Y73207460D01*
X71235296Y73083153D01*
X71235291Y73083150D01*
X71230861Y73080047D01*
X71227037Y73076224D01*
X71227031Y73076218D01*
X71073782Y72922969D01*
X71073776Y72922963D01*
X71069953Y72919139D01*
X71066850Y72914709D01*
X71066847Y72914704D01*
X70942540Y72737174D01*
X70942535Y72737167D01*
X70939432Y72732734D01*
X70937144Y72727828D01*
X70937142Y72727824D01*
X70845550Y72531406D01*
X70845547Y72531401D01*
X70843261Y72526496D01*
X70841862Y72521276D01*
X70841858Y72521264D01*
X70785764Y72311917D01*
X70785762Y72311906D01*
X70784365Y72306692D01*
X70783893Y72301307D01*
X70783893Y72301302D01*
X70765004Y72085395D01*
X70764532Y72080000D01*
X70765004Y72074605D01*
X70783133Y71867382D01*
X70784365Y71853308D01*
X70785762Y71848093D01*
X70785764Y71848084D01*
X70841858Y71638737D01*
X70841861Y71638729D01*
X70843261Y71633504D01*
X70939432Y71427266D01*
X70942539Y71422829D01*
X70942540Y71422827D01*
X70996982Y71345075D01*
X71069953Y71240861D01*
X71073782Y71237032D01*
X71109408Y71201406D01*
X71141502Y71145819D01*
X71141502Y71081631D01*
X71109408Y71026044D01*
X65503956Y65420592D01*
X65448369Y65388498D01*
X65384181Y65388498D01*
X65328594Y65420592D01*
X65292968Y65456218D01*
X65289139Y65460047D01*
X65102734Y65590568D01*
X65044724Y65617619D01*
X64992549Y65663375D01*
X64973130Y65730000D01*
X64992549Y65796625D01*
X65044725Y65842382D01*
X65053050Y65846264D01*
X65102734Y65869432D01*
X65289139Y65999953D01*
X65450047Y66160861D01*
X65580568Y66347266D01*
X65676739Y66553504D01*
X65735635Y66773308D01*
X65755468Y67000000D01*
X65735635Y67226692D01*
X65704357Y67343425D01*
X65678141Y67441264D01*
X65678140Y67441266D01*
X65676739Y67446496D01*
X65580568Y67652734D01*
X65450047Y67839139D01*
X65289139Y68000047D01*
X65207200Y68057421D01*
X65107169Y68127463D01*
X65107165Y68127465D01*
X65102734Y68130568D01*
X65099870Y68131904D01*
X65059400Y68169810D01*
X65039566Y68222511D01*
X65035044Y68256862D01*
X65032165Y68263813D01*
X65030513Y68320649D01*
X65054695Y68372490D01*
X65093759Y68403365D01*
X65093140Y68404438D01*
X65097825Y68407143D01*
X65102734Y68409432D01*
X65289139Y68539953D01*
X65450047Y68700861D01*
X65580568Y68887266D01*
X65676739Y69093504D01*
X65735635Y69313308D01*
X65755468Y69540000D01*
X65735635Y69766692D01*
X65704356Y69883426D01*
X65678141Y69981264D01*
X65678140Y69981266D01*
X65676739Y69986496D01*
X65580568Y70192734D01*
X65450047Y70379139D01*
X65289139Y70540047D01*
X65207200Y70597421D01*
X65107169Y70667463D01*
X65107165Y70667465D01*
X65102734Y70670568D01*
X65099870Y70671904D01*
X65059400Y70709810D01*
X65039566Y70762511D01*
X65035044Y70796862D01*
X65032038Y70804119D01*
X65030382Y70861141D01*
X65054566Y70912982D01*
X65093526Y70943774D01*
X65092891Y70944874D01*
X65106920Y70952974D01*
X65284381Y71077233D01*
X65292647Y71084170D01*
X65445830Y71237353D01*
X65452767Y71245619D01*
X65577032Y71423088D01*
X65582420Y71432420D01*
X65673977Y71628766D01*
X65677669Y71638908D01*
X65725179Y71816220D01*
X65725547Y71827449D01*
X65714605Y71830000D01*
X64324000Y71830000D01*
X64262000Y71846613D01*
X64216613Y71892000D01*
X64200000Y71954000D01*
X64200000Y72206000D01*
X64216613Y72268000D01*
X64262000Y72313387D01*
X64324000Y72330000D01*
X65714605Y72330000D01*
X65725547Y72332552D01*
X65725179Y72343781D01*
X65677669Y72521093D01*
X65673977Y72531235D01*
X65582420Y72727581D01*
X65577032Y72736913D01*
X65452767Y72914382D01*
X65445830Y72922648D01*
X65292647Y73075831D01*
X65284381Y73082768D01*
X65106912Y73207033D01*
X65097579Y73212421D01*
X65044134Y73237343D01*
X64991958Y73283101D01*
X64972539Y73349726D01*
X64991959Y73416351D01*
X65044131Y73462106D01*
X65102734Y73489432D01*
X65289139Y73619953D01*
X65450047Y73780861D01*
X65580568Y73967266D01*
X65676739Y74173504D01*
X65735635Y74393308D01*
X65755468Y74620000D01*
X65735635Y74846692D01*
X65713350Y74929862D01*
X65678141Y75061264D01*
X65678140Y75061266D01*
X65676739Y75066496D01*
X65580568Y75272734D01*
X65450047Y75459139D01*
X65394441Y75514745D01*
X65362347Y75570332D01*
X65362347Y75634520D01*
X65394441Y75690107D01*
X67410909Y77706575D01*
X69440944Y79736611D01*
X69453122Y79747290D01*
X69478182Y79766518D01*
X69574436Y79891959D01*
X69634944Y80038038D01*
X69645572Y80118764D01*
X69649870Y80151406D01*
X69654522Y80186741D01*
X69655583Y80194800D01*
X69653573Y80210063D01*
X69651461Y80226108D01*
X69650400Y80242294D01*
X69650400Y81653203D01*
X69663188Y81708047D01*
X69698914Y81751579D01*
X69750209Y81774820D01*
X69806494Y81772978D01*
X70018162Y81716261D01*
X70028793Y81714387D01*
X70244605Y81695506D01*
X70255395Y81695506D01*
X70471206Y81714387D01*
X70481837Y81716261D01*
X70691097Y81772333D01*
X70701231Y81776021D01*
X70897575Y81867578D01*
X70906920Y81872974D01*
X70964348Y81913186D01*
X70971780Y81921297D01*
X70965867Y81930579D01*
X69984127Y82912319D01*
X69952033Y82967907D01*
X69952033Y83032094D01*
X69984127Y83087681D01*
X70250000Y83353553D01*
X70965870Y84069426D01*
X70971781Y84078705D01*
X70964348Y84086816D01*
X70906922Y84127026D01*
X70897572Y84132424D01*
X70701231Y84223980D01*
X70691097Y84227668D01*
X70481837Y84283740D01*
X70471206Y84285614D01*
X70255395Y84304494D01*
X70244605Y84304494D01*
X70028793Y84285614D01*
X70018162Y84283740D01*
X69806494Y84227022D01*
X69750209Y84225180D01*
X69698914Y84248421D01*
X69663188Y84291953D01*
X69650400Y84346797D01*
X69650400Y84359703D01*
X69659839Y84407156D01*
X69686719Y84447384D01*
X69907194Y84667859D01*
X70591044Y85351711D01*
X70603222Y85362390D01*
X70628282Y85381618D01*
X70724536Y85507059D01*
X70785044Y85653138D01*
X70788726Y85681109D01*
X70811667Y85738249D01*
X70859262Y85777307D01*
X70877830Y85785965D01*
X71071401Y85921505D01*
X71238495Y86088599D01*
X71368424Y86274158D01*
X71412743Y86313024D01*
X71470000Y86327035D01*
X71527257Y86313024D01*
X71571575Y86274158D01*
X71698395Y86093039D01*
X71698401Y86093032D01*
X71701505Y86088599D01*
X71868599Y85921505D01*
X71873031Y85918402D01*
X71873033Y85918400D01*
X72009954Y85822527D01*
X72062170Y85785965D01*
X72067070Y85783680D01*
X72067072Y85783679D01*
X72074396Y85780264D01*
X72276337Y85686097D01*
X72504592Y85624937D01*
X72740000Y85604341D01*
X72975408Y85624937D01*
X73203663Y85686097D01*
X73417830Y85785965D01*
X73611401Y85921505D01*
X73778495Y86088599D01*
X73908424Y86274158D01*
X73952743Y86313024D01*
X74010000Y86327035D01*
X74067257Y86313024D01*
X74111575Y86274158D01*
X74238395Y86093039D01*
X74238401Y86093032D01*
X74241505Y86088599D01*
X74408599Y85921505D01*
X74413031Y85918402D01*
X74413033Y85918400D01*
X74549954Y85822527D01*
X74602170Y85785965D01*
X74607070Y85783680D01*
X74607072Y85783679D01*
X74614396Y85780264D01*
X74816337Y85686097D01*
X75044592Y85624937D01*
X75280000Y85604341D01*
X75515408Y85624937D01*
X75743663Y85686097D01*
X75957830Y85785965D01*
X76151401Y85921505D01*
X76318495Y86088599D01*
X76448424Y86274158D01*
X76492743Y86313024D01*
X76550000Y86327035D01*
X76607257Y86313024D01*
X76651575Y86274158D01*
X76778395Y86093039D01*
X76778401Y86093032D01*
X76781505Y86088599D01*
X76948599Y85921505D01*
X76953031Y85918402D01*
X76953033Y85918400D01*
X77089954Y85822527D01*
X77142170Y85785965D01*
X77147070Y85783680D01*
X77147072Y85783679D01*
X77154396Y85780264D01*
X77356337Y85686097D01*
X77584592Y85624937D01*
X77820000Y85604341D01*
X78055408Y85624937D01*
X78283663Y85686097D01*
X78497830Y85785965D01*
X78691401Y85921505D01*
X78858495Y86088599D01*
X78988424Y86274158D01*
X79032743Y86313024D01*
X79090000Y86327035D01*
X79147257Y86313024D01*
X79191575Y86274158D01*
X79318395Y86093039D01*
X79318401Y86093032D01*
X79321505Y86088599D01*
X79488599Y85921505D01*
X79493031Y85918402D01*
X79493033Y85918400D01*
X79629954Y85822527D01*
X79682170Y85785965D01*
X79687070Y85783680D01*
X79687072Y85783679D01*
X79694396Y85780264D01*
X79896337Y85686097D01*
X80124592Y85624937D01*
X80360000Y85604341D01*
X80595408Y85624937D01*
X80823663Y85686097D01*
X81037830Y85785965D01*
X81231401Y85921505D01*
X81398495Y86088599D01*
X81534035Y86282170D01*
X81633903Y86496337D01*
X81695063Y86724592D01*
X81715659Y86960000D01*
X81695063Y87195408D01*
X81633903Y87423663D01*
X81534035Y87637829D01*
X81398495Y87831401D01*
X81231401Y87998495D01*
X81226970Y88001598D01*
X81226966Y88001601D01*
X81045405Y88128731D01*
X81006540Y88173049D01*
X80992529Y88230306D01*
X81006540Y88287563D01*
X81045406Y88331881D01*
X81226638Y88458781D01*
X81234909Y88465722D01*
X81394278Y88625091D01*
X81401215Y88633357D01*
X81530492Y88817984D01*
X81535887Y88827328D01*
X81548227Y88853793D01*
X81585122Y88899766D01*
X81639076Y88923508D01*
X81697897Y88919653D01*
X81748291Y88889074D01*
X85977564Y84659800D01*
X90206481Y80430883D01*
X90233361Y80390655D01*
X90242800Y80343202D01*
X90242800Y67194987D01*
X90241738Y67178802D01*
X90237618Y67147500D01*
X90238679Y67139441D01*
X90242800Y67108139D01*
X90257194Y66998798D01*
X90257195Y66998792D01*
X90258256Y66990738D01*
X90261365Y66983232D01*
X90261366Y66983229D01*
X90314961Y66853841D01*
X90318764Y66844659D01*
X90323711Y66838212D01*
X90391522Y66749838D01*
X90415018Y66719218D01*
X90421464Y66714272D01*
X90440069Y66699996D01*
X90452264Y66689301D01*
X92272799Y64868766D01*
X92283489Y64856578D01*
X92302718Y64831518D01*
X92420161Y64741401D01*
X92428159Y64735264D01*
X92472299Y64716981D01*
X92526405Y64673565D01*
X92548724Y64607877D01*
X92534255Y64548627D01*
X92535965Y64547829D01*
X92438386Y64338573D01*
X92438383Y64338568D01*
X92436097Y64333663D01*
X92434698Y64328443D01*
X92434694Y64328431D01*
X92376337Y64110635D01*
X92376335Y64110629D01*
X92374937Y64105408D01*
X92374465Y64100023D01*
X92374465Y64100018D01*
X92363694Y63976903D01*
X92354341Y63870000D01*
X92354813Y63864605D01*
X92365940Y63737420D01*
X92374937Y63634592D01*
X92376336Y63629370D01*
X92376337Y63629366D01*
X92434694Y63411570D01*
X92434697Y63411562D01*
X92436097Y63406337D01*
X92438385Y63401430D01*
X92438386Y63401428D01*
X92533678Y63197073D01*
X92533681Y63197067D01*
X92535965Y63192170D01*
X92539064Y63187743D01*
X92539066Y63187741D01*
X92668399Y63003034D01*
X92668402Y63003030D01*
X92671505Y62998599D01*
X92838599Y62831505D01*
X92843032Y62828401D01*
X92843038Y62828396D01*
X93024158Y62701575D01*
X93063024Y62657257D01*
X93077035Y62600000D01*
X93063024Y62542743D01*
X93024159Y62498425D01*
X92843041Y62371605D01*
X92838599Y62368495D01*
X92834775Y62364672D01*
X92834769Y62364666D01*
X92675334Y62205231D01*
X92675328Y62205225D01*
X92671505Y62201401D01*
X92668402Y62196971D01*
X92668399Y62196966D01*
X92539073Y62012269D01*
X92539068Y62012262D01*
X92535965Y62007829D01*
X92533677Y62002923D01*
X92533675Y62002919D01*
X92438386Y61798573D01*
X92438383Y61798568D01*
X92436097Y61793663D01*
X92434698Y61788443D01*
X92434694Y61788431D01*
X92376337Y61570635D01*
X92376335Y61570629D01*
X92374937Y61565408D01*
X92374465Y61560023D01*
X92374465Y61560018D01*
X92366467Y61468595D01*
X92354341Y61330000D01*
X92374937Y61094592D01*
X92376336Y61089370D01*
X92376337Y61089366D01*
X92434694Y60871570D01*
X92434697Y60871562D01*
X92436097Y60866337D01*
X92438385Y60861430D01*
X92438386Y60861428D01*
X92533678Y60657073D01*
X92533681Y60657067D01*
X92535965Y60652170D01*
X92539064Y60647743D01*
X92539066Y60647741D01*
X92668399Y60463034D01*
X92668402Y60463030D01*
X92671505Y60458599D01*
X92838599Y60291505D01*
X92843032Y60288401D01*
X92843038Y60288396D01*
X93024158Y60161575D01*
X93063024Y60117257D01*
X93077035Y60060000D01*
X93063024Y60002743D01*
X93024159Y59958425D01*
X92843041Y59831605D01*
X92838599Y59828495D01*
X92834775Y59824672D01*
X92834769Y59824666D01*
X92675334Y59665231D01*
X92675328Y59665225D01*
X92671505Y59661401D01*
X92668402Y59656971D01*
X92668399Y59656966D01*
X92539073Y59472269D01*
X92539068Y59472262D01*
X92535965Y59467829D01*
X92533677Y59462923D01*
X92533675Y59462919D01*
X92438386Y59258573D01*
X92438383Y59258568D01*
X92436097Y59253663D01*
X92434698Y59248443D01*
X92434694Y59248431D01*
X92376337Y59030635D01*
X92376335Y59030629D01*
X92374937Y59025408D01*
X92374465Y59020023D01*
X92374465Y59020018D01*
X92367084Y58935649D01*
X92354341Y58790000D01*
X92374937Y58554592D01*
X92376336Y58549370D01*
X92376337Y58549366D01*
X92434694Y58331570D01*
X92434697Y58331562D01*
X92436097Y58326337D01*
X92438385Y58321430D01*
X92438386Y58321428D01*
X92533678Y58117073D01*
X92533681Y58117067D01*
X92535965Y58112170D01*
X92539064Y58107743D01*
X92539066Y58107741D01*
X92668399Y57923034D01*
X92668402Y57923030D01*
X92671505Y57918599D01*
X92838599Y57751505D01*
X92843032Y57748401D01*
X92843038Y57748396D01*
X93024158Y57621575D01*
X93063024Y57577257D01*
X93077035Y57520000D01*
X93063024Y57462743D01*
X93024159Y57418425D01*
X92843041Y57291605D01*
X92838599Y57288495D01*
X92834775Y57284672D01*
X92834769Y57284666D01*
X92675334Y57125231D01*
X92675328Y57125225D01*
X92671505Y57121401D01*
X92668402Y57116971D01*
X92668399Y57116966D01*
X92539073Y56932269D01*
X92539068Y56932262D01*
X92535965Y56927829D01*
X92533677Y56922923D01*
X92533675Y56922919D01*
X92438386Y56718573D01*
X92438383Y56718568D01*
X92436097Y56713663D01*
X92434698Y56708443D01*
X92434694Y56708431D01*
X92376337Y56490635D01*
X92376335Y56490629D01*
X92374937Y56485408D01*
X92354341Y56250000D01*
X92374937Y56014592D01*
X92376336Y56009370D01*
X92376337Y56009366D01*
X92434694Y55791570D01*
X92434697Y55791562D01*
X92436097Y55786337D01*
X92438385Y55781430D01*
X92438386Y55781428D01*
X92533678Y55577073D01*
X92533681Y55577067D01*
X92535965Y55572170D01*
X92539064Y55567743D01*
X92539066Y55567741D01*
X92668399Y55383034D01*
X92668402Y55383030D01*
X92671505Y55378599D01*
X92838599Y55211505D01*
X92843032Y55208401D01*
X92843038Y55208396D01*
X93024158Y55081575D01*
X93063024Y55037257D01*
X93077035Y54980000D01*
X93063024Y54922743D01*
X93024159Y54878425D01*
X92843041Y54751605D01*
X92838599Y54748495D01*
X92834775Y54744672D01*
X92834769Y54744666D01*
X92675334Y54585231D01*
X92675328Y54585225D01*
X92671505Y54581401D01*
X92668402Y54576971D01*
X92668399Y54576966D01*
X92539073Y54392269D01*
X92539068Y54392262D01*
X92535965Y54387829D01*
X92533677Y54382923D01*
X92533675Y54382919D01*
X92438386Y54178573D01*
X92438383Y54178568D01*
X92436097Y54173663D01*
X92434698Y54168443D01*
X92434694Y54168431D01*
X92376337Y53950635D01*
X92376335Y53950629D01*
X92374937Y53945408D01*
X92374465Y53940023D01*
X92374465Y53940018D01*
X92363739Y53817422D01*
X92354341Y53710000D01*
X92354813Y53704605D01*
X92372267Y53505103D01*
X92374937Y53474592D01*
X92376336Y53469370D01*
X92376337Y53469366D01*
X92434694Y53251570D01*
X92434697Y53251562D01*
X92436097Y53246337D01*
X92438385Y53241430D01*
X92438386Y53241428D01*
X92533678Y53037073D01*
X92533681Y53037067D01*
X92535965Y53032170D01*
X92539064Y53027743D01*
X92539066Y53027741D01*
X92668399Y52843034D01*
X92668402Y52843030D01*
X92671505Y52838599D01*
X92838599Y52671505D01*
X92843032Y52668401D01*
X92843038Y52668396D01*
X93024158Y52541575D01*
X93063024Y52497257D01*
X93077035Y52440000D01*
X93063024Y52382743D01*
X93024159Y52338425D01*
X92843041Y52211605D01*
X92838599Y52208495D01*
X92834775Y52204672D01*
X92834769Y52204666D01*
X92675334Y52045231D01*
X92675328Y52045225D01*
X92671505Y52041401D01*
X92668402Y52036971D01*
X92668399Y52036966D01*
X92539073Y51852269D01*
X92539068Y51852262D01*
X92535965Y51847829D01*
X92533677Y51842923D01*
X92533675Y51842919D01*
X92438386Y51638573D01*
X92438383Y51638568D01*
X92436097Y51633663D01*
X92434698Y51628443D01*
X92434694Y51628431D01*
X92376337Y51410635D01*
X92376335Y51410629D01*
X92374937Y51405408D01*
X92374465Y51400023D01*
X92374465Y51400018D01*
X92359219Y51225757D01*
X92354341Y51170000D01*
X92354813Y51164605D01*
X92364390Y51055135D01*
X92374937Y50934592D01*
X92376336Y50929370D01*
X92376337Y50929366D01*
X92434694Y50711570D01*
X92434697Y50711562D01*
X92436097Y50706337D01*
X92438385Y50701430D01*
X92438386Y50701428D01*
X92533678Y50497073D01*
X92533681Y50497067D01*
X92535965Y50492170D01*
X92539064Y50487743D01*
X92539066Y50487741D01*
X92668399Y50303034D01*
X92668402Y50303030D01*
X92671505Y50298599D01*
X92838599Y50131505D01*
X93032170Y49995965D01*
X93246337Y49896097D01*
X93474592Y49834937D01*
X93710000Y49814341D01*
X93945408Y49834937D01*
X94173663Y49896097D01*
X94387830Y49995965D01*
X94581401Y50131505D01*
X94748495Y50298599D01*
X94878730Y50484595D01*
X94923048Y50523460D01*
X94980305Y50537471D01*
X95037562Y50523460D01*
X95081880Y50484595D01*
X95208784Y50303357D01*
X95215721Y50295091D01*
X95375090Y50135722D01*
X95383356Y50128785D01*
X95567991Y49999502D01*
X95577323Y49994114D01*
X95781602Y49898857D01*
X95791736Y49895169D01*
X95986219Y49843057D01*
X95997448Y49842689D01*
X96000000Y49853631D01*
X96500000Y49853631D01*
X96502551Y49842689D01*
X96513780Y49843057D01*
X96708263Y49895169D01*
X96718397Y49898857D01*
X96922676Y49994114D01*
X96932008Y49999502D01*
X97116643Y50128785D01*
X97124909Y50135722D01*
X97284278Y50295091D01*
X97291215Y50303357D01*
X97420498Y50487992D01*
X97425886Y50497324D01*
X97521143Y50701603D01*
X97524831Y50711737D01*
X97576943Y50906220D01*
X97577311Y50917449D01*
X97566369Y50920000D01*
X96516326Y50920000D01*
X96503450Y50916550D01*
X96500000Y50903674D01*
X96500000Y49853631D01*
X96000000Y49853631D01*
X96000000Y51296000D01*
X96016613Y51358000D01*
X96062000Y51403387D01*
X96124000Y51420000D01*
X97566369Y51420000D01*
X97577311Y51422552D01*
X97576943Y51433781D01*
X97524831Y51628264D01*
X97521143Y51638398D01*
X97425889Y51842668D01*
X97420491Y51852018D01*
X97291215Y52036643D01*
X97284280Y52044908D01*
X97124909Y52204279D01*
X97116643Y52211216D01*
X96935405Y52338120D01*
X96896540Y52382438D01*
X96882529Y52439695D01*
X96896540Y52496952D01*
X96935406Y52541270D01*
X96978371Y52571354D01*
X97121401Y52671505D01*
X97288495Y52838599D01*
X97424035Y53032170D01*
X97523903Y53246337D01*
X97585063Y53474592D01*
X97605659Y53710000D01*
X97585063Y53945408D01*
X97531908Y54143788D01*
X97525305Y54168431D01*
X97525304Y54168433D01*
X97523903Y54173663D01*
X97424035Y54387829D01*
X97288495Y54581401D01*
X97121401Y54748495D01*
X97116968Y54751599D01*
X97116961Y54751605D01*
X96935842Y54878425D01*
X96896976Y54922743D01*
X96882965Y54980000D01*
X96896976Y55037257D01*
X96935842Y55081575D01*
X97116961Y55208396D01*
X97116961Y55208397D01*
X97121401Y55211505D01*
X97288495Y55378599D01*
X97424035Y55572170D01*
X97523903Y55786337D01*
X97585063Y56014592D01*
X97605659Y56250000D01*
X97585063Y56485408D01*
X97523903Y56713663D01*
X97424035Y56927829D01*
X97288495Y57121401D01*
X97121401Y57288495D01*
X97116968Y57291599D01*
X97116961Y57291605D01*
X96935842Y57418425D01*
X96896976Y57462743D01*
X96882965Y57520000D01*
X96896976Y57577257D01*
X96935842Y57621575D01*
X97116961Y57748396D01*
X97116961Y57748397D01*
X97121401Y57751505D01*
X97288495Y57918599D01*
X97424035Y58112170D01*
X97523903Y58326337D01*
X97585063Y58554592D01*
X97605659Y58790000D01*
X97585063Y59025408D01*
X97523903Y59253663D01*
X97424035Y59467829D01*
X97288495Y59661401D01*
X97121401Y59828495D01*
X97116968Y59831599D01*
X97116961Y59831605D01*
X96935842Y59958425D01*
X96896976Y60002743D01*
X96882965Y60060000D01*
X96896976Y60117257D01*
X96935842Y60161575D01*
X97116961Y60288396D01*
X97116961Y60288397D01*
X97121401Y60291505D01*
X97288495Y60458599D01*
X97424035Y60652170D01*
X97523903Y60866337D01*
X97585063Y61094592D01*
X97605659Y61330000D01*
X97585063Y61565408D01*
X97523903Y61793663D01*
X97424035Y62007829D01*
X97288495Y62201401D01*
X97121401Y62368495D01*
X97116968Y62371599D01*
X97116961Y62371605D01*
X96935842Y62498425D01*
X96896976Y62542743D01*
X96882965Y62600000D01*
X96896976Y62657257D01*
X96935842Y62701575D01*
X97116961Y62828396D01*
X97116961Y62828397D01*
X97121401Y62831505D01*
X97288495Y62998599D01*
X97424035Y63192170D01*
X97523903Y63406337D01*
X97585063Y63634592D01*
X97605659Y63870000D01*
X97585063Y64105408D01*
X97523903Y64333663D01*
X97424035Y64547829D01*
X97288495Y64741401D01*
X97121401Y64908495D01*
X97116970Y64911598D01*
X97116966Y64911601D01*
X96935841Y65038426D01*
X96896976Y65082744D01*
X96882965Y65140001D01*
X96896976Y65197258D01*
X96935839Y65241574D01*
X97121401Y65371505D01*
X97288495Y65538599D01*
X97424035Y65732170D01*
X97523903Y65946337D01*
X97585063Y66174592D01*
X97605659Y66410000D01*
X97585063Y66645408D01*
X97523903Y66873663D01*
X97424035Y67087829D01*
X97288495Y67281401D01*
X97121401Y67448495D01*
X97116970Y67451598D01*
X97116966Y67451601D01*
X96932259Y67580934D01*
X96932257Y67580936D01*
X96927830Y67584035D01*
X96922933Y67586319D01*
X96922927Y67586322D01*
X96718572Y67681614D01*
X96718570Y67681615D01*
X96713663Y67683903D01*
X96708438Y67685303D01*
X96708430Y67685306D01*
X96490634Y67743663D01*
X96490630Y67743664D01*
X96485408Y67745063D01*
X96480020Y67745535D01*
X96480017Y67745535D01*
X96255395Y67765187D01*
X96250000Y67765659D01*
X96244605Y67765187D01*
X96019982Y67745535D01*
X96019977Y67745535D01*
X96014592Y67745063D01*
X96009371Y67743665D01*
X96009365Y67743663D01*
X95791569Y67685306D01*
X95791557Y67685302D01*
X95786337Y67683903D01*
X95781432Y67681617D01*
X95781427Y67681614D01*
X95577081Y67586325D01*
X95577077Y67586323D01*
X95572171Y67584035D01*
X95567738Y67580932D01*
X95567731Y67580927D01*
X95383034Y67451601D01*
X95383029Y67451598D01*
X95378599Y67448495D01*
X95374774Y67444671D01*
X95374775Y67444671D01*
X95256673Y67326569D01*
X95203926Y67295274D01*
X95142633Y67293085D01*
X95087789Y67320538D01*
X95052810Y67370918D01*
X95041522Y67401181D01*
X95003796Y67502331D01*
X94917546Y67617546D01*
X94827030Y67685306D01*
X94809431Y67698481D01*
X94809430Y67698482D01*
X94802331Y67703796D01*
X94695442Y67743663D01*
X94674752Y67751380D01*
X94674750Y67751381D01*
X94667483Y67754091D01*
X94659770Y67754921D01*
X94659767Y67754921D01*
X94611180Y67760145D01*
X94611169Y67760146D01*
X94607873Y67760500D01*
X94604551Y67760500D01*
X94434500Y67760500D01*
X94372500Y67777113D01*
X94327113Y67822500D01*
X94310500Y67884500D01*
X94310500Y78306613D01*
X94311561Y78322798D01*
X94314621Y78346041D01*
X94315682Y78354100D01*
X94295044Y78510862D01*
X94234536Y78656941D01*
X94236156Y78657613D01*
X94222105Y78713270D01*
X94242452Y78777805D01*
X94293645Y78822046D01*
X94387830Y78865965D01*
X94581401Y79001505D01*
X94748495Y79168599D01*
X94878730Y79354595D01*
X94923048Y79393460D01*
X94980305Y79407471D01*
X95037562Y79393460D01*
X95081880Y79354595D01*
X95208784Y79173357D01*
X95215721Y79165091D01*
X95375090Y79005722D01*
X95383356Y78998785D01*
X95567991Y78869502D01*
X95577323Y78864114D01*
X95781602Y78768857D01*
X95791736Y78765169D01*
X95986219Y78713057D01*
X95997448Y78712689D01*
X96000000Y78723631D01*
X96500000Y78723631D01*
X96502551Y78712689D01*
X96513780Y78713057D01*
X96708263Y78765169D01*
X96718397Y78768857D01*
X96922676Y78864114D01*
X96932008Y78869502D01*
X97116643Y78998785D01*
X97124909Y79005722D01*
X97284278Y79165091D01*
X97291215Y79173357D01*
X97420498Y79357992D01*
X97425886Y79367324D01*
X97521143Y79571603D01*
X97524831Y79581737D01*
X97576943Y79776220D01*
X97577311Y79787449D01*
X97566369Y79790000D01*
X96516326Y79790000D01*
X96503450Y79786550D01*
X96500000Y79773674D01*
X96500000Y78723631D01*
X96000000Y78723631D01*
X96000000Y80166000D01*
X96016613Y80228000D01*
X96062000Y80273387D01*
X96124000Y80290000D01*
X97566369Y80290000D01*
X97577311Y80292552D01*
X97576943Y80303781D01*
X97524831Y80498264D01*
X97521143Y80508398D01*
X97425889Y80712668D01*
X97420491Y80722018D01*
X97291215Y80906643D01*
X97284280Y80914908D01*
X97124909Y81074279D01*
X97116643Y81081216D01*
X96935405Y81208120D01*
X96896540Y81252438D01*
X96882529Y81309695D01*
X96896540Y81366952D01*
X96935406Y81411270D01*
X96949968Y81421466D01*
X97083461Y81514939D01*
X97116961Y81538396D01*
X97116961Y81538397D01*
X97121401Y81541505D01*
X97288495Y81708599D01*
X97424035Y81902170D01*
X97523903Y82116337D01*
X97585063Y82344592D01*
X97605659Y82580000D01*
X97585063Y82815408D01*
X97523903Y83043663D01*
X97424035Y83257829D01*
X97288495Y83451401D01*
X97121401Y83618495D01*
X97116968Y83621599D01*
X97116961Y83621605D01*
X96935842Y83748425D01*
X96896976Y83792743D01*
X96882965Y83850000D01*
X96896976Y83907257D01*
X96935842Y83951575D01*
X97116961Y84078396D01*
X97116961Y84078397D01*
X97121401Y84081505D01*
X97288495Y84248599D01*
X97424035Y84442170D01*
X97523903Y84656337D01*
X97585063Y84884592D01*
X97605659Y85120000D01*
X97585063Y85355408D01*
X97523903Y85583663D01*
X97424035Y85797829D01*
X97288495Y85991401D01*
X97121401Y86158495D01*
X97116970Y86161598D01*
X97116966Y86161601D01*
X96935841Y86288426D01*
X96896976Y86332744D01*
X96882965Y86390001D01*
X96896976Y86447258D01*
X96935839Y86491574D01*
X97121401Y86621505D01*
X97288495Y86788599D01*
X97424035Y86982170D01*
X97523903Y87196337D01*
X97585063Y87424592D01*
X97605659Y87660000D01*
X97585063Y87895408D01*
X97523903Y88123663D01*
X97424035Y88337829D01*
X97288495Y88531401D01*
X97121401Y88698495D01*
X97116968Y88701599D01*
X97116961Y88701605D01*
X96935842Y88828425D01*
X96896976Y88872743D01*
X96882965Y88930000D01*
X96896976Y88987257D01*
X96935842Y89031575D01*
X97116961Y89158396D01*
X97116961Y89158397D01*
X97121401Y89161505D01*
X97288495Y89328599D01*
X97424035Y89522170D01*
X97523903Y89736337D01*
X97585063Y89964592D01*
X97605659Y90200000D01*
X97585063Y90435408D01*
X97523903Y90663663D01*
X97424035Y90877829D01*
X97288495Y91071401D01*
X97121401Y91238495D01*
X97116968Y91241599D01*
X97116961Y91241605D01*
X96935842Y91368425D01*
X96896976Y91412743D01*
X96882965Y91470000D01*
X96896976Y91527257D01*
X96935842Y91571575D01*
X97116961Y91698396D01*
X97116961Y91698397D01*
X97121401Y91701505D01*
X97288495Y91868599D01*
X97424035Y92062170D01*
X97523903Y92276337D01*
X97585063Y92504592D01*
X97605659Y92740000D01*
X97585063Y92975408D01*
X97523903Y93203663D01*
X97424035Y93417829D01*
X97288495Y93611401D01*
X97121401Y93778495D01*
X97116970Y93781598D01*
X97116966Y93781601D01*
X96935841Y93908426D01*
X96896976Y93952744D01*
X96882965Y94010001D01*
X96896976Y94067258D01*
X96935839Y94111574D01*
X97121401Y94241505D01*
X97288495Y94408599D01*
X97424035Y94602170D01*
X97523903Y94816337D01*
X97585063Y95044592D01*
X97605659Y95280000D01*
X97585063Y95515408D01*
X97523903Y95743663D01*
X97424035Y95957829D01*
X97288495Y96151401D01*
X97121401Y96318495D01*
X97116970Y96321598D01*
X97116966Y96321601D01*
X96932259Y96450934D01*
X96932257Y96450936D01*
X96927830Y96454035D01*
X96922933Y96456319D01*
X96922927Y96456322D01*
X96718572Y96551614D01*
X96718570Y96551615D01*
X96713663Y96553903D01*
X96708438Y96555303D01*
X96708430Y96555306D01*
X96490634Y96613663D01*
X96490630Y96613664D01*
X96485408Y96615063D01*
X96480020Y96615535D01*
X96480017Y96615535D01*
X96255395Y96635187D01*
X96250000Y96635659D01*
X96244605Y96635187D01*
X96019982Y96615535D01*
X96019977Y96615535D01*
X96014592Y96615063D01*
X96009371Y96613665D01*
X96009365Y96613663D01*
X95791569Y96555306D01*
X95791557Y96555302D01*
X95786337Y96553903D01*
X95781432Y96551617D01*
X95781427Y96551614D01*
X95577081Y96456325D01*
X95577077Y96456323D01*
X95572171Y96454035D01*
X95567738Y96450932D01*
X95567731Y96450927D01*
X95383034Y96321601D01*
X95383029Y96321598D01*
X95378599Y96318495D01*
X95374775Y96314672D01*
X95374775Y96314671D01*
X95256673Y96196569D01*
X95203926Y96165274D01*
X95142633Y96163085D01*
X95087789Y96190538D01*
X95052810Y96240918D01*
X95025304Y96314664D01*
X95003796Y96372331D01*
X94917546Y96487546D01*
X94827030Y96555306D01*
X94809431Y96568481D01*
X94809430Y96568482D01*
X94802331Y96573796D01*
X94695442Y96613663D01*
X94674752Y96621380D01*
X94674750Y96621381D01*
X94667483Y96624091D01*
X94659770Y96624921D01*
X94659767Y96624921D01*
X94611180Y96630145D01*
X94611169Y96630146D01*
X94607873Y96630500D01*
X94604550Y96630500D01*
X92815439Y96630500D01*
X92815420Y96630500D01*
X92812128Y96630499D01*
X92808850Y96630147D01*
X92808838Y96630146D01*
X92760231Y96624921D01*
X92760225Y96624920D01*
X92752517Y96624091D01*
X92745252Y96621382D01*
X92745246Y96621380D01*
X92625980Y96576896D01*
X92625978Y96576896D01*
X92617669Y96573796D01*
X92610572Y96568484D01*
X92610568Y96568481D01*
X92509550Y96492859D01*
X92509546Y96492856D01*
X92502454Y96487546D01*
X92497144Y96480454D01*
X92497141Y96480450D01*
X92421519Y96379432D01*
X92421516Y96379428D01*
X92416204Y96372331D01*
X92413104Y96364022D01*
X92413104Y96364020D01*
X92368620Y96244753D01*
X92368619Y96244750D01*
X92365909Y96237483D01*
X92365079Y96229773D01*
X92365079Y96229768D01*
X92359855Y96181181D01*
X92359854Y96181169D01*
X92359500Y96177873D01*
X92359500Y96174552D01*
X92359500Y96174551D01*
X92359500Y94385440D01*
X92359500Y94385422D01*
X92359501Y94382128D01*
X92359853Y94378850D01*
X92359854Y94378839D01*
X92365079Y94330232D01*
X92365080Y94330227D01*
X92365909Y94322517D01*
X92368619Y94315251D01*
X92368620Y94315247D01*
X92394695Y94245337D01*
X92416204Y94187669D01*
X92421518Y94180570D01*
X92421519Y94180569D01*
X92477367Y94105965D01*
X92502454Y94072454D01*
X92617669Y93986204D01*
X92707380Y93952744D01*
X92749082Y93937190D01*
X92799462Y93902211D01*
X92826915Y93847367D01*
X92824726Y93786074D01*
X92793431Y93733327D01*
X92671505Y93611401D01*
X92668402Y93606971D01*
X92668399Y93606966D01*
X92539073Y93422269D01*
X92539068Y93422262D01*
X92535965Y93417829D01*
X92533677Y93412923D01*
X92533675Y93412919D01*
X92438386Y93208573D01*
X92438383Y93208568D01*
X92436097Y93203663D01*
X92434698Y93198443D01*
X92434694Y93198431D01*
X92376337Y92980635D01*
X92376335Y92980629D01*
X92374937Y92975408D01*
X92354341Y92740000D01*
X92374937Y92504592D01*
X92376336Y92499370D01*
X92376337Y92499366D01*
X92434694Y92281570D01*
X92434697Y92281562D01*
X92436097Y92276337D01*
X92438383Y92271435D01*
X92438384Y92271432D01*
X92449822Y92246904D01*
X92461173Y92186389D01*
X92442019Y92127874D01*
X92397081Y92085786D01*
X92337439Y92070500D01*
X89925597Y92070500D01*
X89878144Y92079939D01*
X89837916Y92106819D01*
X89662199Y92282536D01*
X89651504Y92294731D01*
X89637228Y92313336D01*
X89632282Y92319782D01*
X89506841Y92416036D01*
X89499333Y92419146D01*
X89368271Y92473434D01*
X89368268Y92473435D01*
X89360762Y92476544D01*
X89352708Y92477605D01*
X89352702Y92477606D01*
X89243361Y92492000D01*
X89212059Y92496121D01*
X89204000Y92497182D01*
X89195941Y92496121D01*
X89172698Y92493061D01*
X89156513Y92492000D01*
X43050894Y92492000D01*
X43034708Y92493061D01*
X43011459Y92496122D01*
X43003400Y92497183D01*
X42995341Y92496122D01*
X42862137Y92478585D01*
X42862135Y92478585D01*
X42846637Y92476544D01*
X42846638Y92476544D01*
X42832527Y92470700D01*
X42832525Y92470699D01*
X42708066Y92419146D01*
X42708062Y92419145D01*
X42700559Y92416036D01*
X42694114Y92411092D01*
X42694111Y92411089D01*
X42581563Y92324728D01*
X42581560Y92324726D01*
X42575118Y92319782D01*
X42570173Y92313339D01*
X42570170Y92313335D01*
X42555890Y92294726D01*
X42545198Y92282535D01*
X40783961Y90521297D01*
X40728374Y90489203D01*
X40664186Y90489203D01*
X40608599Y90521297D01*
X40595232Y90534664D01*
X40595230Y90534666D01*
X40591401Y90538495D01*
X40586970Y90541598D01*
X40586966Y90541601D01*
X40402259Y90670934D01*
X40402257Y90670936D01*
X40397830Y90674035D01*
X40392930Y90676320D01*
X40392927Y90676322D01*
X40188572Y90771614D01*
X40188570Y90771615D01*
X40183663Y90773903D01*
X40178438Y90775303D01*
X40178430Y90775306D01*
X39960634Y90833663D01*
X39960630Y90833664D01*
X39955408Y90835063D01*
X39950020Y90835535D01*
X39950017Y90835535D01*
X39725395Y90855187D01*
X39720000Y90855659D01*
X39714605Y90855187D01*
X39489982Y90835535D01*
X39489977Y90835535D01*
X39484592Y90835063D01*
X39479371Y90833665D01*
X39479365Y90833663D01*
X39261569Y90775306D01*
X39261557Y90775302D01*
X39256337Y90773903D01*
X39251432Y90771617D01*
X39251427Y90771614D01*
X39047081Y90676325D01*
X39047077Y90676323D01*
X39042171Y90674035D01*
X39037738Y90670932D01*
X39037731Y90670927D01*
X38853034Y90541601D01*
X38853029Y90541598D01*
X38848599Y90538495D01*
X38844775Y90534672D01*
X38844769Y90534666D01*
X38685334Y90375231D01*
X38685328Y90375225D01*
X38681505Y90371401D01*
X38678402Y90366971D01*
X38678399Y90366966D01*
X38551575Y90185841D01*
X38507257Y90146975D01*
X38450000Y90132964D01*
X38392743Y90146975D01*
X38348425Y90185841D01*
X38221600Y90366966D01*
X38218495Y90371401D01*
X38051401Y90538495D01*
X38046970Y90541598D01*
X38046966Y90541601D01*
X37862259Y90670934D01*
X37862257Y90670936D01*
X37857830Y90674035D01*
X37852930Y90676320D01*
X37852927Y90676322D01*
X37648572Y90771614D01*
X37648570Y90771615D01*
X37643663Y90773903D01*
X37638438Y90775303D01*
X37638430Y90775306D01*
X37420634Y90833663D01*
X37420630Y90833664D01*
X37415408Y90835063D01*
X37410020Y90835535D01*
X37410017Y90835535D01*
X37185395Y90855187D01*
X37180000Y90855659D01*
X37174605Y90855187D01*
X36949982Y90835535D01*
X36949977Y90835535D01*
X36944592Y90835063D01*
X36939371Y90833665D01*
X36939365Y90833663D01*
X36721569Y90775306D01*
X36721557Y90775302D01*
X36716337Y90773903D01*
X36711432Y90771617D01*
X36711427Y90771614D01*
X36507081Y90676325D01*
X36507077Y90676323D01*
X36502171Y90674035D01*
X36497738Y90670932D01*
X36497731Y90670927D01*
X36313034Y90541601D01*
X36313029Y90541598D01*
X36308599Y90538495D01*
X36304775Y90534672D01*
X36304769Y90534666D01*
X36145334Y90375231D01*
X36145328Y90375225D01*
X36141505Y90371401D01*
X36138402Y90366971D01*
X36138399Y90366966D01*
X36011575Y90185841D01*
X35967257Y90146975D01*
X35910000Y90132964D01*
X35852743Y90146975D01*
X35808425Y90185841D01*
X35681600Y90366966D01*
X35678495Y90371401D01*
X35511401Y90538495D01*
X35506970Y90541598D01*
X35506966Y90541601D01*
X35322259Y90670934D01*
X35322257Y90670936D01*
X35317830Y90674035D01*
X35312930Y90676320D01*
X35312927Y90676322D01*
X35108572Y90771614D01*
X35108570Y90771615D01*
X35103663Y90773903D01*
X35098438Y90775303D01*
X35098430Y90775306D01*
X34880634Y90833663D01*
X34880630Y90833664D01*
X34875408Y90835063D01*
X34870020Y90835535D01*
X34870017Y90835535D01*
X34645395Y90855187D01*
X34640000Y90855659D01*
X34634605Y90855187D01*
X34409982Y90835535D01*
X34409977Y90835535D01*
X34404592Y90835063D01*
X34399371Y90833665D01*
X34399365Y90833663D01*
X34181569Y90775306D01*
X34181557Y90775302D01*
X34176337Y90773903D01*
X34171432Y90771617D01*
X34171427Y90771614D01*
X33967081Y90676325D01*
X33967077Y90676323D01*
X33962171Y90674035D01*
X33957738Y90670932D01*
X33957731Y90670927D01*
X33773034Y90541601D01*
X33773029Y90541598D01*
X33768599Y90538495D01*
X33764775Y90534672D01*
X33764769Y90534666D01*
X33605334Y90375231D01*
X33605328Y90375225D01*
X33601505Y90371401D01*
X33598402Y90366971D01*
X33598399Y90366966D01*
X33471575Y90185841D01*
X33427257Y90146975D01*
X33370000Y90132964D01*
X33312743Y90146975D01*
X33268425Y90185841D01*
X33141600Y90366966D01*
X33138495Y90371401D01*
X32971401Y90538495D01*
X32966970Y90541598D01*
X32966966Y90541601D01*
X32782259Y90670934D01*
X32782257Y90670936D01*
X32777830Y90674035D01*
X32772930Y90676320D01*
X32772927Y90676322D01*
X32568572Y90771614D01*
X32568570Y90771615D01*
X32563663Y90773903D01*
X32558438Y90775303D01*
X32558430Y90775306D01*
X32340634Y90833663D01*
X32340630Y90833664D01*
X32335408Y90835063D01*
X32330020Y90835535D01*
X32330017Y90835535D01*
X32105395Y90855187D01*
X32100000Y90855659D01*
X32094605Y90855187D01*
X31869982Y90835535D01*
X31869977Y90835535D01*
X31864592Y90835063D01*
X31859371Y90833665D01*
X31859365Y90833663D01*
X31641569Y90775306D01*
X31641557Y90775302D01*
X31636337Y90773903D01*
X31631432Y90771617D01*
X31631427Y90771614D01*
X31427081Y90676325D01*
X31427077Y90676323D01*
X31422171Y90674035D01*
X31417738Y90670932D01*
X31417731Y90670927D01*
X31233034Y90541601D01*
X31233029Y90541598D01*
X31228599Y90538495D01*
X31224775Y90534672D01*
X31224769Y90534666D01*
X31065334Y90375231D01*
X31065328Y90375225D01*
X31061505Y90371401D01*
X31058402Y90366971D01*
X31058399Y90366966D01*
X30931575Y90185841D01*
X30887257Y90146975D01*
X30830000Y90132964D01*
X30772743Y90146975D01*
X30728425Y90185841D01*
X30601600Y90366966D01*
X30598495Y90371401D01*
X30431401Y90538495D01*
X30426970Y90541598D01*
X30426966Y90541601D01*
X30242259Y90670934D01*
X30242257Y90670936D01*
X30237830Y90674035D01*
X30232930Y90676320D01*
X30232927Y90676322D01*
X30028572Y90771614D01*
X30028570Y90771615D01*
X30023663Y90773903D01*
X30018438Y90775303D01*
X30018430Y90775306D01*
X29800634Y90833663D01*
X29800630Y90833664D01*
X29795408Y90835063D01*
X29790020Y90835535D01*
X29790017Y90835535D01*
X29565395Y90855187D01*
X29560000Y90855659D01*
X29554605Y90855187D01*
X29329982Y90835535D01*
X29329977Y90835535D01*
X29324592Y90835063D01*
X29319371Y90833665D01*
X29319365Y90833663D01*
X29101569Y90775306D01*
X29101557Y90775302D01*
X29096337Y90773903D01*
X29091432Y90771617D01*
X29091427Y90771614D01*
X28887081Y90676325D01*
X28887077Y90676323D01*
X28882171Y90674035D01*
X28877738Y90670932D01*
X28877731Y90670927D01*
X28693034Y90541601D01*
X28693029Y90541598D01*
X28688599Y90538495D01*
X28684775Y90534672D01*
X28684769Y90534666D01*
X28525334Y90375231D01*
X28525328Y90375225D01*
X28521505Y90371401D01*
X28518402Y90366971D01*
X28518399Y90366966D01*
X28391575Y90185841D01*
X28347257Y90146975D01*
X28290000Y90132964D01*
X28232743Y90146975D01*
X28188425Y90185841D01*
X28061600Y90366966D01*
X28058495Y90371401D01*
X27891401Y90538495D01*
X27886970Y90541598D01*
X27886966Y90541601D01*
X27702259Y90670934D01*
X27702257Y90670936D01*
X27697830Y90674035D01*
X27692930Y90676320D01*
X27692927Y90676322D01*
X27488572Y90771614D01*
X27488570Y90771615D01*
X27483663Y90773903D01*
X27478438Y90775303D01*
X27478430Y90775306D01*
X27260634Y90833663D01*
X27260630Y90833664D01*
X27255408Y90835063D01*
X27250020Y90835535D01*
X27250017Y90835535D01*
X27025395Y90855187D01*
X27020000Y90855659D01*
X27014605Y90855187D01*
X26789982Y90835535D01*
X26789977Y90835535D01*
X26784592Y90835063D01*
X26779371Y90833665D01*
X26779365Y90833663D01*
X26561569Y90775306D01*
X26561557Y90775302D01*
X26556337Y90773903D01*
X26551432Y90771617D01*
X26551427Y90771614D01*
X26347081Y90676325D01*
X26347077Y90676323D01*
X26342171Y90674035D01*
X26337738Y90670932D01*
X26337731Y90670927D01*
X26153034Y90541601D01*
X26153029Y90541598D01*
X26148599Y90538495D01*
X26144775Y90534672D01*
X26144769Y90534666D01*
X25985334Y90375231D01*
X25985328Y90375225D01*
X25981505Y90371401D01*
X25978402Y90366971D01*
X25978399Y90366966D01*
X25851575Y90185841D01*
X25807257Y90146975D01*
X25750000Y90132964D01*
X25692743Y90146975D01*
X25648425Y90185841D01*
X25521600Y90366966D01*
X25518495Y90371401D01*
X25351401Y90538495D01*
X25346970Y90541598D01*
X25346966Y90541601D01*
X25162259Y90670934D01*
X25162257Y90670936D01*
X25157830Y90674035D01*
X25152930Y90676320D01*
X25152927Y90676322D01*
X24948572Y90771614D01*
X24948570Y90771615D01*
X24943663Y90773903D01*
X24938438Y90775303D01*
X24938430Y90775306D01*
X24720634Y90833663D01*
X24720630Y90833664D01*
X24715408Y90835063D01*
X24710020Y90835535D01*
X24710017Y90835535D01*
X24485395Y90855187D01*
X24480000Y90855659D01*
X24474605Y90855187D01*
X24249982Y90835535D01*
X24249977Y90835535D01*
X24244592Y90835063D01*
X24239371Y90833665D01*
X24239365Y90833663D01*
X24021569Y90775306D01*
X24021557Y90775302D01*
X24016337Y90773903D01*
X24011432Y90771617D01*
X24011427Y90771614D01*
X23807081Y90676325D01*
X23807077Y90676323D01*
X23802171Y90674035D01*
X23797738Y90670932D01*
X23797731Y90670927D01*
X23613034Y90541601D01*
X23613029Y90541598D01*
X23608599Y90538495D01*
X23604775Y90534672D01*
X23604769Y90534666D01*
X23445334Y90375231D01*
X23445328Y90375225D01*
X23441505Y90371401D01*
X23438402Y90366971D01*
X23438399Y90366966D01*
X23311575Y90185841D01*
X23267257Y90146975D01*
X23210000Y90132964D01*
X23152743Y90146975D01*
X23108425Y90185841D01*
X22981600Y90366966D01*
X22978495Y90371401D01*
X22811401Y90538495D01*
X22806970Y90541598D01*
X22806966Y90541601D01*
X22622259Y90670934D01*
X22622257Y90670936D01*
X22617830Y90674035D01*
X22612930Y90676320D01*
X22612927Y90676322D01*
X22408572Y90771614D01*
X22408570Y90771615D01*
X22403663Y90773903D01*
X22398438Y90775303D01*
X22398430Y90775306D01*
X22180634Y90833663D01*
X22180630Y90833664D01*
X22175408Y90835063D01*
X22170020Y90835535D01*
X22170017Y90835535D01*
X21945395Y90855187D01*
X21940000Y90855659D01*
X21934605Y90855187D01*
X21709982Y90835535D01*
X21709977Y90835535D01*
X21704592Y90835063D01*
X21699371Y90833665D01*
X21699365Y90833663D01*
X21481569Y90775306D01*
X21481557Y90775302D01*
X21476337Y90773903D01*
X21471432Y90771617D01*
X21471427Y90771614D01*
X21267081Y90676325D01*
X21267077Y90676323D01*
X21262171Y90674035D01*
X21257738Y90670932D01*
X21257731Y90670927D01*
X21073034Y90541601D01*
X21073029Y90541598D01*
X21068599Y90538495D01*
X21064775Y90534672D01*
X21064769Y90534666D01*
X20905334Y90375231D01*
X20905328Y90375225D01*
X20901505Y90371401D01*
X20898402Y90366971D01*
X20898399Y90366966D01*
X20771575Y90185841D01*
X20727257Y90146975D01*
X20670000Y90132964D01*
X20612743Y90146975D01*
X20568425Y90185841D01*
X20441600Y90366966D01*
X20438495Y90371401D01*
X20271401Y90538495D01*
X20266970Y90541598D01*
X20266966Y90541601D01*
X20082259Y90670934D01*
X20082257Y90670936D01*
X20077830Y90674035D01*
X20072930Y90676320D01*
X20072927Y90676322D01*
X19868572Y90771614D01*
X19868570Y90771615D01*
X19863663Y90773903D01*
X19858438Y90775303D01*
X19858430Y90775306D01*
X19640634Y90833663D01*
X19640630Y90833664D01*
X19635408Y90835063D01*
X19630020Y90835535D01*
X19630017Y90835535D01*
X19405395Y90855187D01*
X19400000Y90855659D01*
X19394605Y90855187D01*
X19169982Y90835535D01*
X19169977Y90835535D01*
X19164592Y90835063D01*
X19159371Y90833665D01*
X19159365Y90833663D01*
X18941569Y90775306D01*
X18941557Y90775302D01*
X18936337Y90773903D01*
X18931432Y90771617D01*
X18931427Y90771614D01*
X18727081Y90676325D01*
X18727077Y90676323D01*
X18722171Y90674035D01*
X18717738Y90670932D01*
X18717731Y90670927D01*
X18533034Y90541601D01*
X18533029Y90541598D01*
X18528599Y90538495D01*
X18524775Y90534672D01*
X18524769Y90534666D01*
X18365334Y90375231D01*
X18365328Y90375225D01*
X18361505Y90371401D01*
X18358402Y90366971D01*
X18358399Y90366966D01*
X18229073Y90182269D01*
X18229068Y90182262D01*
X18225965Y90177829D01*
X18223677Y90172923D01*
X18223675Y90172919D01*
X18128386Y89968573D01*
X18128383Y89968568D01*
X18126097Y89963663D01*
X18124698Y89958443D01*
X18124694Y89958431D01*
X18066337Y89740635D01*
X18066335Y89740629D01*
X18064937Y89735408D01*
X18064465Y89730023D01*
X18064465Y89730018D01*
X18050206Y89567035D01*
X18044341Y89500000D01*
X18044813Y89494605D01*
X18058948Y89333039D01*
X18064937Y89264592D01*
X18066336Y89259370D01*
X18066337Y89259366D01*
X18124694Y89041570D01*
X18124697Y89041562D01*
X18126097Y89036337D01*
X18128385Y89031430D01*
X18128386Y89031428D01*
X18223678Y88827073D01*
X18223681Y88827067D01*
X18225965Y88822170D01*
X18229064Y88817743D01*
X18229066Y88817741D01*
X18358399Y88633034D01*
X18358402Y88633030D01*
X18361505Y88628599D01*
X18365336Y88624769D01*
X18365336Y88624768D01*
X18483430Y88506674D01*
X18514726Y88453928D01*
X18516915Y88392635D01*
X18489462Y88337790D01*
X18439083Y88302811D01*
X18323702Y88259777D01*
X18307669Y88253796D01*
X18300572Y88248484D01*
X18300568Y88248481D01*
X18199550Y88172859D01*
X18199546Y88172856D01*
X18192454Y88167546D01*
X18187144Y88160454D01*
X18187141Y88160450D01*
X18111519Y88059432D01*
X18111516Y88059428D01*
X18106204Y88052331D01*
X18103104Y88044022D01*
X18103104Y88044020D01*
X18058620Y87924753D01*
X18058619Y87924750D01*
X18055909Y87917483D01*
X18055079Y87909773D01*
X18055079Y87909768D01*
X18049855Y87861181D01*
X18049854Y87861169D01*
X18049500Y87857873D01*
X18049500Y87854552D01*
X18049500Y87854551D01*
X18049500Y86065440D01*
X18049500Y86065422D01*
X18049501Y86062128D01*
X18049853Y86058850D01*
X18049854Y86058839D01*
X18055079Y86010232D01*
X18055080Y86010227D01*
X18055909Y86002517D01*
X18058619Y85995251D01*
X18058620Y85995247D01*
X18061709Y85986966D01*
X18106204Y85867669D01*
X18111518Y85860570D01*
X18111519Y85860569D01*
X18181610Y85766939D01*
X18192454Y85752454D01*
X18307669Y85666204D01*
X18442517Y85615909D01*
X18492991Y85610483D01*
X18541367Y85594791D01*
X18579377Y85560995D01*
X18600623Y85514783D01*
X18608017Y85482383D01*
X18610345Y85468682D01*
X18613852Y85437564D01*
X18614632Y85430645D01*
X18616929Y85424079D01*
X18616930Y85424077D01*
X18627272Y85394521D01*
X18631119Y85381165D01*
X18638088Y85350633D01*
X18638091Y85350624D01*
X18639640Y85343839D01*
X18642658Y85337571D01*
X18642661Y85337564D01*
X18656250Y85309346D01*
X18661568Y85296507D01*
X18674211Y85260378D01*
X18677912Y85254488D01*
X18677913Y85254486D01*
X18694572Y85227973D01*
X18701296Y85215807D01*
X18714888Y85187585D01*
X18717909Y85181313D01*
X18741771Y85151391D01*
X18749818Y85140050D01*
X18770184Y85107638D01*
X18775112Y85102711D01*
X18775112Y85102710D01*
X21123181Y82754641D01*
X21150061Y82714413D01*
X21159500Y82666960D01*
X21159500Y67652690D01*
X21145489Y67595432D01*
X21106621Y67551114D01*
X21093036Y67541603D01*
X21093027Y67541596D01*
X21088599Y67538495D01*
X21084774Y67534671D01*
X21084775Y67534671D01*
X20966673Y67416569D01*
X20913926Y67385274D01*
X20852633Y67383085D01*
X20797789Y67410538D01*
X20762810Y67460918D01*
X20744715Y67509432D01*
X20713796Y67592331D01*
X20627546Y67707546D01*
X20605968Y67723699D01*
X20519431Y67788481D01*
X20519430Y67788482D01*
X20512331Y67793796D01*
X20402651Y67834704D01*
X20384752Y67841380D01*
X20384750Y67841381D01*
X20377483Y67844091D01*
X20369770Y67844921D01*
X20369767Y67844921D01*
X20321180Y67850145D01*
X20321169Y67850146D01*
X20317873Y67850500D01*
X20314550Y67850500D01*
X18525439Y67850500D01*
X18525420Y67850500D01*
X18522128Y67850499D01*
X18518850Y67850147D01*
X18518838Y67850146D01*
X18470231Y67844921D01*
X18470225Y67844920D01*
X18462517Y67844091D01*
X18455252Y67841382D01*
X18455246Y67841380D01*
X18335980Y67796896D01*
X18335978Y67796896D01*
X18327669Y67793796D01*
X18320572Y67788484D01*
X18320568Y67788481D01*
X18219550Y67712859D01*
X18219546Y67712856D01*
X18212454Y67707546D01*
X18207144Y67700454D01*
X18207141Y67700450D01*
X18131519Y67599432D01*
X18131516Y67599428D01*
X18126204Y67592331D01*
X18123104Y67584022D01*
X18123104Y67584020D01*
X18078620Y67464753D01*
X18078619Y67464750D01*
X18075909Y67457483D01*
X18075079Y67449773D01*
X18075079Y67449768D01*
X18069855Y67401181D01*
X18069854Y67401169D01*
X18069500Y67397873D01*
X18069500Y67394552D01*
X18069500Y67394551D01*
X18069500Y65605440D01*
X18069500Y65605422D01*
X18069501Y65602128D01*
X18069853Y65598850D01*
X18069854Y65598839D01*
X18075079Y65550232D01*
X18075080Y65550227D01*
X18075909Y65542517D01*
X18078619Y65535251D01*
X18078620Y65535247D01*
X18104696Y65465335D01*
X18126204Y65407669D01*
X18212454Y65292454D01*
X18327669Y65206204D01*
X18462517Y65155909D01*
X18522127Y65149500D01*
X20317872Y65149501D01*
X20377483Y65155909D01*
X20512331Y65206204D01*
X20627546Y65292454D01*
X20713796Y65407669D01*
X20762810Y65539084D01*
X20797789Y65589463D01*
X20852634Y65616916D01*
X20913927Y65614727D01*
X20966673Y65583431D01*
X21088599Y65461505D01*
X21093034Y65458400D01*
X21093036Y65458398D01*
X21106621Y65448886D01*
X21145489Y65404568D01*
X21159500Y65347310D01*
X21159500Y44940294D01*
X21159500Y44759906D01*
X21161049Y44753117D01*
X21161050Y44753112D01*
X21168017Y44722582D01*
X21170345Y44708882D01*
X21172129Y44693053D01*
X21174632Y44670845D01*
X21176929Y44664279D01*
X21176930Y44664277D01*
X21187272Y44634721D01*
X21191119Y44621365D01*
X21198088Y44590833D01*
X21198091Y44590824D01*
X21199640Y44584039D01*
X21202658Y44577771D01*
X21202661Y44577764D01*
X21216250Y44549546D01*
X21221568Y44536707D01*
X21234211Y44500578D01*
X21237912Y44494688D01*
X21237913Y44494686D01*
X21254572Y44468173D01*
X21261296Y44456007D01*
X21268864Y44440294D01*
X21277909Y44421513D01*
X21299009Y44395054D01*
X21301771Y44391591D01*
X21309818Y44380250D01*
X21328662Y44350260D01*
X21329638Y44347293D01*
X21330184Y44347838D01*
X21526382Y44151640D01*
X21558476Y44096052D01*
X21558476Y44031865D01*
X21526383Y43976280D01*
X21473770Y43923666D01*
X21466285Y43916181D01*
X21413538Y43884886D01*
X21352245Y43882697D01*
X21297401Y43910150D01*
X21262422Y43960529D01*
X21216451Y44083780D01*
X21208035Y44099195D01*
X21142101Y44187270D01*
X21139088Y44194738D01*
X21135987Y44196607D01*
X21120092Y44212502D01*
X21019189Y44288038D01*
X21003777Y44296453D01*
X20884641Y44340889D01*
X20869667Y44344427D01*
X20821114Y44349647D01*
X20814518Y44350000D01*
X20186326Y44350000D01*
X20173450Y44346550D01*
X20170000Y44333674D01*
X20170000Y41666326D01*
X20173450Y41653451D01*
X20186326Y41650000D01*
X20814518Y41650000D01*
X20821114Y41650354D01*
X20869667Y41655574D01*
X20884641Y41659112D01*
X21003777Y41703548D01*
X21019190Y41711963D01*
X21106117Y41777037D01*
X21132170Y41787830D01*
X21142963Y41813883D01*
X21208037Y41900810D01*
X21216452Y41916223D01*
X21262422Y42039471D01*
X21297401Y42089851D01*
X21352246Y42117304D01*
X21413539Y42115115D01*
X21466285Y42083819D01*
X21526381Y42023723D01*
X21558475Y41968136D01*
X21558475Y41903948D01*
X21526381Y41848361D01*
X21329910Y41651890D01*
X21291123Y41628877D01*
X21268110Y41590090D01*
X2322138Y22644117D01*
X2322135Y22644114D01*
X2322136Y22644114D01*
X2194584Y22516562D01*
X2190879Y22510668D01*
X2190879Y22510666D01*
X2174216Y22484148D01*
X2166173Y22472813D01*
X2146653Y22448335D01*
X2146651Y22448333D01*
X2142309Y22442887D01*
X2139289Y22436618D01*
X2139283Y22436607D01*
X2125699Y22408400D01*
X2118977Y22396236D01*
X2104327Y22372919D01*
X2098611Y22363822D01*
X2096315Y22357263D01*
X2096311Y22357253D01*
X2085965Y22327687D01*
X2080647Y22314849D01*
X2067060Y22286634D01*
X2067057Y22286629D01*
X2064040Y22280361D01*
X2062492Y22273583D01*
X2062489Y22273572D01*
X2055518Y22243032D01*
X2051672Y22229681D01*
X2039032Y22193555D01*
X2038252Y22186637D01*
X2038252Y22186635D01*
X2034745Y22155519D01*
X2032417Y22141821D01*
X2025450Y22111292D01*
X2025448Y22111280D01*
X2023900Y22104494D01*
X2023900Y22059254D01*
X2023900Y9185794D01*
X2023900Y9005406D01*
X500000Y9005406D01*
X500000Y42105482D01*
X18570000Y42105482D01*
X18570353Y42098886D01*
X18575573Y42050333D01*
X18579111Y42035359D01*
X18623547Y41916223D01*
X18631962Y41900811D01*
X18707498Y41799908D01*
X18719907Y41787499D01*
X18820810Y41711963D01*
X18836222Y41703548D01*
X18955358Y41659112D01*
X18970332Y41655574D01*
X19018885Y41650354D01*
X19025482Y41650000D01*
X19653674Y41650000D01*
X19666549Y41653451D01*
X19670000Y41666326D01*
X19670000Y42733674D01*
X19666549Y42746550D01*
X19653674Y42750000D01*
X18586326Y42750000D01*
X18573450Y42746550D01*
X18570000Y42733674D01*
X18570000Y42105482D01*
X500000Y42105482D01*
X500000Y43266326D01*
X18570000Y43266326D01*
X18573450Y43253451D01*
X18586326Y43250000D01*
X19653674Y43250000D01*
X19666549Y43253451D01*
X19670000Y43266326D01*
X19670000Y44333674D01*
X19666549Y44346550D01*
X19653674Y44350000D01*
X19025482Y44350000D01*
X19018885Y44349647D01*
X18970332Y44344427D01*
X18955358Y44340889D01*
X18836222Y44296453D01*
X18820810Y44288038D01*
X18719907Y44212502D01*
X18707498Y44200093D01*
X18631962Y44099190D01*
X18623547Y44083778D01*
X18579111Y43964642D01*
X18575573Y43949668D01*
X18570353Y43901115D01*
X18570000Y43894518D01*
X18570000Y43266326D01*
X500000Y43266326D01*
X500000Y72500000D01*
X17114532Y72500000D01*
X17115004Y72494605D01*
X17132326Y72296605D01*
X17134365Y72273308D01*
X17135762Y72268093D01*
X17135764Y72268084D01*
X17191858Y72058737D01*
X17191861Y72058729D01*
X17193261Y72053504D01*
X17195549Y72048597D01*
X17195550Y72048595D01*
X17213363Y72010395D01*
X17289432Y71847266D01*
X17419953Y71660861D01*
X17580861Y71499953D01*
X17767266Y71369432D01*
X17973504Y71273261D01*
X17978734Y71271860D01*
X17978736Y71271859D01*
X18094423Y71240861D01*
X18193308Y71214365D01*
X18420000Y71194532D01*
X18646692Y71214365D01*
X18866496Y71273261D01*
X19072734Y71369432D01*
X19259139Y71499953D01*
X19420047Y71660861D01*
X19550568Y71847266D01*
X19646739Y72053504D01*
X19705635Y72273308D01*
X19725468Y72500000D01*
X19705635Y72726692D01*
X19687845Y72793084D01*
X19648141Y72941264D01*
X19648140Y72941266D01*
X19646739Y72946496D01*
X19550568Y73152734D01*
X19420047Y73339139D01*
X19259139Y73500047D01*
X19131183Y73589642D01*
X19077173Y73627460D01*
X19077171Y73627461D01*
X19072734Y73630568D01*
X18898295Y73711911D01*
X18871405Y73724450D01*
X18871403Y73724451D01*
X18866496Y73726739D01*
X18861271Y73728139D01*
X18861263Y73728142D01*
X18651916Y73784236D01*
X18651907Y73784238D01*
X18646692Y73785635D01*
X18641304Y73786107D01*
X18641301Y73786107D01*
X18425395Y73804996D01*
X18420000Y73805468D01*
X18414605Y73804996D01*
X18198698Y73786107D01*
X18198693Y73786107D01*
X18193308Y73785635D01*
X18188094Y73784238D01*
X18188083Y73784236D01*
X17978736Y73728142D01*
X17978724Y73728138D01*
X17973504Y73726739D01*
X17968599Y73724453D01*
X17968594Y73724450D01*
X17772176Y73632858D01*
X17772172Y73632856D01*
X17767266Y73630568D01*
X17762833Y73627465D01*
X17762826Y73627460D01*
X17585296Y73503153D01*
X17585291Y73503150D01*
X17580861Y73500047D01*
X17577037Y73496224D01*
X17577031Y73496218D01*
X17423782Y73342969D01*
X17423776Y73342963D01*
X17419953Y73339139D01*
X17416850Y73334709D01*
X17416847Y73334704D01*
X17292540Y73157174D01*
X17292535Y73157167D01*
X17289432Y73152734D01*
X17287144Y73147828D01*
X17287142Y73147824D01*
X17195550Y72951406D01*
X17195547Y72951401D01*
X17193261Y72946496D01*
X17191862Y72941276D01*
X17191858Y72941264D01*
X17135764Y72731917D01*
X17135762Y72731906D01*
X17134365Y72726692D01*
X17133893Y72721307D01*
X17133893Y72721302D01*
X17121400Y72578504D01*
X17114532Y72500000D01*
X500000Y72500000D01*
X500000Y85626397D01*
X6278217Y85626397D01*
X6285650Y85618286D01*
X6343077Y85578075D01*
X6352427Y85572677D01*
X6548768Y85481121D01*
X6558902Y85477433D01*
X6768162Y85421361D01*
X6778793Y85419487D01*
X6994605Y85400606D01*
X7005395Y85400606D01*
X7221206Y85419487D01*
X7231837Y85421361D01*
X7441097Y85477433D01*
X7451231Y85481121D01*
X7647575Y85572678D01*
X7656920Y85578074D01*
X7714348Y85618286D01*
X7721780Y85626397D01*
X7715867Y85635679D01*
X7011542Y86340005D01*
X7000000Y86346669D01*
X6988457Y86340005D01*
X6284128Y85635676D01*
X6278217Y85626397D01*
X500000Y85626397D01*
X500000Y86699705D01*
X5695506Y86699705D01*
X5714386Y86483894D01*
X5716260Y86473263D01*
X5772332Y86264003D01*
X5776020Y86253869D01*
X5867576Y86057528D01*
X5872974Y86048178D01*
X5913184Y85990752D01*
X5921295Y85983319D01*
X5930574Y85989230D01*
X6634903Y86693558D01*
X6641567Y86705100D01*
X7358431Y86705100D01*
X7365095Y86693558D01*
X8069421Y85989233D01*
X8078703Y85983320D01*
X8086814Y85990752D01*
X8127026Y86048180D01*
X8132422Y86057525D01*
X8223979Y86253869D01*
X8227667Y86264003D01*
X8283739Y86473263D01*
X8285613Y86483894D01*
X8304494Y86699705D01*
X8304494Y86710495D01*
X8285613Y86926307D01*
X8283739Y86936938D01*
X8227667Y87146198D01*
X8223979Y87156332D01*
X8132423Y87352673D01*
X8127025Y87362023D01*
X8086814Y87419450D01*
X8078703Y87426883D01*
X8069424Y87420972D01*
X7365095Y86716643D01*
X7358431Y86705100D01*
X6641567Y86705100D01*
X6634903Y86716643D01*
X5930574Y87420972D01*
X5921296Y87426883D01*
X5913183Y87419449D01*
X5872971Y87362019D01*
X5867577Y87352675D01*
X5776020Y87156332D01*
X5772332Y87146198D01*
X5716260Y86936938D01*
X5714386Y86926307D01*
X5695506Y86710495D01*
X5695506Y86699705D01*
X500000Y86699705D01*
X500000Y88360522D01*
X5699500Y88360522D01*
X5699501Y88357228D01*
X5699853Y88353950D01*
X5699854Y88353939D01*
X5705079Y88305332D01*
X5705080Y88305327D01*
X5705909Y88297617D01*
X5708619Y88290351D01*
X5708620Y88290347D01*
X5729673Y88233903D01*
X5756204Y88162769D01*
X5842454Y88047554D01*
X5957669Y87961304D01*
X6092517Y87911009D01*
X6152127Y87904600D01*
X6155451Y87904601D01*
X6158768Y87904422D01*
X6158699Y87903146D01*
X6210046Y87890641D01*
X6254430Y87851769D01*
X6275825Y87796786D01*
X6277356Y87785157D01*
X6284128Y87774526D01*
X6988457Y87070197D01*
X7000000Y87063533D01*
X7011542Y87070197D01*
X7715870Y87774526D01*
X7722642Y87785157D01*
X7724174Y87796786D01*
X7745538Y87851724D01*
X7789856Y87890590D01*
X7841304Y87903180D01*
X7841238Y87904423D01*
X7844558Y87904601D01*
X7847872Y87904601D01*
X7907483Y87911009D01*
X8042331Y87961304D01*
X8157546Y88047554D01*
X8243796Y88162769D01*
X8294091Y88297617D01*
X8300500Y88357227D01*
X8300499Y90052972D01*
X8294091Y90112583D01*
X8243796Y90247431D01*
X8157546Y90362646D01*
X8062742Y90433616D01*
X8049431Y90443581D01*
X8049430Y90443582D01*
X8042331Y90448896D01*
X7951966Y90482600D01*
X7914752Y90496480D01*
X7914750Y90496481D01*
X7907483Y90499191D01*
X7899770Y90500021D01*
X7899767Y90500021D01*
X7851180Y90505245D01*
X7851169Y90505246D01*
X7847873Y90505600D01*
X7844550Y90505600D01*
X6155439Y90505600D01*
X6155420Y90505600D01*
X6152128Y90505599D01*
X6148850Y90505247D01*
X6148838Y90505246D01*
X6100231Y90500021D01*
X6100225Y90500020D01*
X6092517Y90499191D01*
X6085252Y90496482D01*
X6085246Y90496480D01*
X5965980Y90451996D01*
X5965978Y90451996D01*
X5957669Y90448896D01*
X5950572Y90443584D01*
X5950568Y90443581D01*
X5849550Y90367959D01*
X5849546Y90367956D01*
X5842454Y90362646D01*
X5837144Y90355554D01*
X5837141Y90355550D01*
X5761519Y90254532D01*
X5761516Y90254528D01*
X5756204Y90247431D01*
X5753104Y90239122D01*
X5753104Y90239120D01*
X5708620Y90119853D01*
X5708619Y90119850D01*
X5705909Y90112583D01*
X5705079Y90104873D01*
X5705079Y90104868D01*
X5699855Y90056281D01*
X5699854Y90056269D01*
X5699500Y90052973D01*
X5699500Y90049652D01*
X5699500Y90049651D01*
X5699500Y88360540D01*
X5699500Y88360522D01*
X500000Y88360522D01*
X500000Y99376000D01*
X516613Y99438000D01*
X562000Y99483387D01*
X624000Y99500000D01*
X99376000Y99500000D01*
X99438000Y99483387D01*
G37*
G04 #@! TD.AperFunction*
M02*
