G04 #@! TF.GenerationSoftware,KiCad,Pcbnew,(7.0.0-0)*
G04 #@! TF.CreationDate,2023-03-22T18:35:00+09:00*
G04 #@! TF.ProjectId,PC8001-SC1602,50433830-3031-42d5-9343-313630322e6b,rev?*
G04 #@! TF.SameCoordinates,PX5f5e100PY8f0d180*
G04 #@! TF.FileFunction,Soldermask,Bot*
G04 #@! TF.FilePolarity,Negative*
%FSLAX46Y46*%
G04 Gerber Fmt 4.6, Leading zero omitted, Abs format (unit mm)*
G04 Created by KiCad (PCBNEW (7.0.0-0)) date 2023-03-22 18:35:00*
%MOMM*%
%LPD*%
G01*
G04 APERTURE LIST*
%ADD10O,1.700000X1.700000*%
%ADD11R,1.700000X1.700000*%
%ADD12R,1.600000X1.600000*%
%ADD13O,1.600000X1.600000*%
%ADD14C,1.600000*%
%ADD15C,1.440000*%
G04 APERTURE END LIST*
D10*
X96249999Y51169999D03*
X93709999Y51169999D03*
X96249999Y53709999D03*
X93709999Y53709999D03*
X96249999Y56249999D03*
X93709999Y56249999D03*
X96249999Y58789999D03*
X93709999Y58789999D03*
X96249999Y61329999D03*
X93709999Y61329999D03*
X96249999Y63869999D03*
X93709999Y63869999D03*
X96249999Y66409999D03*
D11*
X93709999Y66409999D03*
D10*
X96249999Y80039999D03*
X93709999Y80039999D03*
X96249999Y82579999D03*
X93709999Y82579999D03*
X96249999Y85119999D03*
X93709999Y85119999D03*
X96249999Y87659999D03*
X93709999Y87659999D03*
X96249999Y90199999D03*
X93709999Y90199999D03*
X96249999Y92739999D03*
X93709999Y92739999D03*
X96249999Y95279999D03*
D11*
X93709999Y95279999D03*
D12*
X57249999Y60324999D03*
D13*
X57249999Y62864999D03*
X57249999Y65404999D03*
X57249999Y67944999D03*
X57249999Y70484999D03*
X57249999Y73024999D03*
X57249999Y75564999D03*
X57249999Y78104999D03*
X57249999Y80644999D03*
D11*
X19419999Y66499999D03*
D10*
X21959999Y66499999D03*
X24499999Y66499999D03*
D14*
X82750000Y83000000D03*
X85250000Y83000000D03*
D15*
X36075000Y67975000D03*
X38615000Y70515000D03*
X36075000Y73055000D03*
D14*
X18420000Y72500000D03*
D13*
X28579999Y72499999D03*
D14*
X70250000Y83000000D03*
X72750000Y83000000D03*
D12*
X6999999Y89205099D03*
D14*
X7000000Y86705100D03*
D11*
X48474999Y78874999D03*
D10*
X51014999Y78874999D03*
X48474999Y76334999D03*
X51014999Y76334999D03*
X48474999Y73794999D03*
X51014999Y73794999D03*
X48474999Y71254999D03*
X51014999Y71254999D03*
X48474999Y68714999D03*
X51014999Y68714999D03*
X48474999Y66174999D03*
X51014999Y66174999D03*
X48474999Y63634999D03*
X51014999Y63634999D03*
X48474999Y61094999D03*
X51014999Y61094999D03*
D12*
X64449999Y79699999D03*
D13*
X64449999Y77159999D03*
X64449999Y74619999D03*
X64449999Y72079999D03*
X64449999Y69539999D03*
X64449999Y66999999D03*
X64449999Y64459999D03*
X64449999Y61919999D03*
X72069999Y61919999D03*
X72069999Y64459999D03*
X72069999Y66999999D03*
X72069999Y69539999D03*
X72069999Y72079999D03*
X72069999Y74619999D03*
X72069999Y77159999D03*
X72069999Y79699999D03*
D11*
X19919999Y42999999D03*
D10*
X22459999Y42999999D03*
X24999999Y42999999D03*
X27539999Y42999999D03*
X30079999Y42999999D03*
X32619999Y42999999D03*
X35159999Y42999999D03*
X37699999Y42999999D03*
X40239999Y42999999D03*
X42779999Y42999999D03*
X45319999Y42999999D03*
X47859999Y42999999D03*
X50399999Y42999999D03*
X52939999Y42999999D03*
X55479999Y42999999D03*
X58019999Y42999999D03*
X80359999Y89499999D03*
X80359999Y86959999D03*
X77819999Y89499999D03*
X77819999Y86959999D03*
X75279999Y89499999D03*
X75279999Y86959999D03*
X72739999Y89499999D03*
X72739999Y86959999D03*
X70199999Y89499999D03*
X70199999Y86959999D03*
X67659999Y89499999D03*
X67659999Y86959999D03*
X65119999Y89499999D03*
X65119999Y86959999D03*
X62579999Y89499999D03*
X62579999Y86959999D03*
X60039999Y89499999D03*
X60039999Y86959999D03*
X57499999Y89499999D03*
X57499999Y86959999D03*
X54959999Y89499999D03*
X54959999Y86959999D03*
X52419999Y89499999D03*
X52419999Y86959999D03*
X49879999Y89499999D03*
X49879999Y86959999D03*
X47339999Y89499999D03*
X47339999Y86959999D03*
X44799999Y89499999D03*
X44799999Y86959999D03*
X42259999Y89499999D03*
X42259999Y86959999D03*
X39719999Y89499999D03*
X39719999Y86959999D03*
X37179999Y89499999D03*
X37179999Y86959999D03*
X34639999Y89499999D03*
X34639999Y86959999D03*
X32099999Y89499999D03*
X32099999Y86959999D03*
X29559999Y89499999D03*
X29559999Y86959999D03*
X27019999Y89499999D03*
X27019999Y86959999D03*
X24479999Y89499999D03*
X24479999Y86959999D03*
X21939999Y89499999D03*
X21939999Y86959999D03*
X19399999Y89499999D03*
D11*
X19399999Y86959999D03*
D12*
X77199999Y79624999D03*
D13*
X77199999Y77084999D03*
X77199999Y74544999D03*
X77199999Y72004999D03*
X77199999Y69464999D03*
X77199999Y66924999D03*
X77199999Y64384999D03*
X84819999Y64384999D03*
X84819999Y66924999D03*
X84819999Y69464999D03*
X84819999Y72004999D03*
X84819999Y74544999D03*
X84819999Y77084999D03*
X84819999Y79624999D03*
D11*
X7999999Y6459999D03*
D10*
X5459999Y6459999D03*
X7999999Y8999999D03*
X5459999Y8999999D03*
X7999999Y11539999D03*
X5459999Y11539999D03*
X7999999Y14079999D03*
X5459999Y14079999D03*
X7999999Y16619999D03*
X5459999Y16619999D03*
X7999999Y19159999D03*
X5459999Y19159999D03*
X7999999Y21699999D03*
X5459999Y21699999D03*
M02*
